<mxfile host="app.diagrams.net" modified="2021-06-22T13:53:41.232Z" agent="5.0 (Windows NT 10.0; Win64; x64) AppleWebKit/537.36 (KHTML, like Gecko) Chrome/91.0.4472.106 Safari/537.36" etag="x0_GqGszz28w86B-ETpI" version="14.8.0" type="github">
  <diagram id="f8p_RLvVnmRlpYBPBMnu" name="Page-1">
    <mxGraphModel dx="768" dy="427" grid="1" gridSize="10" guides="1" tooltips="1" connect="1" arrows="1" fold="1" page="1" pageScale="1" pageWidth="850" pageHeight="1100" math="0" shadow="0">
      <root>
        <mxCell id="0" />
        <mxCell id="1" parent="0" />
        <mxCell id="mRYJI_ucZMOmYyPQ1O4j-1" value="Phase III" style="rounded=1;arcSize=10;dashed=1;fillColor=#d5e8d4;strokeWidth=2;verticalAlign=top;fontSize=10;opacity=50;strokeColor=#82b366;" vertex="1" parent="1">
          <mxGeometry x="510" y="210.25" width="180" height="429.75" as="geometry" />
        </mxCell>
        <mxCell id="mRYJI_ucZMOmYyPQ1O4j-2" value="Phase III" style="rounded=1;arcSize=10;dashed=1;fillColor=#d5e8d4;strokeWidth=2;verticalAlign=top;fontSize=10;opacity=50;strokeColor=#82b366;" vertex="1" parent="1">
          <mxGeometry x="150" y="210" width="90" height="430" as="geometry" />
        </mxCell>
        <mxCell id="mRYJI_ucZMOmYyPQ1O4j-3" value="Phase II" style="rounded=1;arcSize=10;dashed=1;fillColor=#ffe6cc;strokeWidth=2;verticalAlign=top;fontSize=10;opacity=50;strokeColor=none;" vertex="1" parent="1">
          <mxGeometry x="270.23" y="210.25" width="192.5" height="429.75" as="geometry" />
        </mxCell>
        <mxCell id="mRYJI_ucZMOmYyPQ1O4j-4" value="Recovery" style="rounded=1;arcSize=10;strokeWidth=2;verticalAlign=top;fontSize=10;strokeColor=none;glass=0;fillColor=none;" vertex="1" parent="1">
          <mxGeometry x="610" y="244.25" width="69.5" height="312" as="geometry" />
        </mxCell>
        <mxCell id="mRYJI_ucZMOmYyPQ1O4j-5" value="Observability" style="rounded=1;arcSize=10;strokeWidth=2;verticalAlign=top;fontSize=10;glass=0;fillColor=none;strokeColor=#D4E1F5;" vertex="1" parent="1">
          <mxGeometry x="517" y="244.25" width="63" height="312" as="geometry" />
        </mxCell>
        <mxCell id="mRYJI_ucZMOmYyPQ1O4j-8" value="Availability &#xa;Zone" style="rounded=1;arcSize=10;dashed=1;fillColor=none;gradientColor=none;strokeWidth=2;verticalAlign=top;fontSize=10;strokeColor=#3399FF;" vertex="1" parent="1">
          <mxGeometry x="376.98" y="248.25" width="69.5" height="381.75" as="geometry" />
        </mxCell>
        <mxCell id="mRYJI_ucZMOmYyPQ1O4j-9" value="" style="rounded=1;arcSize=10;dashed=1;fillColor=none;gradientColor=none;strokeWidth=2;fontSize=10;verticalAlign=top;strokeColor=#FFB570;" vertex="1" parent="1">
          <mxGeometry x="289.73" y="340" width="150" height="110" as="geometry" />
        </mxCell>
        <mxCell id="mRYJI_ucZMOmYyPQ1O4j-10" value="Availability &#xa;Zone" style="rounded=1;arcSize=10;dashed=1;fillColor=none;gradientColor=none;strokeWidth=2;verticalAlign=top;fontSize=10;strokeColor=#3399FF;" vertex="1" parent="1">
          <mxGeometry x="284.98" y="250.5" width="69.5" height="379.5" as="geometry" />
        </mxCell>
        <mxCell id="mRYJI_ucZMOmYyPQ1O4j-11" value="" style="edgeStyle=orthogonalEdgeStyle;rounded=0;orthogonalLoop=1;jettySize=auto;html=1;fontSize=10;" edge="1" parent="1" source="mRYJI_ucZMOmYyPQ1O4j-12" target="mRYJI_ucZMOmYyPQ1O4j-13">
          <mxGeometry relative="1" as="geometry" />
        </mxCell>
        <mxCell id="mRYJI_ucZMOmYyPQ1O4j-12" value="ECS/Fargate/&lt;br&gt;ElasticSearch" style="points=[[0,0,0],[0.25,0,0],[0.5,0,0],[0.75,0,0],[1,0,0],[0,1,0],[0.25,1,0],[0.5,1,0],[0.75,1,0],[1,1,0],[0,0.25,0],[0,0.5,0],[0,0.75,0],[1,0.25,0],[1,0.5,0],[1,0.75,0]];outlineConnect=0;fontColor=#232F3E;gradientColor=#F78E04;gradientDirection=north;fillColor=#D05C17;strokeColor=#ffffff;dashed=0;verticalLabelPosition=bottom;verticalAlign=top;align=center;html=1;fontSize=10;fontStyle=0;aspect=fixed;shape=mxgraph.aws4.resourceIcon;resIcon=mxgraph.aws4.ec2;" vertex="1" parent="1">
          <mxGeometry x="299.73" y="388" width="40" height="40" as="geometry" />
        </mxCell>
        <mxCell id="mRYJI_ucZMOmYyPQ1O4j-13" value="RDS" style="points=[[0,0,0],[0.25,0,0],[0.5,0,0],[0.75,0,0],[1,0,0],[0,1,0],[0.25,1,0],[0.5,1,0],[0.75,1,0],[1,1,0],[0,0.25,0],[0,0.5,0],[0,0.75,0],[1,0.25,0],[1,0.5,0],[1,0.75,0]];outlineConnect=0;fontColor=#232F3E;gradientColor=#4D72F3;gradientDirection=north;fillColor=#3334B9;strokeColor=#ffffff;dashed=0;verticalLabelPosition=bottom;verticalAlign=top;align=center;html=1;fontSize=10;fontStyle=0;aspect=fixed;shape=mxgraph.aws4.resourceIcon;resIcon=mxgraph.aws4.rds;" vertex="1" parent="1">
          <mxGeometry x="299.73" y="468" width="40" height="40" as="geometry" />
        </mxCell>
        <mxCell id="mRYJI_ucZMOmYyPQ1O4j-14" value="ECS/Fargate/&lt;br&gt;ElasticSearch" style="points=[[0,0,0],[0.25,0,0],[0.5,0,0],[0.75,0,0],[1,0,0],[0,1,0],[0.25,1,0],[0.5,1,0],[0.75,1,0],[1,1,0],[0,0.25,0],[0,0.5,0],[0,0.75,0],[1,0.25,0],[1,0.5,0],[1,0.75,0]];outlineConnect=0;fontColor=#232F3E;gradientColor=#F78E04;gradientDirection=north;fillColor=#D05C17;strokeColor=#ffffff;dashed=0;verticalLabelPosition=bottom;verticalAlign=top;align=center;html=1;fontSize=10;fontStyle=0;aspect=fixed;shape=mxgraph.aws4.resourceIcon;resIcon=mxgraph.aws4.ec2;" vertex="1" parent="1">
          <mxGeometry x="391.73" y="388" width="40" height="40" as="geometry" />
        </mxCell>
        <mxCell id="mRYJI_ucZMOmYyPQ1O4j-15" value="RDS" style="points=[[0,0,0],[0.25,0,0],[0.5,0,0],[0.75,0,0],[1,0,0],[0,1,0],[0.25,1,0],[0.5,1,0],[0.75,1,0],[1,1,0],[0,0.25,0],[0,0.5,0],[0,0.75,0],[1,0.25,0],[1,0.5,0],[1,0.75,0]];outlineConnect=0;fontColor=#232F3E;gradientColor=#4D72F3;gradientDirection=north;fillColor=#3334B9;strokeColor=#ffffff;dashed=0;verticalLabelPosition=bottom;verticalAlign=top;align=center;html=1;fontSize=10;fontStyle=0;aspect=fixed;shape=mxgraph.aws4.resourceIcon;resIcon=mxgraph.aws4.rds;" vertex="1" parent="1">
          <mxGeometry x="391.73" y="468" width="40" height="40" as="geometry" />
        </mxCell>
        <mxCell id="mRYJI_ucZMOmYyPQ1O4j-16" value="ALB" style="points=[[0,0,0],[0.25,0,0],[0.5,0,0],[0.75,0,0],[1,0,0],[0,1,0],[0.25,1,0],[0.5,1,0],[0.75,1,0],[1,1,0],[0,0.25,0],[0,0.5,0],[0,0.75,0],[1,0.25,0],[1,0.5,0],[1,0.75,0]];outlineConnect=0;fontColor=#232F3E;gradientColor=#945DF2;gradientDirection=north;fillColor=#5A30B5;strokeColor=#ffffff;dashed=0;verticalLabelPosition=bottom;verticalAlign=top;align=center;html=1;fontSize=10;fontStyle=0;aspect=fixed;shape=mxgraph.aws4.resourceIcon;resIcon=mxgraph.aws4.elastic_load_balancing;" vertex="1" parent="1">
          <mxGeometry x="350.23" y="291.25" width="29" height="29" as="geometry" />
        </mxCell>
        <mxCell id="mRYJI_ucZMOmYyPQ1O4j-17" value="Auto Scaling Group" style="points=[[0,0,0],[0.25,0,0],[0.5,0,0],[0.75,0,0],[1,0,0],[0,1,0],[0.25,1,0],[0.5,1,0],[0.75,1,0],[1,1,0],[0,0.25,0],[0,0.5,0],[0,0.75,0],[1,0.25,0],[1,0.5,0],[1,0.75,0]];outlineConnect=0;fontColor=#232F3E;gradientColor=#F78E04;gradientDirection=north;fillColor=#D05C17;strokeColor=#ffffff;dashed=0;verticalLabelPosition=bottom;verticalAlign=top;align=center;html=1;fontSize=10;fontStyle=0;aspect=fixed;shape=mxgraph.aws4.resourceIcon;resIcon=mxgraph.aws4.auto_scaling3;" vertex="1" parent="1">
          <mxGeometry x="354.48" y="350" width="20" height="20" as="geometry" />
        </mxCell>
        <mxCell id="mRYJI_ucZMOmYyPQ1O4j-18" value="" style="edgeStyle=elbowEdgeStyle;elbow=vertical;endArrow=classic;html=1;fontSize=10;exitX=0.5;exitY=1;exitDx=0;exitDy=0;exitPerimeter=0;entryX=0.5;entryY=0;entryDx=0;entryDy=0;entryPerimeter=0;" edge="1" parent="1" source="mRYJI_ucZMOmYyPQ1O4j-14" target="mRYJI_ucZMOmYyPQ1O4j-13">
          <mxGeometry width="50" height="50" relative="1" as="geometry">
            <mxPoint x="399.73" y="370" as="sourcePoint" />
            <mxPoint x="449.73" y="320" as="targetPoint" />
          </mxGeometry>
        </mxCell>
        <mxCell id="mRYJI_ucZMOmYyPQ1O4j-19" value="Code &#xa;Commit" style="shape=image;verticalLabelPosition=bottom;labelBackgroundColor=none;verticalAlign=top;aspect=fixed;imageAspect=0;image=data:image/png,iVBORw0KGgoAAAANSUhEUgAAAGgAAABvCAYAAAAAGYUZAAAgAElEQVR4Aey9h3dd1bm3y99zvxNb0tbuvaj33mXZcoFQTyghEAglhNDBNhgINQFCC8UY2+q9994lq1vVlm25SJaeO965JFvunHFyzsm932GMH2tr7bXnWms+b5tzzb1916nFsyyeOsvCqTM3kew/y8Lppf/Vf2cfnFpiYUN3KUCnBc4S84uaNt9cPH0GTUssLv2v/jv6QOv708wvalKAlJecOsv8ggASKOc2wMjrs/+r/7Y+OKPALJw6vdWDlplfOMfC4jKnTl9QktdXdYGFxf/Vf08fLHN66TynlsQptOh11/z8CoMjF6lunKe0Zp6iqnkKKuYorFq4tSpPUfi/+uf2QdWi6u+i6nnK6k7S3HGSE+OL3DU9u8Z3eUv84fUhHnpuiPufGeXXz4zx6+fHuOc6yb5fPyca35C8Hv0P657nxrjnufFrdLXNzbZlO3GNrv/Mrf6+eVtb27323LdqR/b/krZ+yTG3O8fme+p+nxnn35/v4y+fD9PSschdEzPrvPvVMpmPjBO2Z4rg3Qv4dp/Cu28R976FK/LsW8C793rN4927qTm8e3+ZPPvmr7Qr5/Dc0O7meU7h3XtVnr2LyHVsva7rX9+6rc02ta0c989q68Z+ufZc8v4vOZ/cqyf3NJF7x3h+/wS1jWe5a2wW3v56hZRH5/DtOYV793mcuy/i3HsB577zOPctX9XeZZxb5Nq7jGvv+S06h2vvjXLuPcc12trmPmnjZpJ2L1yn667nunbkWm/e1s33X3Nv/8m2fsl573Q+596LOHZdJnTvIs/un6em8Tx3jc+u8/bXy6Q8NoFv3zRipW4huXcRr3jN7aQsf3HDymV7o+WofTe0MYd333XaO49v78JtpbU1f+Nnb2hrDt/eW0t5+vWfudXft2ln6zm8e2e5kzz7Zrm15vDsPY0z9wKh+2Z49sBJaprOcdf4nAA6S+pvR/HtG8ezdwa3hKp9MwTtPXkHyTGzN9GdPjdN0L6pa7X3JMG30dVruclnr29r3xTBe2+toL3Xnfsmn996fbdrS94L2jN5R/n2TnJ7TeHZM4cz9wyh+yZ59sAkNU1nNjzoq3OkPjqKb+8Ynj0nce+ewZ07iXfX+C00od53507j3nUS966ZLZJ9W5Q7hUe1Je3dXkG7JgnauakpgnZOX5Fv1zTeXVN3bGPzHNe2tdmmtvXd4To229jcXr2ma9vZ3B+cO0XI7ulbKnj3NEG/QL7dc9h3LhKy5wTPHhilpvnUVkBj+PaOXwfo1h0qAF25J3HtmsW1a07b5s7g2iIN3hZYW8B5btLZvp3XQrkR0C+HtNl5N9tudvwv3d6sja37gndNcTsF5U7hu6Om8ebO4shZIGTPCM8eOKEBkiru7S/FgwTQBO49s7h2z+IWy991a7lyp3DmzuDIncORO69p9yzO3K0SYCdvKvGy69v37jyJ7xby7DqJphs/d307GvwpfLturpsdf7t9t2rn6v5pgnJvLV/uNN7dd9JJPOJBOeJBAmjDgya3AAraO4FHAZrbCF1i/VMb2vQE8ZotHb97GtfuCdy7R3HvHsajdAJ37jiu3RtepqDNbXjXJrDN9q5uFYCdM3huIs0bJZxePf52rz3KAATmjbrd52723s3auH6fN/ckt5In9yS/RO7cm4S4K4AeGSNozzje3bN4ds3h2XkSz06BM6Hk2TWJZ+c07p2zOHPm8OTOErR7nJDdfSQ80E3uU/3c98dBfv38AHueHiT23k6Cc3tVDnPumsWxax7nLoE7hWvX5MZ2E/7GdudJ3LeSAnPd8VeM5392/+2875e+J4Yh6cIuIW73CM/sH6Wm6RR3CaCDX54l5ZETBO0exbfrJN6cWbw7pvHmTODZOabk2zmBL2caT/YMjswZgnefJPM3o9zzRBsvH+rlSMkidR0rVLdc4HjFOZ55o53dv20j4f4RFcocObO4pPNzxnHtHMe1CX6nnGNDOZN4cqZurp1iIFuO/Rd6/Utz2Z2Ok2LLvmOe4NwRnnnrBDWNi1cBpT58guDcUYKkWtopkKauBZQzQdCOSXzZ4wTnjBK1s5Mvjy4zMQ8X1uDCZbi0BpeBS+twcR36JuDdr5dIemCIoF0nVJvO7AmcORO4do3j3jmGN0fTv2rn//dd16QyYHv2LwSkLHnTSnMmcWVP4cmaIGxnPyn31PFTyTJT82tcWNXACJRVgQOsyHYNli/B5MIaRyoWSX+gmZDsEXzZC3h2SAgVj/hfQFcN4A6AUn4zco0HuXdMaOEoR7aTeHNmCNk5Qc4jA3yXt8DJxXUuXobVdegducDfvpvixf3t/PlgF18enmFo/BLLF+HCCoydXOVv388TmdODL/Mk3uwZPDsm8O4Yw7djVEkLp/+aIexqJ/5XXt9tAL3997MIoKCdI6rj3NmTKEA7xnGK9+yQ8clJIvec4JEXBpg+hYJzbgWKqmd5/sAIOx4eJGJnBxG7Otj12CAvHRqhrm2Jcxdg+Tz0n7jMfU+NEbV7At+OCTw7xvFmj+PLHlPy7hjHkzOujELy1P+NcuZMY8ueJ2jnIH94Y/hqkfD2F2dI/fdhfDlDuLNGcWWO48mewC35YocAmsSXM0bmb07w3t9PqlB2eR0auy/xyJ+GCcrqQTrYnTODI2sST/YJQnd088LbY7T1LHN5Bc4tr/P5T8uqjaCcYdw7xtQ5fFkTiDzZ42qfK2eM/1vl3DGFLWsOb3Y/T78+dLVIUIAeGiJoxyAeAZQxjjdrHHfWOJLUXdmj+LJ7efTP4zT3wto6CKBX/jJL9D2T2DNPYs+aw5G9gCV9BnvWLM6sGaL3DPHeZ1NcvAQrqzA0A79+uo+gnB5cO07gyprEm6lJzuXKHsO5Y/T/Uo3hzJ7EljGLN6uPp14bvAWgzFHc6eN4M8aUnFkTuLKGCc5s5YUDA8wswaVVWF6De57pwZ41jiVjDlvGFJ7sKZwZ4ziyTmLOmMeZNcIL700wexpVTCxcgoee6yB4ZzvOnCFc2RNbAIkh3AGQvJ8tRjP+/0+I2WLsNwV0mtRND9oCyJ0xhgZoCF9GE39+t49l8R7gPJD7VCfG1GFMaSexp4/hTBvBkTqCPWMCU/o8tswRnj4wweiM5nHz5+GBZ1rx5bTjyBnFkT2DO3MGb8YM7qxpXNmTyorEkq7VBpRNOArkCM4dov+Pelz2GC4J62p7AueOE8rwBJBvhxbiaq8MVD8/RcqDA/iyB3BnnsCZfgJXxgkcmSewZ47izBzGldnFvc+foKxVK6XFg5587QS+7GFsqRO4MqdwpU/gTJ/EkTaNI20Wb3qfKhaWluHyGkyfhl8/2YEnqw9bxgzWtFM4UxdxJM3iSJvDnjGLPWMGe8ZJbZs5qyzKlT2DM2tK5TdHlnjoCRzZQzh2DODIHsGRNYoja+yKXFkSPv/VNIora0xJrtUpKSRzAnfmGO6sEVxZQ+o+7JkzNwI68Pkpkh/sV4BcmeIBI9gzh7FlDWPPHMEh+7L6SX10nI8OX+ScDEzX4Kujy+x8eAhfeg9BmSfwZIwTlDVNUMYYIRmD3P/UOMdKznJxBZYvQGk97PxNL0FZfbilA9NHcKf04UrsxJ3ajTu9E09aB960DrX1pHXhTO3DlTmBI3MKe+YUjsxxZTDOrH6c2X3aa2VEYkgnNjSCM1OT3M+/hjSjd2XIdY6qVCC53pUxhitDHGBQ3Yvk8xs86HpAEpqsWYNXZMscxpp1grC7R3n23ZOck/HPGgxNwPt/n2XXbzoIy2giJKOHsKwBwtNbyXmgg8+/n2diRstZc6fWePb1BeJ3D5HzyDjPvT3LoS9neP+LCQ79dYz3Ph/j/c9Hlf7y+SgffD7Kh1+McejzSWL2DWJNH8OqvHMMZ/oQzox+TfI6fURThuzfqmFc6f8acqcP404TiWFKlBrFKWlBXqtrHlBbiR7e7L5rq7jrAVkzRjBnDmDO7MciyhjCkjGGI3OY3U/20dKzxMXVdVZkOufECn/7boLH/9jBg78f4sHfD/P48x188uUJeofPqRmF0+fWqGpeJi53hKC0EV75yxIdw2tckNkHmRZaWefS6hor0uYqrK6gSvP1y3BxDXIe68GcOoIldRJHyglcKUM4Uwc1pQ3jTBvGIUofwpE+uCF5PYQzbQjXv4DcqUNoGsadegJn6gkcaaIRHGliZAPqHmzpJ/Fk9fLUq4NUNy5oc3GbgKT+lnCgAGUMYMnox5o+gC1tGHPKCNbUQSJzu3j0+Q56Tpzn9MV1Ned2+jwMjEFVA1Q3wtAYnLuoTfcsLq9T33mBJ16aIjR7FnfKEF8eXeLUMqyz+d8a2kTRmrZTChEZO52F+TOQ/WgPljQ5/wTOFAmLQ7hShnGljGg3mnoCe+ootrRRrBtb9TpN2yfv/U/LkTqKK+UEzg05UrSCypE6jCN1CEfaII7UE1gFUGYvv391gOqG+auAEu/vxZXRrcKHPX0Ea/oQtrQhVZVJp4jVutP68Wb0EJrTwb6nB2kbPs+Fy+tqXLQufbsCaxdRnSxzcWdX1ilvXeHBF+ZwpnViTJzAk97DF0dOsXhmE85123WQthZOrVNSu85X+evE3TuALVVuaEyBcSs4o7iSx3GlTuFMncaeOoMleRZj0gyWtDnM6bOY02fUuEzGZv/TsqXN4EidxpYyiS11HGvSCI5kMTJNAk72y3XeFFDSfb140rtVOBC3s6YOKdnFSpOHcCf14Unpw50xgD19iOBdPeQ8Ws/7fx+jZ+gSqzJTKvX3GqytQVnNGZ59o5eU+1vw5QxiSZvAmDyNJ7OTL35evAGQ+JB4lFR7bZ3zvPhGM+n31RB/by/uHQPYMkawpQukTe8ZxZ08ijdVipQBgjL68GV040lrx5fZji+rHe+G5PX/tIKy2gjKald97MwQGKOIF7lTBpWcKVIN/0JA9jSJ90NK9pRBHCn9OJJ6cab04UwfVFWeI2sA744OUu5v5U8H+qhpnFezC1I8/HB0jEee6yV2Tw+utB5sqX1YBXrmHO7MDj47ssDcmS0hTrxmw5HOnYd/HOknfudhvJmtWmjLkM8OY8mQYmEAe9qgCm++5F7id3bwzt+mKGs8S1nDGSobl6hu+ddSVcsSlS1LHKs8zYvvzhOU3aNCsYwZ3al9uFN7cKUOYN8S4p58dYCqzRB38LNTbPUgAST5RmRP6cee0os9uQdbci+21H5s6YNYM4axpJ/Akd5F7mNdfHtsRj0TOr+yzstv9xO/t0slQFvqGPa0AaypA1jST+LMaONvP80zt7QBRciI+8hmHc5fgob2ef7weivutCZsGWOY04YwpfVjSu9Tsqb140weJCi5nZTcBvJKZzi/IsUGXL6seaF44r+SxHDPXFinsfcSkbvbsMiAPnUEV2oP7tQuXKm9SD6ypU3jyejh96/0XwX09t8WSb63F09aN65USVbibhL3B3Ck9uFI6dkA1IM1Wej3YpFOSx1X1rzz0QG+OjKrpnOWV+DF/YNE5/ZgTTmBZeMYacuSMoE7rYUvfppnQQBtxLX1VejqWWZ6/rJq48wFaOpe5oUDfYTvaMGe2oUlbRBT+iDmtH5lJI7kfnxJ7STtbOLbI7NMnISpGZiZg5Mbmp6D/4w22/klWznPleNmYWpWu5bZOTh3TrtXMcCF5cvE7m3CkjKMXfKP8h4Z7/XgSBlUOcqb3s1Tr/RtFAkn13n7r4sk39ODR0im9OOUsJbaryQDRQGkQerGntyNLaUba0o/FqlI0vrY9WgP3/w8pWa5L66t8/LBfuL2dGBLESgCW7xwEHvyOL6UJr76aY5Tp7WcdenSGsODZ/nT6yN8dWSOkalLaowl1r9w6iLPvFRHRE4LKm6nj2NV7QwggDxJXURldfLs61N89t0Sf//+NF8dPs3fD5/i85/+8/rip1OqLWnvdpLj5Hza8af5+49L/O2HJb48vMg3P87Q1nlWTRiLPS6cu0x0bh2WpBFsyVLVSeroxiFKHsCWOI4vtZOnXumlumGOu6an13nnkwWS7+7Ck9KBM7lP3bwj5SqYrXAEkIKU3I8lWUrEbnY+3MnXP02oJ6ny6Pv1QxLi2lRotCYPaXDEYpLH8aY08cXhORY3PGhq+jx/eL6F6MxGglPr+OjrCeZPX1aFhnjYyhrc/1Q33gwBPIo9aQh7Ur+SM7lXQfImtRKc3EBoSg1haZWEplUQnP7PUWhaOaFpZbdVcHoZwenlhKRXEJpWRWhaLaEZdYSllxCR/DXvftzG/Cktki8qQA1YkkaxJY/hTB7AmSwO0HsVUEonT73cS3XjBqC3P54naV8n7uR2VQzYk/qwJ0ne0WDcbGtL7secOIQtuZMd/97BV4cn1KDy3CV48/1hEva1q5xlTRrGkTyEI2kEa/IkztRWPv1pnpkzqLzR2HmG0ORjOJPbcaX2Eb2jlff/OqKexG5WDuVNa+x5bAxHfB+OxEHsSYPYkjWJt7tTRb24kjtwJLViS2z7p8me2MKdZEtsQVMr9oR27Amd2BO7cac040vM551P+9R4TopcCXHRuY1YksaxJU3gTBrUnEIcInlI86DrAR34aI6EPR045cYSurEm9GJN7Maa2IktqesGbXqQKWEQW2IH2Q+28+UPE6pIkPxx4IMRDVCStDOsWX3iCJakMewp7fz+rQn+fmyJvx9Z4oWDM3iSarUCJGUIT2ofafd08c7HIyyche5BePyFfiKzOtScnSupG2dSF86kdhwpbbjTunCnaTnSktiLNXkAc1IflsR/jqyJfdgSe24pa1IPlqQezEm9WBL7sSQOYEkYxBjTh13mGOPLOfDxkCqKNgFF3RRQvwJkTRzDI330Ug9VDbNaiDvw4SwJu9txJLRuAOrBKqBuAciW1I01qQ9TwhDWxA7Sft3Mp1+PKA86vwoHPxIParviQWLxyuqThnAkdxJ3dyfZD3eT9VAvcXv6cCa0YU3qVjdpS+zFldRB4t52nnptiIefHyEsWzyjUxmQO7GOoORKorIqiNtZRXROLSEZdbiSxXP61ADQmjyIJUGigMT0fvXamtDHNZJjE/vvIDmmF/ttJNdrEThKcvwA1oRBTDH9OBI7ccWXsf+jQfVMTIaKc+cuE7GzHmP8CJaEE9gTBWQ30qfatY7iSRZA3VsA3dKDbvSeTY+SCzIlDmJJbCf57kY++mJQW261Bgc/HroCSPKUVeWMXhU2HUndOJI6sIsHJHbgSOjCHt+FJbEDsyihC3N8N5aEbnXhDilKkrtxprUTndvKb57t4uOvhvji+yG+OjzC5z+cYP/HJ3jo2SFidvXgTOrEJt6fIDfci02iQYIY3LVS78n7d5B0nuM2UudK6lZeZE2S9vqwJ/Rjju3DmdiBO66E/R8OXAV09jLhObXoYwcxxw9jje/BltCJNbFLRS5LggBq48k/d1NZP6N50MGP5kjcCHF25c5yIrnBWwHqxJLUjUncWQDt2wC0sT7u4EdDxO9tRS7YkjSsrEvA2hO7sEvHJUjHyY30KkC2hA7MSe0Yk9oxJXRiiu/FGD+EKWEcS9Ig3swmHnyui4OfnqC87tSV9XdikbL+bmoBSmrP8dYH49z9eA/2+FqsctMJGmiBfb20EN6DNfHm0sKaGMnGdd9iK/dlTe5S/XEVUB/m2F4FyBNXwoEbANWgjxvEpACJMXWoaCWpxRx/AneSAOqiYiugrSFOrEqFOBXmurQPJwrlTbVjTuzCFC/ho42kvQ188NmgWukjVdyBjwaI29OiwoMUEhbVCdpnbfHdaBJYklBbsCY1Y0pux5DUgTFRAPWo8GlKHMca387dj9fQ3DXHqjzmkPUNF+DCRThzbpXlSxvLv9bg9BkoqrpA6j21uNKkSBHL7sac0I0poesaWRI1q5f8cTMJOGWkN8nBm1Fkc6sAJUvYl8/0KePbBOSOL2H/RwPMnNamgyXEhe+sxhDXjyl+EEt8J9b4NiwJ7VjkvmNH7gRITtKvFQqqYJBctBWS0G5XsMzxfarx5L2NfPDZ0DWA4ndLPuvDInkqQXPjTTgS0hzxHTji23AkNGNLbMac3I5RhbhOLPFiVZJD+glKqaFnZFlN88kswcrFdZZOr9HSsUp++SydgxeZObXG8oV19ZjizDKUN0HWQzI6b1Mh0xTXrTrCEt+BRcJpvIQTiRC3Tv6bHrQJ4XZbDVCXyqMSgewJWzwovpgDH/ZfDXECKOdGQGKItwR04COtSLAntGKO68QUK1beuyEJSV0qTkoosiW0b0g6sg97XBupexr5aAuggx8OkpjbhiO+H1v8CDYpj+O7r5NA6sQe36FZkOo8abMHS1w39oQ24ne38WPRBRbOrKuwNjkH3x6ZZ9d9dURlVBKeUU10Th25Dzfx1ZFJ9YhDBrhL5+HlA73E5Qp8AdKLdeM8ahvXhVVZrpz7Py8BL+3Y4juwx3Vij+3GHtuHK64dT0whBz/oZ/60Npc8L0XCFkByHba4NhUpNgG5Elp54sUtIW6zilOAYjsxxfwyQNa4Phyx7aTuaeLDz4aveNDBD4cUIGdcP/a4ERxy3A2ABJhA6sIW14lVqRtLXB/WuG6cCXWk7itmXJYXr8CZ86ixVtrdzTjjOjBGdmKM6kcf2avC5J5HGvnu2JA2ob4OXX3LPPCUgGjDFNur2peOsMV1bFE7trhbyxrXjuUXSo61xbZhjxF1YIvpxRXbhjsqn4N/6WVBBqrrMC9Fwo4qDLH9mOIG1b1vArLG9WCOGeHWgOJbMG0AkoOlo5SusbZ2RVvIW2L7sMe2kby7ib98Nsz5y7C8Cvs/HCQht1WBscWNYI/rxR7XdWvFdmEVq44T7+nHFtdFRFY9T/25iaULa2rqp6PnAk+9JB7bgCl2AGOMJn2MlLRtBKeU8dSLDUzOaI87ZNL12TcG1XjJENODNbYLW6zWidKRmuTvW8sa247lF0qO1QC1aoCie3FuAnp/C6AzqwqQPqZP3Yc1VgymFUtcG5bYbkzRQ7gSWm70oPhcsa4WTDEdGGM2O2zTsjuwxm2qHbEWsXgpJa2xrSTtbuT9z4ZYvoxar/DWh4PE57ZiF2+IHcYa24s9tuu2kg60iAXF9qtzJe9r4W/fTrN8cV09Fv/qu2F23NeEPb4TQ+wQxrgu9LHtGOVzsa04Y8rY91AdVfWX1WNzeRz/53dG8KR2oI/uwhLTiS1GwLRsSF7fGo68918OKKYfS4ycpwWLKKYLY9QQrvjrAO3/cBYNUDOmmHaM0R1YYkXXW9DmftkKoF5sMS0k7a7n/c8GOS/faFiDNz8YIH6XdEQPlpghrDE92FQHSSfdXFp7XSociTWl3t3K1z8scPHSupqPO/BePbFZZapMF0D6mFYCY5owRrVjjWrFFV3Nzl83cfj4JbWwUr5t8eI78vy/HX1UF+boDqzRrVhjmjfUqgETaLeQNVas+pfJqtoQ72nBHtOO7VYedHaVsB1ViAcZo/uwRLep6zHHtGCO7sQYOYjzCqCNmYT9H54kblcr9tgmzFFtmKKuByN/a1CkIzV1Y47uwR7dRHJuLR/8bUAlcpnNfvP9HuJzGrFFdWCJ6scW/UsAtWOO60AqLnNcG9HZdbz8Rhfnz6+pB4Ff/zhIzn31OFSHDaGPbUUf3YwxvANbeDueqGr2PthESeUa6+vaV2D+eFDmudpuDii6RQMm0G4hS3Qr5pg7S47T2mjBFt2MLbpNAxTTijsyn4ObIQ7JQauEZVcSGNWDIar3CiDrBiB9RD+OuCZ+96cuKus3JktvBNSmXVhsM2aRfDhG9rVfVXQn1phuXDF1pO4q48O/dl553HDwg3aScqqwhDdiCu/EKsdGt99W0hGm2FaMMZ3q3J74cvbeX8i55TUV4roG1nj2lQFcMZWYoiTMdRIQ3oIptANXZCvBMUU8+lS5ev4jzwBlPPbMG31Y4hrxD9OMzhwlVtqkKaoZ9bfsu41M0S3cSZuft0Q1YxVFtmKN6sYV3YIn4jgH3+thflErEubOrBKaWYEushtDVA+mqNaNa2rGHNmBIfyXAlJwGrGokCDxcQugjQ53x7cRnFDOzrsL+OLLdvWIQJZNffP9INn7SnFFV2KPFqtquy0cgadZapvKgWIMjthqMvaUcnJxjUuS2y7Cp1/2EJV2HFt0DfqobgyRA1jDO/FEVnD/I3UcL5pWx8rT2fauS9z/hORQgd6DSbxB4NwGxs3euxMceX/zc/8xQF03BxR2HaDJk+tc60Gt2s3ENmGJadTidfQmoDYsMS1YYxpwxlSSsruZd/86TE3jNKNjp1VokXHI2OQ5jhbN8PhzXUSkVuOIqcYmbUW3YlG54EZvklh81UMl3DYQk1nHu38dZ2p+Rc3zDY8v8c1Pkzz27BghqQK+gciUel57e4Da5kVOzq9o3/K7DC++XkN0VjmWmFaM0V2YopqxRDViiWxWMkdKx4oXXe9JrViiWrFEyvZq52ugpG+uetQmGG0r7Tdd40GO6Gbct/SgmwCKascQ3osjtlGFuAoJcfIlYgEUu7MZa3QDpqgWjFHNmKLrMUeJGrWbkM4VONFVeOLyefy5fr74dooTExc2lxSoxzdS669chtNnoa7pFAf+MsTOB1qwRhZhjW3GGNWBKbJdc23pAOkopVa1T7l8VAu2qGZ88S2k7W3hm2NzjC2sqnm3uVPr1DVd5It/TPHRF6N89f04vYPn1HoEWQS5eG6Fz78fJmFXAbaY8o02O7BENGOLaMIW3qxkiWzCEr2hKMllTZjUdbRhiWjHGtGGNUKuW4Bq7xmiWtHUovrJEinvt2jAVT81aP0l7UR0Yo9uxhVxjIPv91wdB51ZJSKjHH1EJ4bIbtWOKUr6vVFdq3ED0OMvdLIF0DSxOxowR9ZhjGxWMkXWY5K/IxowRjRilkQY20hQcjkP/K6W6sZL6rG1LLc6e26N8ckL9A0t0T98jomTa1y4pC3aGJ1c4dNvpojfKRVYA/rINvQRrRgimlW7pryxIK4AACAASURBVIhGNLVgihA1KVnCW7BHduKIrmP3Y538/fg0Q1MXFQh50iqrT+XcYhCyzOvSCkzOXOD7vBGic8qxJdSjj2zEqDyhDWt4M/bwZhxhzdjCmjGHy/02aJAimzCGNWqABEx4O9bwNmzhjTij60jeO0RwWgeWmCYMkc0KkilSA2iPlJwjoVM6uR7V2ZEtGMM7lZG5xIO2AFpYWiUqvUwVN8ZI8eymLZ9rxRix4UEvdGpFguZBm4BqMUoHKQtoxBxRvwGoQeUie3wdGffVUVa/qlbfyPeEZmYvUV6zyLufjvD86528uH+AL76bo7PvLEvnVtXy4BMnL/HWh+N4kyoxRjZhiGjRzhPRgDmiAYtsw6XTRE2YwxuxRLRii+xWHWeNLSXj/kbe+2ycls5zTE1fUoDWBNAanJw5S0v7Ap98NUJ0Vj72+HoCI1vRhWvGpsJaeBPWMFErlrBWDGGN6MMblDGYI7TzavfdhiW8QwFyRtYQlVbGR1+t8sxr42Td34EvpQVjZBumyE4s4XKNTVgiJcpcC8gQ3oUtsgUF6L0eFhdRKeDU6VWi08swhXdgiujCJN55BawGyBnTyO+e76Cq7kqI2wqoGVNEG+bwFtVZAky8yBRRgyexjMf+1MjpVa2MnVta5+Mvx0jfW4k1Mg9LdCWmiCqsEce474kayupn1OD17Ar0j18kNrMIV3QdVrkhBaceS3gdtrA6LGLR4Y0bgARSkwpL1qgmzBF12KLqsUXUEJ1Rz8sHhzm9rHnQxQvw1tvVBMV8hSWiQN2sIbwRQ1gDhvB6jBIJpAMiJRKIcUic78AQ2Ykhqh1jRKvyXAmBpkiReLGExBZCEip4+IkKTp9dRVYrlddf5t//MIE5UutI6Sd1fSo8XQ+oB1tkqwbo/R4WT/3TAEmI0eBIJymPiqjDFF5C7iOtFNatqC9vnV+HT76eJOOeRuxRNRjCm9GFduAf0oExohlPYinPvzlMU/dlzq7C3Jk13nh3lpiMRtXRlvB6rOH1Cs7NAJkk5IRtelgzpvB2DKE9mMLa2PVgEzJxKgWJPGJ46Y1WnJGF6MOaCYzs0cYW0c1YoiWua5BUqI6swxxZhTmyHHdiLe6kOqzRtZjC5J7bFRQBZVY5qIGsuxspKruowqeE0g8+bSchswhHRDXWCAltNdijarFGSriUyCPna1CQr3qQ5KDuawBFpZViCpN+koGphGFJLRKtpL+7ccbU87vn26mqm5EiYY23PpgiWnJQRA0mGbtIXggXKHXoIxoxRlRjiTjGky81MrWEmjGQebeHft+oGjOFt6EPayEgtBH/0HqVX6zRbYSn1XHokwFVgZ29CIUVq2TsrcYeWYo5vBZzWAPW0Holc2gDZgVFwGyqSXst1xTWjCGkE0NIE5l31zA6rS1UPHUOXtrfiSu6RCV6Q0SnKmoMETUYImrRqzC94Y3hpfjivuW9z0YorVvi5YOtuKJ+whxWjzFMg29RntuIJayYvQ+VqNVHkt/kMcafX6snLOZ7YpJL2HN/L3se7CYkoUwZnIRnY1gT+tB69KEN6EJbMIfV4Qg9zIFDnWocJAPoxVOrRKWWYgjVPFnyuwAybVxnYGgH1shqfvtcK5W1WwFl128AalCQzGG1mMJr0YcLoCrsUT/xwlu1Cs7FVRgcvUTGvhr0IS0EhnahC21EH1mnKaIZfVgPhuBann+1S/1eglR2g2OQ+0AZ9shCTOE1ykMsVwBtQmlQ+8V7lGUrWGLl9RhDWjEG15F5dwWjk9pvMCwuw0sHO3HFFmGKkKJGG+9sApJCxxxeTVBcLb95YpBvf+pjbOo8Zy9AS9cCz73WoTrSENqLPqgVU0gdlrBKknMb+PCLcVW2y9Kv8pqL3P9IE8kZRfzppU4qqpYoLDnNPf9eQ3BCJdbwBoxhzehDGwkMaSQgpBlTWA32kB/Y/04n8wtaiBNAkakl6EPEqDswKAeQvhaHkM9KBVnFb59ruQrozb9MEi2Awqu1sKI6pwZjWC2BYU0YwqtwRB3mxTdr1AhdnmwOjFwibU8NAUGt+AV34S+AojTpwlvUvoCgKp59tVMBkodtw+Ow675iLJH56COq0YfXq44XSKbQOoxholqMYdq5tb9lX7XaZwhtwhhSTdbdZYxNbniQAtSOKzYfU0S1Cq/SrjFCcl0dzqhK4jOr+cOf+qmoucCFS+tqOLB4FiqbzvCHV/oVFENIN/rgVowhNdgjCvjdHzvoHdGe4Uj5/sdXh4lKqeeBR7ooLjmlipSz59b5/udx9v2mEU+CdHIThrA2AoPbCAhpwxRWiz3kxxsBpZQQKIDEi1Su3LzfBvTBtwAUlSUEqzCGaZ1mDK3BEFqPTqxCLCHiZ579cz0Lp7XS9ux5uPcxSepiLW3owpsIjGwiILwRXVgTAaFNeBJrOfjxoJqquXQJyqpXSdtdijGigICIKnQSQgVKSB2GsGolY1gVhrBKDGqr7dP+rsYQ2ogxpIqsu0sZnwRpU77/KqHKHXsMU0QFhvAmdCFyD7V4o6rYfXcN7/5lgPbOS2pOT34+YHL6Avnl8/z2hS5cMRWYgusxBkuOa0fOH5ZSwKFPOtUyZDHG6dlV0vfUYQ6u5b5H+8grXODUIuoRvJz/ix/HyXmoEXuMGFcbgUGdBAR3KmO3h/zE/ne6bvAgARQY2q6FRHXv0t8NBN4KUExWLebwig0rbsAQWqc+IIACw+owhxXywONNNLZdUslZQtahj0+QsENCSAXGiBqMUfUEhtegDyvDFl3M4y+MUNtyWXXMmbNr7H9vhoi0KvTh5fhH1BCwAUidS7wktApTaCXG0OsBVWEQgwnRPChzXxmj4+tqOa100CsHmnBHH8EUVq7ykDWqDUtYBek7yjn687haxyAdfXltnbGpi7z78ShJO0uwhOVhCavBEtyAKbhZ86CwMu55rI6C8kmVO5eW1/jqhxnic6SkbscWVszue0spqTjP+Qvaylcpgv763QjJu6WCletsQxfSiVFybMjPCtDCRog7tbRK5IYHbQLSjHMTkIyvqvjtsxshburkGm+9P4kAkpvSQo0GSKxbF9aALryewNBaghJree6VbjVrLROSU9PrPPF0IbagT7GEHsEYmo8lqgBb+HfEp3/L4SP9rFzSyuHxqQuEJR9FH1KFf2gdfmF1+EsIDZU8VqM8wxRchaZqjME116kWQ3AzxqBa0nLL6ei+qJ4Vqcfb++txR/2IKaQMna8Oc2gz7sgiCktPcvHiOpvjpcUzq+zYV49TiqGQSkwhFZiDK7EE1WIKaiDA14Q+OI9Pvh1UX5KWH4WaXDxPfM7X2KMLCAwVj67HFlVOSm4pVXUgkUTmCs9eWuebn0YITczHGFapoojcmyn4J9481KVmEqTPpGQPTy4iMLj1igdJCDepiNWALrgFS3g5jz7bRHnNNHdNTW8AyrwRkFi2QAoMq0cXKuOjenY92EzPEKrjL12EqalzlFSc4vV3Jrn74QYe/2MP3xxZoKN7idOLl9S37mamL/LBJyO4Y4rRhTTgL0k0tJ7AkFoNTrDcSBXmIFE1pqAaJSkIRIaQGvTBdeh8LQR6a0neWUFD6zIXLq6r3wJ6bX8dXgEUWoHO14De10B8RgPVdYtclrVZ8hMA02d5fX8joXGVmIJaMQQ1q7blXBZfrYJkDK4iJruSnwsmVJ6SdQTfHF3GHf2jiiD64GrVscawDpxR1aTlHKW04jxLZ7TfgZieX1GP5UNTSlVa0IVWYQg6zOuHutSaBGn0jDxRTSxEH9SCPrhNpZFrAAVtAmq8CujN9yaIzqzBHFaBMbQWY6hUTLVKhpBaDCH16IOb0AfVExRXyePPtNHUusrZM7B2Gc6cheHRFVo6TtEzcI65hTUuXIDLl2BmCr77bpHEdPGscgKDawkMqkMfVIchqBZDUDVGAeOrwOKrwOyrxOSTfTXqfX1QLbqQGnTB9fj5WvD31pG8q5qWrstqfCJh5vX9dfiifsQcUkmgtwm9t5WgmEq+/m6e+Xntq3vLy6s01M9wz4PNahxj8IlHNigZg+sxB1dgCT7CC68P0NF7QT1mHzhxnoee7MMSWobBV6GMQ+drQx/cjTG4EWfoMfbel0971/yVsD86fYlPvpnEGllBYHA1hqAfef3dTubk2xxbAfm0kKqX/BtapYoffUg9ulsCyqjBFFquqhhjSD3GjY7TtrUYfA1KlqAqvJFFPPJkC8Vlp5icvqzWqMmUi0j+k3pfvhPT3n6aDz8ZZs+vm7F48rCEVGIIqsLoq8bkrcHklW0VJoHjLVcSUCafHKMBCgyqJSC4Bv/gerYLIF8t6ftqGBzXQov8ktZrbzbgjfgJc1AFge5GjN42bCEV/PqhWg4fmWJ+bh31jfELaxSWzXL3bxrwxpRhCq7EENyojE/CY3j8d/ycP8WpJW3Ct6ntFCHxpZiCmtB76tB5atF56jH4GrGG1hIWX8Yr+5sYGj2jCiEpQCZmLvHpVxPYI8vRB20C6rgpoMCgVmWwenUdVep1wK0ARaZXYQwuUxYtli1WbQqSztqwaG8dJm8DZp9syzC6f+Sh33Xy7scnOFYwTv+ATDZpFV5Xzxw/HRvn2RfbiU8vxezNx+KTWC8wKjF5N+SpxCTyVmD2lm9IO6fBV414T4CnmoCgOnTBjfj7mtD5ysm6t4z5s9ovO8oA8uXXm/GEHcXsK0fvrsXsbcbmq8Xm/ZlfP1DDDz/OMD29osKWjGl+yp/kgd/WERRXovKcdJQxpIKHf1dNV8+i+paehO6P/9aL2XMco68VnaeRQE81Bl8JzogC0nIrOHCoj7HJFbXqSBbGT568yDc/TrL7vkYsIXKsGNr3vHGoXX39RHnQkhbiAn3NBAa1EBgk4VszXDFGf68Mzkt59JkGymumtBwkIS48tQJDUAmB3koCPZUYfZXqhk2+cq1DPbWY3PWYPDUYvOXofaUYgisxB+eTkJnHB590qJnlS6vrvPF2AzHpxzD68gn0VGDwVmHwSnuVWBQcabMMo1e2FZg9FZg8FRi9okrteAHkq2G7sxydtx5DkOSWKtzRRfzujzXIl8kliQ+OXuD3z7fgDC3AElSOyV2FxVOHzd2Ixd2A1VtC9t5KvvxujLlTK2p9gyT1o4Xj3PdoPa7IalTY8pbyvXx3du6yCtslxSdIyfgZW1Axek+jAqT3VRKaVMy9j5TwyWdtKrfJzLqsch2fPMfnX42QuqMes7scg6dRGZ/Z+y1vvtOmFQnrsLS0SlhCPjqvGJsGKDCoEn1QJQJou7seQ0ghD/+hlvLqyauAIlMrMPpK0HsqlKTjRAZfOQbpOE8VZncNJk8VBl8ZuqBK/L0tqmqKTq/mvY/61cz1hdV1XjvYRURatepYf08zgb56DN4aBWIThsEjN1GOUeTWoAT6qgj0VRPoqyHQW62uI9BVgsFXii28GG/MUZ74YyPD0xu/F7QOrx7qJzqtEmtQqZa/PFXY3LXYXE2Y3B0Yvc2YgvOJzz7MF99PsXRmhcuX15XV/3hskdScbhVuLZ7DDI+cUxXfxQvrfPOPQVzBh3GEVhPgqiXQ14gxqJg/vNyvZkSUO16GC+fX6e5f5Q9/qscT9gMmMShrIwZ3GyZ3BRbPN7z1dhsLG7PZ1wJqRuerRieh2VeJTgzyekCTJ9cQD4pMFa8RQJXo3VUaCG8VgUHSaZoHaNZehslXpFzd31uFv6+YyPRCDn3UqcpNBejtdiLSS9H5qghwNylrMrtrsbqrFCS9pwqdp5pAT5WCI+cM8FXjH1yLvyp3G1VCNnhLMAeJJ/6dnfcV8clXo/SOrGhzgbJo/izkPFROoK8YnbcWnauKQHs5Fk+tktFbr8KkPrgCa3ghkanHefOdHvXsqrsfnn9xAJvrJyKji3jv3VOcnpUHTVBUcop9D3Ypw9S56/B31qL31RKeUsen34wjvzQpIU3GVkfyltl1fy2OqAJMwWUYPdUYpZM9Tcr4/vOAZgTQOJGp5Rh9RSok6dxVGDxiweIF1QT4qtArjyrDLJ3m1QAFeMsI8OURlXaMQx+2KkAXL6/z+tutRKYXEyiVj7sBs6sBq6tuA1AVgZ4aAjz1KuFKzhBAuqBSdMHFBAYVYQgqxBEuobOUBx5t4B9HxunoOcX03CWWLsK5VRhbuMyTL1fjSSzEz11BgLsOo68es7cWi7casxQgKo9JCKtG56lUg8zoxJ94ff8oDz3WSUhUEXb392Rn/cjEiTVWz8PKeXjnvV4c4aX4exrwd9cT4JawXoMtNJ/fPttEbctpRqcucuDdbtJzZW6xjADpJ3et6jezrxa9uwG9uxST+yvefLv1igedlkUjiZshTvMg1U++ShU5xIOMwYU88vRmiBNA744RdQVQuboZsXJl6d4qdN4KAj2SgEswuIsxuAVkCQHSsZ4ColOPc+iDNrX097wKcW1Ephah95YR6KzB5KzG5q7B5pEwV0OguukmAlzN6JwNGL1VGD2HsYV8TUTS99z3SDXvfzxKSfk0Tc0LLCxeZmVFq6zOXIKOofM8+XInvqRi9MGl+Lsq0LkqlTea3JWYXOUYXOXoPWUEesrQeSrQuSW/lWL2HCYmpRpXeCWBznyCIn7i6aeKuSxJbRXGR9f4wwsdBHoK8HPVE+CpU56u91Zi9OQTmVzIfY9W87tn64lNLcQadEzdp85dozxYL+d2V6B316m+Mrn/zhtvtzC3sapn4cwqQfHH8XfV4+9uIECuzVOCzlOq+tPPVYdpK6BpedxwaJTolDLlQbqNG9rMRZLkdZ5ydO4ydK4SAl3FSF7QucqQi9J7iolOzefQhx3aN+xW1nn1QAeRqZJcS9E5KzE4y7F6qlXYMbiq0LuqCdy4IclBQdElPPJEE6/tb+CvX7RSVjmJDKBV2S6lu/yszBLUN57k06+6efa1boyh5QT46glwVatr0TtLMDiKMTiLkdeBInWt2vUGukvRK+PKR+8uVCE2wF1Cxu5SSkpH1TnkfD8cHiH77nICPYX4uWpU5SZ9oeXLUkzeAsy+Y5i9xzB58jG6i9G7ywh0VaB3lalz651l6h4N7kJM7s95/WAzs4vaYFaWXfnijrLdUYO/s07rR1cROlcxAa5ytc8SVMijT214kADa/84oMSnlGL1y4WJx5QTKSbdI5yplq6QxGRfovSVEpxVw6OMOtahjeWWdVw50EpFaTKC3BH9X1QYkAVNJoKMYozuPoJgiUnfWcO/DDfzp1WZa2i+xeFrzEmEiP0pxcnaN3t6z1DXMqPHMo09U4Qz/FoMvX1nfrxzNBDjq0DnLFQy9sxC9s4BAVyGBrqJbSozLX0JrcIWa1pfHJzJ2m1uAx58uwhH6HQGuIvycEkUqrxYzUthIhaYkEK6TGImzGIND9ldhcOVjdH3Ga7cD5BS4GiDdFkCPPVVLhariZtfYf2iU2FQpeTVAAe47A/J3lRMg4cpXTFR6Pm9/3M4FJD/I7yR0EJ5ahM5boqzQz1mDn11utAxPVDHxaUd4+vlajhyfZ2BYWxwv1itrHM6dX2N+8SLd/Wf58rsFHn6ilYjEY1h8P2Bw/4zRU6Q6Tc69zV5JgEMzAM1jBE4+OncBOnXTN4ckgPzcshSshj+81sPp82sq4ecVXSBtZxGBzh/xtxfhb5cwKaFNqzYN7k0gpQQ6b5Re4ChApXcE5LfpQdcBCnDWIR50U0BGTwEBrhICJHxd7zHOEvydxVfk5yxVSVG8JCo9j7c/bt0CqJPw1DKVu7Y7K/BzFGANyWfHvmZeemOS7t6LampErFYmEOV/4jXyjKai7jQvvdVK8o7vMbj+RoD9B3SOAgIc5QSIRbukAJAhwVFM3iMY3McxOAsQ71Ge4y7C31moFOAoRCdS712FJaF6u6sMa1Ql9/6ug8KKJS5dXufRJ+twhx4l0JGPzlmmzqnfDF0uyaebUErQOYpvUKCjCL3IXnJbQEFxRxFAfo5aAhzSllxnEf6OUnSOWqw3AxSRUIzelafyjMovdwDk7yhDPEPnLiEy5TgHP2i+EuJePdBHWIKcvJoARz5hCT/y5rv9jIydZ2FxlUvyS35Sp8oPVazCxOQ6hz4ZJ+vuIsISj+KNylPJ1+TOx+QswuQqwqissxyDowRfZD5Pv9jFC6928qdXxknLqsLi+gmTuwCDSzpuA8xNtlo4KcJfPMxTgCMsj+ikPDKyCwkOK8DmLsboKifQWYnOWUGghM8rYATQzeEIsF8CaH5plaDYo/g7agiw1xLoKCFQXWcxOns52y0y9Mjj0SerKa+a4K6pjRAXHi+ufRyds5gA8Q5nyTUS7/FzFF2VvVSFFwk5MalHOfRBo+pzscTX3uokMr4Ko6uUzD1NfPGPaU5MLLMivy0nvyu3Bl0dsxw6VMujv/2ZBx6uIiajBr1PPLRUJdxAZwUGZyVGRylGZwEGe75mmY5CErMKaO05R//IOTq7L/G7J2uwOL7BYD+uAAbYC9iqa4A5xaMkUkgozEfvKsDkLMbsKMHsLMXkLMMgYByV6Bzl6JRVC5RN3eg5AfYiRDp7IYFKYuw35iD1BS4BFPPzBqAadLYS9bkAezEBtjK2W6QazeORmwJyHCfAUYy/o+QqiK1QtryWGB1gK8bkOkJs0rcceq9Kdf4lqeJeryEy/giusCM8+0on8k+BytdBRMcKRvnLx9389olaohN+xub5FovnKIHuIrY7pWSuIsBZreK/hBmxrkDHcXT2PAIcZfg7ikjNLUR+5VF+NFCWMz3/QjUW11fo5ThHCQH2wmsACaxrIeUT4DpOgBiko0CBN9glhBUrA5U2Ah1lBNol5NzaYzbD3CYgOa/OJtIASUQyOD/jtQNaFbcJyCeA7HKPNaoP5TNXAJmvByRV3KFRlAdtASQdcUX2YvyUZF8h/hKj7Ucxu4+QlFnCM3+spqioT80Yy5d8j/zcw+NPy2OJWn4uGleh7+ylNSoaZtlzfznO0OOapTmkbK3AsJHztjvES0vws5ew3a7lEX9HHv6OY/g58tnuqOBX9iKSduWzJE8zL6Nmnp97sRKz+0sCnXn4iWcri76NFzny8Xcew99xlAD7MXT2fJV3/FzH2e7Kw18qQUexAifbTRC32m4C0uBsAeTMw+j4G68daFJltgZoBV/0z/gJIFv1nQFtltkREuIUIHHX4o2b1Fw3wFaCv60EP5vsL0DvOIIr5Ef23V/MJ5+N0zewqmaAVcaX+amL0NR+jo6+i5w6q02JjE1eYO+D5diC8/GzlrLdUsN2a52ypAAJJ65y5bXbrPlss+ax3Zavigs/Rx5+zuPq9TZ7Bf9mLSQx57haiyALUc6egz/+uRyT6wt0DvmceJBc900AXfGsfALUvR4jwHEUnV22x9juOso21zH8nfnKgPT2IgJV6CpSSVwS+c0k59PZRAKnQHvtqEDvPI7R8Vde3wJoYWkFb/QR/OxVVwAF2ORaJSKVsU08yHWcR57YyEEnZ9Y48PYIEbGF6G3H1Ek0V5UTiYrRWcsJsFYQYC0l0HYcp/cfPPDvZfQPLqkkr/KK5H35Eb3L2phiY3ypmJ0+fZmjxxZwer9HZy3F3yLJsIxtSqVss2oe42fLx3+LVCc7JLSJFxWy3VbBNkshKdnHtd9gW4UzSxLiyjA7PyPQeYzt1iL8JWRY86+Rdi+b91SgvEZnl9CphU8thAqozb/zN+5/y2dUf9z670BbASI51zZzIXr7MYyOT3n9QOOVmYTFpRV8MYfxs1fgb6vE3yrXWoC/rQh/aynbTJJ7j/PwE1WUVY5z1y0B2fPQ2wrQW4vRW2SGthKdrRRncB6/fqCE0fHz6rcJBIoKNWdgdAL6h0AWKW7+20JSRk9MLPHqK1XY3YfRWSoUID9LEduthWyzFin52+Qi8zakgbriBQLJXoSftZLt5gLSso+xLD+SJwv3T8MfXyjD4vwMvYRCSxEB6qZ/CaA8ldsEzs31H4MUaMtHb8tXkPxMAugoBvsnvL6/4RpA3ugfbwvI6DzOI7+rovx2gAJsx9HZjqG35qO3FKMTSLZCUncW0d63xDn5ret1qG1Z5OUDbey8r5jU3HJSc6vYdW8RT71QQW3TlBrfnFu+TE3tLDbXZ/gb8/A3F+FnKcDPelWa5/xyQOfPXgX0wn8ZoLz/kBddDyjQ9jMG28dqCmtzLk48yBv9A9tt5fhZK27qQXcGJNZsPYbOeoxAcx56cz56awHu8CKeeL5JzSbLYr7mrrM8/edGguKPqjzxb9YSttlkQJmHO/IH3jzUy8j4ZRX6ZudW+O0TLbiDCwiwHMffIrmoAH/LhlRouxOgCrab8knNOsryWVhb0TxoK6DtlsKNNvPxt+QpSbi7eYi7leds2X+HsLa13ZsB0m8A2vwKpAIU9QPbrRuA1PXmK1B+lhIV4q4BpCZLDwwTHpOPznoU/41OC7DkoROZCwi0iCf9g4ydxXz/86x6/i5fc3/1YCehcXlstx7l3yzF/B+z5JNytqti4ihpOyv5x+EJtS7u/IV18gqXSUjJI9D6I/6W4/iZC/BXkgsUHcffmrfxenOfhLvj+FkL2W4pZ5spnxQBJAtWrgMUaD+mYr8GXYOzFdK1eSkPiRK3lTXvmjx27eevDaHKCKxyb3kEWvLxNxeisx4h0Pohr71Vf3Vt9tIKnojvVQ72s5QrYwqQ4y2FKEDGChUaH368korKCe6aPrnGG/uHCImS0HMEP3M+/qZCdKYCBcfPXESA5Qh666c89nghE5NaESBlbuYerTNVx5klXMk46jjbrcfZbilG7/iJ519q4Nyy9gUryVGZO39Ab/0af/MxdZ4AUz4BprwNrzqmwG12qp9ZIIqOst2czzZzGduMGqBzm4CWYNODAm1Hbwlos82rWznXL9G1oK9+/sb9Ehl05mMEmLUwHmD5CZ35A17dAuiUAAr/nm2mUrabywkwF2wcX4C/qYRtxkp0liP85rEKKmQm4eaACtAZkInDJgAADJNJREFUpePy2W4uxt9yBLP9Y/70pwJVpUnVNr0AidmF/MpczjZLLdvFYqQKtEsnHef/MUqldozHn25ickpbpisLyHfs+hq99YsNQEXojHnojMfQWY4RoDpMwp9281sB+cm1GMvYZsgjOfNn9fhBlnXJY4hNQDrbUX5lKlBGdvWzm5Cv3x5T4AX+7XX95279txhdgMh0HCkSAiyHCTD/hVffrLvqQadWcIf9wK+MpWw3leFvEofIU9HEz1jKNmPVnQAJ/Tx1EjnRdlOJ6kyj9VOef75ALViUSU6Zok/LLeDfTEVsM1fjZyrBz1BAgLGQXxmK+D/GKjWWefL5FrUuWdbPzc3Crt3fYbR9hb/puOapxmPojUf+44Bu4kH/fEAC8dZArn/vKqC8fwqgyqseNEBI1DH8zYe1CxKixmNsNx1jm7FQWaTB8i333ltGQ/1F5UXyQ90vvNZJUGyZSnDb9QX46YvZHljCdoM2DWQNOsyr+xvUWOn8eWhqgqS0Hwgwf8M2gS9eajxCgFHK76O/yIN+ZcgjKfNn9SVl+Y6qNg4qx+z8Ap0tj18Zi/EzFakO8hNv+m+RnG/znIX4mYrZZirDzyLe+REvv1mvymwx7EXxoNB/8G+GYrYZS/EzSl8fx88oEaKIXxn+3+rO/rmN4ozj/Du17nb3XiWHlKb4DTATOgU62Ka/9SfaacJLGcgQwCkdsMMQCMNkhhaSGBMSW9Lp7SS/4MRxoGlJSEnCW6AFl8A0cWLp5CTQgs238+ydYlm2rHOg0/aHz+h273b32ee7+9yLtLopUGi898Ep/zJbhrjnPkLHrS5ELC1F4UEhHh2RIUOJjUHEXNx62zh2Pv+BvEig+5sTpy7jns3jsK/fD4uO0SdhRd+EGR1F7IevoffJo3jvjCd/jkWLZ5/ofw8bOrJgsSzU2BgYDYRYDiKWAY/lAlzwWD7AHyQ8RnmjskMk0B0/z4PWBdFLpugP0nufOCJnpd48AdU6Am5NgVuHvzPMOgzFmgzBFBRzEWlD9C3Q+Zs3D6Bv53H5w0USyCOBOhJQrQlwexLCHoNmF6RInKJP9DD0dWnc++Akpt74zD8HPfPcR2iXAqV8x0RHwe0RMHsEkdgomqLknHE03zCKe351BOfonXTz9OpNYGJyGg8/8gZu3TiOltZJyU9vP4hnnj2GU+/OyG9G6V2qJ05/hc47suDrslCiI1Cio1BjBahSrCxYtEIOLOqCRUmkKoHIBpucNeIL9CVAyzBn54DHfjsOe92LMJqTcubrUTeYmTQ7rx0tmgOPZhpj58Cv4oLbeXB7FFqMrtZ24amdR3E+WKNalgLFoVivg1kHIaxRaPJ4Kkd9PAS9OYV7f3MIU2/8vY5A9ii4RQIVEInl0SQdSVd2Y7jtJ2PYNziNmfMLchETrdF5+8RFvPTyh9i16wxeeOF9DA7+FZ+dvSKfbtOThk+mL2Pb7/4C64Zh/MB00WSTQAWoURdqLCdpLBDZcxDMzMuLBHr/EP1fKb3tOOGcxKOPj+PRbX/CI70nsLX3bWzddhxbtx37zmzpfQuNOYYtvRWOY8vjx/HwY8expfcoHu4dR3r0Y3j05ONboOR9jQ0dw1DNMTDrdQgrD2FnwQkrL0UjYTc/cAiHj0yvIBCNXCkQqUkC5dAknTgqL73Xr3dx+8Y0ksPTmP70Cr76asE/J30DuZKArvAI+SDz0gI++dscBgdOwbRegrk+h4hVkKjRfDBTaLYQjWZQAdyagDBcdPXkUL7sP/ujUHv58gKKpQX5ZJv+OI8WmX0f0OoGesXomigBMyXIkHaxDJwv+ktU5LNJmvHlikAjYBZFqgyEnQK30+C2C2ZNyJm3skBRRzrLF2gE3CpAtfNQbBcqKW2OwLJcNNsJrI/9Hs/ueBcnT5flie/S5XlcurIg/9SiPPcNZi7+C28e9fDI1j8jFt0Nw0rKMMDsvBRefkphKKQRtQLReacS4ijUFCDoQsTI4mddrvxBCf0Ui0Zl8K25fDBLye8LciqtXrkW6GfJlQfG8iGy/Pb4W0yf/RI/aotDNWm2ECkw2wGz0mBWbmWBduz8GO2dLnjUgWrnoJiuDCXMHEEF1RgB00egaXnoWgqGMYT1G1LYeEcB9z10Arv+8A8M7i/i1QMe+nd8jF/88ghaOh0Yza9Bs4agmUkIMwNh5sBNEpzI+gaSkVYmgPLI0GpoH9mVh2Jk0daZx8C+Czh/gd57F7yShlbQ/Qegq9VQBO/jo2/yaZXDVSiaBE/6z35O76k4Bev6OCJ6FhEzB9UmYaj/vkARfRwimsDmBw4unoN8gWgUJ6FYWV8gKwdhuhBGAcIYASf0AoSWh9By4HoWwvZvMNf92EXLzRncvDEtufGmDGIb/BtAVTo6DWGlIAwiDWZkoRJmGsxMgJk0ohyZVs2Mv69yjDwuA8XMImK4UEy6Z0qi9aYDuPOufei6exBd3a+gq3sAXT170dUzINM93a+gp+va6ZZ1Ur0h6XkF3cTdAz49g+iW7EX33cQg7rxrP25sG4YWSyBiphCxCAeKRX1PyX5HtHFwu55AdkWgLJiZDhyakWFF6DlU4Do5MSNnAaO4GaX4OQxuveZjD0O10ohYbkAWqhTIkXUyIx2IkQSzhiSqmQyMXC6QYqYRMTP+iLPoHJkFN/ZDN18FNweg6rvB9JfAK2i7oYk93wmh7QEPxV5wbSBgD4SxG8J4GULfI+E6bb8MYeyFbu2DHh0Gt0kQBxErKVGsSt+zaFpZoI/Q3kmXikmoVgY0ipmRhDDiEPLTgdDTEHoG3KB9Kd+Zdko6XpUjIAnVSEDR41Do06TGU2iSQtEMIMEdaIYDLss7UK04mHUA3DwAtkSgapH8soqZQZOekaGBmQUwGjCGK2ejoqegakkwvUIKXMs0RGgZ1IPKs1BkwbRcAA2cFHjQR9pmegqcMNISRvsopFHEsBJQJOQ7fwbVEegMOjoz0KyEL4CekaGHG3Fwg/Ic2Qg1RuJQI6pBJzZSPoGITjE1IRtp0pJyWzHiUEwSyoEip28KQneg6VSXIweAasbBzSEIYyhwrt8hpqfByAY5U8lwn4jmICLomBxU4YKJPJiWh6q5UDVyVIWcv4/210EN8rnIYyWoHB0TBiYKkGh5aRvTs7jKVfFyULUMFE4DlEiCGRTeE9IXTHeg6jSDxmSI2/TAxOJl9rPPfYibbklDN+LQ5MjLShFoVJMYUhBZQRKqXg2JEg9ILO67mheHSsIFI5trSVRgcsQnwPW4T9U+rjngGs0CMnqxPXY1n/alq6B0LdX7l28zkQbnqVVhNBhC0NiWWtsW/VDxh+yrlkGToPujODbdTwJ9GtwH7fwQHbekagSik3kVclST42oq16ucXHF25VNLLD++tvwa0kJLQgvBMhtXakMkwHljmEigEWHaa2y7Ay5ygUAJbLr/EA5Pfeb/mdLTz3+Ats4UhBn3w4qWldOxNo4LLQ1NpJaiOas6TSwZ9f5IolCprhG2bIbUjsql6dXaoNnGhBMaRXOwGqqMLvX7FNZ2VSOBxsEsB7++/zAmp86SQPN4euf7aLslCWYegGxMLD/B0slUE8TaRPq+BCJBw3Z0NXEqA4PCZRiRVhOmsq9S52qfjW1PgwSKiDFwK4lN901icupzXPfFuXn07ziN1puHwfVBqHwIKksui71cpCB4BQeCV0hCCCKxIlxQXUudoTYYkZWO135Sudq6lqVD1q0KBypPro5IIhKCWjtXSje2nWZ1Bk2qC00fwubNBzE5Kb9R/Qa7XnwfXT0ZtHcMo7XVQWtLFq3thWW0tRWwhHYXbSGoraulo4BrobaeeulQdbfn0dLWmBvb82hES0c+VH/q2buYP4qWljF0tCfx2NYjOPrHc7juwsw/MT7xBV7Y9Q76tx9Df98J9PW9g77+U3hq+yJ920/JPMqX25TefhJ9299pwMnFcjV1VtcfZnuJDWRHParsrltv/0k81ReC/pN4sgF126iyI5ztp9Hf9y629x9DIn4GZ854uK5UvIJSeR6z5QWU5xYwN7eAcnkB3twqXJqHd2ke5bm14835Zan8mlhjW6vVTXZ75fCQf1ajYZ/WYru0y9fCK39NApUx6xUx611E0ZuF5xVRCtKUt5wLmC3PSEreDP4beKUZ1COsPcXSeZRK51Aq1qdYOocwlLzzof1Qz27KJ9ulbz16U3MJxeJcRaBSIBIJRdvVacr736FIA6hUn7XYWizNolQH2jfrhSWcf9Zke8nDbKkcCCQTlPH/QbHkYSWuxf6V6qG8a6krTJl67VXavOh5IEgc4t94t8nV95+PagAAAABJRU5ErkJggg==;" vertex="1" parent="1">
          <mxGeometry x="180" y="290.77" width="39.32" height="41.96" as="geometry" />
        </mxCell>
        <mxCell id="mRYJI_ucZMOmYyPQ1O4j-20" value="Code &#xa;Deploy" style="shape=image;verticalLabelPosition=bottom;labelBackgroundColor=none;verticalAlign=top;aspect=fixed;imageAspect=0;image=data:image/png,iVBORw0KGgoAAAANSUhEUgAAAGoAAABsCAYAAACCeCeKAAAgAElEQVR4Acy9h3dd1bX2zV/03YAlnd7Vq1WPepdcQgm9GxsIBANJaAkQSgjcBIIJEAIYbGzLVu+9l6NeT1O1JEu/b8y1j2zZ2MB7v3HH93rwjLXP2XuvNdd8Zltr7yNu8/n9+AICH37/Ej7fIj7vAisBP0GfV0GOVwIBgl5pg3iXllhaXMTr9eL3+Qn4AwR8fvxeH8u+ZVZ8KwSW/PgXveqeZX+A1eAKQZ/06Uc+L/uD6ti3uMRqcJmAT/oIEvDLcZCgfwW/L6jg8/rxeX0KMt5+qLH9AU2OkCxyXzCwohDwLe/rJ0BQxtq7XuT2B0L9+lhaXMK7pM1pbwyfN4DfK9ctExTZ/Fp/S4s+/F5NPpFXxvQt+ZHvvUsiq3aPyC79ivzBgFy3T36vXOtlcXGRpaUFfL4lfAEN3oCPpUCAxUBQ4TafkBNcwhtcYiGwwIJvjsWlOUWQ37uI37tEwOdVrW9piaDfrwjyepfw+rz4fD7VLoXI8y/5CXgDeBeWWFqQ+70EvD78S0uKSDkO+ARCrFddsxzQlOUVQnwBrrZLfrwy+SWvMgwZQ40rY3uXUGPKuCGI4Sh5vH78/iB+v9bX0qLc72VxQQxRk/fqtfJZzUVa7037kvFFJg0+Jc/e56UluU8g57VzSt6r9wgRC8wvLKhxhBSNGG0OcrywsMDi0jyLSwt4hY+AF3/AjzcYYCEYVLhtdmmbycVdRhdgOITROZhchPF5GF/QjicWwDMPU16tHZPPi9cgn8dmQa4TyPHorNbH3r3STkofoT6lf7lmakm7zrPX5wKML8HYvAaRZ1Sulc/Sdwj7P+8di0xyn9yv+lgAdf8cjMxek/fqWHJ9aFzV775x9vqS++XcuOhkSetjwgs3w9640k56Nah+RC+iu5DO5Pze573xh0W+OZhZ3GLRt4ovsMxSIETUJ6eDPPoHD4efHqPi+CSlx6YoeXKcyhOTlD81QcVTE1Qen1Rt+bFxKp+eouypCcqeGqf8+ARlJyYoPeGh5PgYJcdGKT/uofzEOKXHRil5cpQy+Xx8jLLjck7GGKPyhAb5XPzkCJXPTFB2fEz1U/r0uGrLnh6n5Lj066HkqTGKnxqlRHBiH46PULIfJzzI/SUnPJRJn9LXcY+6t/jYKEXHRigV2eS6E2OUPi1jjqk+1WfpW/U3GrpGk0HGln6uzlPm8/Q4Zc9oKH9mgvJnJ5B27ztpK56dpOLZa/opf2ZcG/PpMcqe8VD+jIeyp2V8kWOC0mOz/PrECG/+Y4K2Xj/ewDpefxAJg7e99dkW+Y8tEHNkkchDy7gOreI4tEz0r1eJPLJM1JEVoo+uqtZ1OEj0nStEHgkouI4Gcf06iFNwxI/jsI/Io0GijgZxHvZhP+zFddSH69d+nKE28qifqF8HFFxH/dgPLRF91wquowFcvxYEccrxncvqHrnPccR7Fc6jXvbgOLKE46j3KrQxtPsj71xGIH2JXAL7Ia8awyny/Nqv5NJkk+/lO98NfQVwHvXjOOJT/diP+LFULGGpWMR2yItd+pVzR2R+cq12/V4rc5E52Y94sR1axCX9y1wOL2lzC322H17CcTiAvXKd+CPzPP3nOeo6lvEFLuOT3Of3ctuf/rlFzsOLuCq92MtXsJWvY69Yw3loDUflqoI6FgIrV3Ae1lo5th9awX54BZvg0DK2ymUch1ZwHlpRx9bKoPb9YWmD2A4HsR8O4ji8jP3wsvos1zgOr2M7tKZgP7SK7dCq1q/coxDAdiiAXSGI/dCyhko5DmKvXA5BZJJ+5H4NtpAsIptVrguNuyeLtHuyacfaWNp3y5r8MrdDK+p+c3kAgaUiiFVQKdDmLmMoPciYoXuklWssldKvdqzpRRvXeijUR8Ua5rJtog4t8dQb89S2C1Gb+PzLSMF3258+WSPvwSmiKmawly9iL/PiKl/CVbH4s3BWLOKsvB5798k5R6VgAUfl/C0g55ZwVPhxKvhwVng1qH4XcFbOa6iYx6Ww8GO5RN5ykTt0r+pj6UeyabLu63Ov71u2cu318/vf+LynA0vpOtGHZjn++jS1bRLyLuP1r6jwd9ufP1km/8EJoismcJbP4iifJ7JCMPsz2Lvu1q2rYg5n5ezPYJ7I8iUiy72hdpHI8sWQDHPXyRBVPouGeaLKb4bQvVfvF9mu7+Pn5yXX7+HndPBLz0t/t9ZTZMWCMk5r6Soxh6Y58fo0da3/VxIlChayBP9TZV9TxlUv/JGnaEbjus4Ib1Bg+UJIhoVfaLC/hKxrst2csP8LiHJUzPBzcJXP4SpbwFU+jzou/7mJiRfuI3Tf8dXQKWH5KvbC3R5RM7jK9zB7dcy9sa+1e9fcuv15DxUif24+v5ConAc8RJZ6cJTM4Cidx1k2i7Ns+mcg1/w0HBJKb0nUNI6KKRwV0yGlicIEMzjLZ3CUTeMo3et/DkfZAk6VO33YS5dwlvl/jNIgjrIgdkF5AHu5D3u5F4fk3vJ57LeUR2S4GW5N0B7RIuvP60qu2ZvLj1tH2Rz2skXMJStEV0xx/LUpalsCLPm1HCWVn8pROfd7cJWO4SgR5cwpBSlFibJuhdJZ7bqfasukQJn+CUypc9pE901GedQCtqJZXGWLCs6SWZwl00SVzRJTMUd0+RxReyibI6psnqiyBaLK9jxNQtg8URXzxFTO4yqdwlk6qYomMQhNOULeHParyp7CWT6Js1zy9STOsqmfJeGW+rlOb+IAP6WvOeylPybK65PyXNtK20fU6P8/RJWJ94hxzOMoXVBwli0RJR5R7MVVuoyrZImoYg/xpX0kl/VwsLKP1EP9+zDAwUMDpBwWDJJyaCiEYQ4eGuPgIQ8JpUPEFQ8SX+ohumQOZ4kfe0kQe6nmodr4QuAUjvIJHGWCqVsb6nVE/IRBq+v+50T5b07U1FWP+il3dohylYWEvO9W1iIeVXYLj1LeJuelj0UcJV6cJUu4ShaILFkgqnSB6NJFYkqXSD40T/kjUzzx0gjPvd7Pb1/r58W3hnnp7RDeGlafT749jIYRTr49ysm3PLzw5gTPvT7Jkycn+M2T45TeO05qxTTRRYtEFvuJFGMolnEXcSpjEbL2FC9GFELpjd/tff4lraYvp4Tym0Ci2PUeNUltix/xqB8RFVkqHnWNKFfpNLeCRpJ4gOBmZMl3e9/P4Cyd1rCX90o1wW1lc9jK5jWSisVrpokvHSPtyAiFD4xS/sgov35ilBN/WOSL7y4zOg2rVyCwCWu7sLGHHdjY0b6T7/dDrvevw9g0VNXBh5+uceyFCQ4/MkzpA+Pk3T1BSsUYsSXjRKk5ayHKLsoTI1KGNIe9ZBZ7yYzWimFeJfMXEKXmP4ur9NYQY7UWLxNTMcHxV8epbfHhu5Go3Ps8RJaEiJKwUDyDq3jqlpDzzuJ5nMULOIvl+mmcJVMabjgXWTxNVNEUUcUTRJdMEl08Q1TxHI6SeSzFc5hLFrCVeHEVTRNX1EP+na08/9oI9e0wMgXrm7C5CVe2gF31H9ugsAvsXIErgl3Y3oWtHdi8Apd3NMjnHbl1F3Z2QvfvgH8Feod2+ew/Gzz8dC+ZlZ0kl48RXTqDvXgOW8kSVilaKrwqRwpR1qJZLIWzWIpmsBVPYSuZwFEyeUuDFp04iicV5PjWOp1WurQV+okp8XDsj2OKqGDgBo/aI8opg5bM4CyaxFk0cWsUTuEomsVRNIejaAZHkQg0EcIkjqJpnFIIFM4QWThNZKFGVGTxJK6iGVxFc7iKZ4ksnSCqdISY4h4eeCHAF+c2GZi4zLx/i8A6rG3CjpAjuAI727C9tUtwdVt9L8TJdyvrMDS5xffVQRq7r+DbgMu7cEXjVhG5sqr1tSlE7sCWkLkJwZVdxmc36Rze5PUPVjj06BQplf1EFg7gLJnAWjSJtXAGW9E81qIFzAVC1oz63lbkwVE8ruYtulNkiPdcJWgCe/EE9p/SpTo3ibNwFluBj5jiMZ76/Si1zUv4AxvaszTZQpKdif1ESWXlKBz/aRRMYi+cxl44o7VFk9iLxkPwhNoJHIWTOAumcBZMY5cJF01hLZzDXjRLbIkH99E+7j8xzDdVfjoHt1nww+UrsBkKaRK25NFKTTv848sgb7wzyienhtm8vKs8TDyko2+bP/99gbueHaLo0VEqjk9z/PVRukZXr3rd/NI6H3zSywtvDfH+vzdo6IZZL6xuaoRuXNGMYmLmCp19G3zxrZfHnhsl/XAXMWWjiihLkRdLsRdz4RzWQpnHGNbCEWxFY9p8laEKWZoHCTmiE1tILz9p+OIYYgz5PmKKQkQ13Yyo+8eILBlWFiRE2Qs8P4Fx7AXj2AomsRZMaSicwFroCUEmIJMbxVY4ji1/GlvBNNbCSSyF49iLPSQdGeehF2f49w+L1DQFCK7ssLWlWfnyZegZXeOvp4Z48+Nxnv/LFA+enKH8kREee2GQiw3zyou2LkvOWeK5P02Rfe8Y1uJRTEVzmIu9xJQN8dqHUwx61tjeAd/yJt9enCL3vl7yH57j8ZcXeeXdSd79xyifn5mifxzWLmsed2UbFhe2aWpb5rPT8zz4uyWSDo3hLJaoMYutaBpb4STiTUKS1l4jZM9ghaA9yHf/n4n60z+C5Nw3gqt4EEeRuPHUT5B0jUBrwQRWRZYQNo61wKNBkTSiEVUgfS3gKFjAnj+BPa+L8ifGePmDRS60rKoCQHKIhKHhsStUNa7y6XdeTr49QUZlI/GlHbhK+nGV9JJ73yDv/WtRFRNy/dgkPPnyMMmHerGXjGIunsFU5MNcuIYtZ4Ki3/Tyz68WWPBqeWtxeYeHXpwnoWKY+OIBkku6SC9roezBLn7/vp8vzvpp7NhibnFXGc32tkZeVcM2f/rbHIcfHSKxbACXMkCJIFPYi6exFU1oBilGuYd9JP0ijyqcCHmU99Ye9dp/+8m6ZxBHYT+2gjHshRKyrg99N/MwjSghS7CfKPGoMfWdrWAWZ+ES0UULJJZ6qHykg1PfedUTXckhq1sw592lfWCZV//qpfShceJKB3DmDxBVNIotfwxT4Ty2klGefH2e1oErXAaCm7v87Ytlsn8zgKVoCHORB4sYSME49rxZHG4P8XndPPm7SeqaN1URIQXJ11VXKHmgj9jCXqIKx4gqGCeq0ENU4TCJ5cPc9cwS8iC1b2yNBe8O4l2SB1dX4cuvJ3n4mX4yjw7jyB/BWTyLvXgem4TB/fMv8PyIMPGoG3V6/ecJHAXT2PL/V4gScm4gSXnVNU+z5U/gKhgj7dAwDz47Qc/opiJHKrLVrV1GZq7wt8/XKbi7ldj8duy5o5jz5zHlL2LKn8KYO4GleJ6Dd43zyRmfIknyydDcNkUPtOIq7sNUOIFZWfIwjoIhnLljROdPEp03RkblAG99OM3Gxo5WiOzCc68NkFLZh12FbS+2/CUFa94strxhYovbuPOpfj77Vp4DXWFrE3aFsB3oGYQX3/SRVNJOTImE9SmVAmw3ELUXXZSHSY66wfCvJylE4lWiRrVi4sYcdaNH2Qonfhz68j3Y8saugzV/HEu+B0v+KJaCESwFYtES/iax5s9hz5vGmScW2MErf51nwX9FVVlSSl/ehoauDe4+MUVMcS8x5YPYCgew5Es/U1gKZjDmj6tk7Srs4Jk/e2kd2FXrponFHX73zjIpRz04CjSZ7PmjuAqHiSwYwlU4grPQg61gSh0ffnSEL7/1K4VLif/N2SAVj3ow549jzF9UY4nM9vwpFZ5FiZElI6QeHuDhZz209+ywvgpswZXLMD6xy4efrpJe2YGrcAiHhMK9sH+LVs7vj0oSKa7Xp+h3EkvOItGFIxx7eYSapsXrq743PvLjDoU+u4S+gh8T9eOOtYGs+WNY80exioLzx7CECgxHvoeo/B7KHhrkgy8CTCxsK3I2t2DeC598OUHZfS0klE1gL1xQRYaxYBhD3jDGvDGM+ZMY82V5MEDBfZ18V+cnuKFVg12edTJ+3auWEPZ8D468EZz5w7jyh3HmD+HIlzAuxiPWPkFSeS/HX+pV6zHxjEXfFZ5+ZRR77gDGvGlMEl7zR3AoA53EnDeDIWcGW+4kKaVjlN/bxatvjjA8tKo8a3MdZud3qG5bpfi+bmKLenEWjKB5lRZhLIUSirUUcCNJQtj1JIkubyRq+CZEfejDffcgzvx+7Hlj2PPHsedLew2q49xRbPuRN4I1BFvuGJbcCYz5c1gKxokpbOWpPwxxtm6Z8bkdJFxJyX2udpXfvz1N6X29ROV24RDLyp/GnO/BmD+KIW8UY55HKdCcO4szr4/HTw7RPbTCJjA0vcZrH40TU9yHNWcaW64QNYRTkDuMI1eOZS7D2PIlNHlwFfRT9kA/F5tADEUKkY8+WyLvbpnfCOb8EQx5I9jyR5XCzLmTGHNmsORM4coZJdrdQ3blACdOjlLTEFCFhuSu1bVdqur93PXEAPHFwzjFSPMmlLGaCqUCHcYi5ftVPY4inq+QN4o9T8YbwZYrGMUqYT5nkaiCYY69NExtKPQF/EECgQC3vSFE3SUJvF8xrVVnHo00IU5CnhCUsx9C0hDWvGGsMlCOB2vuJOaiBSx5Pdx5rIczNV6C69q6KLC2w5kaHw897+Fg+SAupVQZY0TlBUveCOarJE1gzJ3B5J7Fmd3BB6cWmZ7fUkRVt/soe7iTSCFCWb1GlBBkzxnBkTOi+pb+ldx5YzjyhkmtGOb5NxYIru+onYvmji2eenGCyJx2THlD6PNGsOQNK6VZcz3K6Kw5E9izx3C6PbjcE8TnD/H470b4odrL3Ly2NSLEf3POy2+OjxFXPIKjwIO5YAJD4QhGKXIKxWA0UmSuN4MtNzRuToio/BuJWr4ZUaK8Sey5Huy5Y1dxPUlCmBA0pCZnyR3DmjOOeJWzeIQcKYu/8TE9f0VZrze4w4WGFe58fJC4oi7sSrBJ7HkTSokSqoR0S94oJuVNExhzpjBlTRCT10RN65oKe8vb8J/qJZLKW3HkyqRnQsY0pPq054ziyBlVXiCe4BD58zw4cj1EFwxTcl8nU4vbakHtDcK7/+0hOqcWc+4AERIRQtZtDc1HzSnHg8M9ic09gyN7nLjCXn79WB+n/iMvj2pbUqsb8NVZL3ceGya6eBBz/hiGwlGMhSOYC0ZUahDvuTVJmrFbbkJUIHBZe3NYPOr1PY/KC3lU3qTykP3kWLNHuBHmnGFMuSOYcjyYZUJ5faQebua9U34mQiQFVq5wqWmZIw+NEV/UjS27F2vOELaQ4Cpk5cnnQaUoU944ptxJZdGR+WMU3t3N0NQG6zswurDDm58u4MprV2HDnj8ZCsWaRYq8GlFjuHLGcOSMY8+dwJ4ziStnhIyKNi41rRBc21E7Fv/+foLMynps+UPocqcRg9Pm7EG86SpR2R4c2dLfKLbsIRw5XRTe08HpcyusrO2o7S0h68uzXrLv6sWSM4ilwIOpYFyFdMnhEuL2E6V50bDShejDmjOMOXscc/YCUSGPqmteIhjcT9TfvGTd2a8ULdZky53Amj12HTEW9zAW99B1MOcISaOYcsax5IyQVNHFS3+ZYiG4zeUtWF3f5UyVn+K7+3Hl9GLJ6sWY1Yc5ZwBr3iC23EEcOYM4c7RjCaGW3HFFklhgauUIb/9zlxk/Kux9XRWk9OExlY+kWHFK8lfyhuJ8KDQ7lGJFuePYsyewusexZg0Tn9/Oo0+3Mja5qvYAW7pWefxFiRy9WPKXVI6w5QhZgvEQPIogR44QNIw124Ml20NkXg9pxWfpHV5TeU82hyfm4J1PA0TmNWHLH8aSP4U1TyKNyCeh+BpZGjlC0B72EzWkctSPiHr1g0VVRdlzehQ5IuQvIcqaO4olbwyTCjH9VD7WzeKyFu62tuHLb6ap+E0H0bndWLOHMef0Ys7twSyKye3FltOHwz2gYM8ewCJWlTOuvNOe00tGZRvnm3dYWoPgNrz96TiRBS2YskcxZw9jyR7EkjOEeLbcK1YpXm93j2F3j2N3e7C5PViyxrFkjOLMaiet6Hu6h/xql310cpc/fejDntuJLmtKRQbVR6gfa/aoZqw5Q9izBxEZ7dnD2LNHcWQP48ruJ+9oM40dQVXRrm9B79gWJ99eIKqoH2vetEa+CvUaIRb3AIKrBMkc1HeDmNxj6DNncOT088SLQ6qY0HbP5R16P7e9+sECGb/uYY8oa/Y4FvcImheJJ2neZM4aZA+mLE2p4lHW3D4qnxjmh6YV9ahBdrov1a3z2LNjJBR0Y3eLMkcVQea8Lsw53Viye7G5+7Bn9WPPEgUMamSKxeaM4MzpIPdoPX3jO2qB7F2HVz7yYM5tRZ/jwSTEZvdizhnEnDOkCFOTzx7GljUawgjWLIEHa9Y4Tncfce4LVDUEWBHyl+HfZ/1E5rVhyJpUBiKES3izST/ZGvFiZNK3TZElhA0rI7C7Z4l09/Hob3tp6PCpHfnVy7s0966TebidSFmyuKUPCc2iQ42kq+1VkuT7QczuEQwZUzhy+nji5AC1TYvsESW/dPkJoq6Fuj2C9lpj1ih69zQG9whZdw3xzicL+Ne0Tc0FHzz/+jgHy/tVuSxWrlm8WFKfylMaSX04MgewZw5id4tiRrCokCvW2kLhry8yH9hhfRum/XDyg3EMeW0q8Zty+rFk96gwas4dRCC5wSr5wT2EVWEAq3sQq3sEmwqHg8TmNPHpVyvMz8P2JlTV+4grbsWYLXl2VBFuyxHDEQxhc49hFa/MkTkIWUPY3eK1HuxZszizRkku7uSP787TP7arDFXy8j++WsB9tBObW6KJVMVjioyrJN1ImlvkHsEoRGX3hohauEaUN6gRlak8SgtRKg7fkJP2CNprNaKmsOYO8OTvJ+gauKw937kCn52eJfeeDkzu3qthypo9iM0tkxzUPCirH0dmP849opT1SpyW3DhEYlE7jz7TzurmjqrS2gfXefQVKaPbCM8dxig5TxGl5TzJe+acfqw5odAi4cXdH0KILPegCsMn31hicGhLLV6bOlbIu68fY3Y/puwhFU6t2WJMfUpWm3ijewJz9ojmuYq8EeWx9iwhS7x3gNy7x/joCz/BFdQOiHcZHnm2k/iiDlWgqIpOcnzWDV4VIszsHtjnUbcg6vUPFsg60oMju0tZoEUsWzGsWadYqEbQgGpNWYOYsgYwufvIuquff36zyIYUDxvQP3GFigcbcOW3YMjqQ581hAhhzRIMYcsUDGLPHFDeJB5lk/AnuSZ7EKPkn5wBcu7q4++fedm6sqsqtK9+mKX80U4MOR1ESLXp7sXi7sGc3Yc5eyCEfqxyLMpQ6MeSJZDvhrFkDuF0D1F5/zD1zctqo3ZoYotn35zHnN2q+lKhyj2Azd2rCLBmjWLJGsMsOgiNo7w1S0LskCpSTJmjmDPaeeDpflo61xRR8pzsi6+nKL1fcrHoYBJL1giWTEkfIk//dRB9GrKG0WVMIvn58ZP91DQtENh7cCivi/3pg0WyFVGdmLN6MWX27etEy0uWzAEsmdL5AEYVTzuxZ1/gxXen1bOcrV2YWtzhubeCxJd2YsnuwJjVhTGzW1V7cq8IuQerEJTZjzWzT5235fZhyu5Hly3e0kfZw/1UN15Wu9fyBP79T0ZwH2lV1xqyRpV8UkVqoSQUorOGQv0PY84YwpwxgEmQKYY1jDFDFDpBUmEn311YUgtfCdffNa7hzLmI1d2DRREjJPRjy+rDqoxsL+H3Y1FeKt66HyPYs3vIqGjhlbcHWV2D3S2QxyTPvT6CK0/0OY41YwxbhhiM6PQaUaasfozufvTuYSKEqOweHjvZx6WmeXyB9WsvtyiiDnfhdHcoRfwcUebMEexZrVQ+3EJN65LaGlrZlE3WNaJyq7G6+7Bm92DL7sbm7sGW2Ys1ow9r+oBSoCVTs25Fvig7qxtrbjeG7B4isocw5fZy33P9BFZCj9534cTLdTgyzmHJ6MWUMaqMRhGlyB7AljGosDeGKX0AY0Y/how+DJl9GMTAssYwZszizOzg1DeLatckeBlqu1dwZX6LNasTmZvIJwYkcqsxlIy3PjZn9mM82Ik1tZ7Se7r49uyOevQva4DPT29Q/rAslgexZmgGZMzswyhLlUxB/1UYMoeISBeiunnsZC+XmubwBeX3UaH3+hRRh25G1DUP0NxVvGoEW/okUemtvPXXOcYnt9S7C/0jKxx7oReXuwl71iAOCWeZPdgyurGl92JL78OWNog1bRhLhqYMCUtmdzdmdycmdw+6rD4ipOwu6OGhF/uQclcqyIUAPPp8I/aMKiyZPSr8WrJ6sLi7sKox+rFnaLCm92EWBWT0YBBkdqPP6kTn7lJhWJ85hy2zh3c/9jK3pO0/9k6sklx0DocYaqbmlVYxrkzxsF7N+t29mBV6QjKL3BIturGk9WBN7ceaPkhc4SCPPjfKlmxs7sKMd5eTbwtJVepao4Q4d3co2vQpbzdnDGLJ6MeUMYQ+XdZ+XSGiZn+aKGFceZWEugzxggHMmVrst2YM4UwbIT69hpr6ABvru2xuw8UmL+nF9djS23FkjWDPGLyqPFu6Nglr2gjWtFEs6WMaWRKr3d2YsjowZHShy+hV7m8v6OXxl/vVWgegawjufrIFW8YlrFlClOSgbizuTo0oZf392DL6leeaMnsxZPagF5Iyu9BldRDh7iQiqx9dxixCwsk3ZugZ3FSFimz0ZlZcwOluQ5QmcxWDsGR2h0LUXk6REHY9LBK6U4WoAcxpHiyZY+Td1cPsnPZOh7xE89l3E+TcVY/F3YY+axBDVo8iSuk4YwCL0k8f5vRBDGn7iRKP2gh51DK3vf7+PFmVndgz2zFndCtrNInlirAZfYooY0af+t6a2Umcu50nnx1lcvIyuzvQN7LOC29NYE9vwZzWrVVCacPY0sT7RjGnj2DOGMOcNoYl3YM5w6PCl8ofarxOTFm96NNFwUO48vt56vdDYk7EkDoAACAASURBVJDqX1UTHHqkE1tmHeaMXowqrHVhUqGqV8mn5b4hZaGGjEH0GQPoM/vQZXSjz+jE4NYMQZfmwZbexVMnJ2huX1cL1dHpNQrvrMLlbsWUMagg45gyepRMZvcwpqyhEIYxZg6jTx9Enz6AKX0Ic1o/ljRpxxVZCQWdvPluH4uLWiXcMbjKc38exeZuJSJjhIiQp5tkjPQ+LGl9yiPNqUMYUj3Y3Z08erJHhT5vYAOvb1XlqdtefW+OjPJ2rOmtmNI6MaZJrNZgyejBnNGnBNZndGDNqie18Dzna7ZYWYFticPfLXGwoh9D2iD6gz3Ysgaxpw9hVx40jCF1AGP6IGYVo4cxZw4rNzemyz09GFJF6X3o04SsYSLzBjjxhxFFklRPX1ftUPpQD9bMJkxpfRjTBjGkd2LIaMeY0YVMWGSUXGHK7Mcg/WZI7O/FkN6FMV0rkqR/XcogtrR2Hjo+RHV9UEUDz/Qalb+pIjK7WZFkzBD5ROZedKniVUKeVpiYpYrNHMKQ1o8+VRTdr4xZvEIUbU4dxpHWRmrOaXoGltUzMO8q/PPbBezuRiLSRgmXeWb0YEzvxpjWjTmtF0tqP6bUYQwHPTiyOnjsdz1cbJxDI2rtVkR1YMpoVzCnd2JK70afLvG+HUdONQVHTjMxu6lIkhX+O/+YwyZhK3UCXXIb1owWXJntRGd2EJneiiO9iagcedTeiTWjCUuGVG8yRhe6tG4iDnYqhehThbgRonIHePr3wyr3yVbUx99ukPcbMZhWpEjQwlMH5swmzBkN2DMbicxuIiavmbj8FiJzWnHltGLPbMKSLuhQhYw+ZZCI5CGsqe1U3tvOt2dnlUdNTK1x90OXiMppwpg+hCF9TLVmlVs7sKe1YElpwJbWSKS7lbi8DuILOojNa8GZVY89ow5rWiPmgx0YUnoxpXQQk1HH6aoVfMFdVV2eqV0goaQOXXq3VuBk9GJI68aQKo7RhTG1D0OqGLpHFTuP/66HSw0/Q5RBvCq9A2N6G6a0Nozp7USkdxGR1kZMQS1PvtCMb2WbKzswOLLDb/8wjzFpAH3KBE53K9Hu88Rnnyaj4HsKy89x9J46nnx6kKP3N5CQ+yWR2d/gypVyuAl9ejvhqV0YVBgZxpg6TExuP8+9MoqQJOHvjY/mSD0iIblTeYspoxtHTjOxhdXE5X5PetEZyu+8xP2Pt/D4iS6O3l/HkfsayCg+S0zmD7gymrClD6FLGuNA0phSTMGdrfz79JRapM/Ob/LiK4Mk5LdiTBvBkDaBKW0Ee1oXMem1JGWeIz71P6TnfU/hkSrufLiRR57p4r4nG8kq/5KknM+JzfoWhwrN4in9GFLaefwFL31D2yo99A5t8OQfx9GlX8Sc1amWFeKxhtQO9GntymDD0/rRpYzhyOzgFxDVpUKRhL89soQoQ3qPUlTOXZ18V7XJ6roW9v7+z27yy89jT64jPreT598I8vFXG7T1bjA5t8H80mWWvJt4fdss+jeZXFxncHqDry6u8dSr8+Tc04k57SKmg82YUjoxp/aRcWiUP3+4qF5LlkLl93+ZJqWsHdPBWlzuOoru7eGld5f5rnaDwckNphc3mFu8zMLSJou+LRb8myz5NxnybPD1D2s88/s5Mss7sSQ3EZ7UjSm1jazyWk79e1RFhYWFbf7y10mSC1qxpEq+6MOZ2kRWSSMvvzrH519uMDS2zqyMs3SZOe8ms94t5nybzHnX8cyuc7Fpg1feWyTv7i70SVXoE1vJLGujrsGviFoM7PLZGT9O91msmW0Y0vvQp0rY3yOqi58n6t1Z0svbVI4ypnaiFwtP7caQ1oV4lz6tC70kzIxujjzazewibF5GedQbb53jnodO89d/TNHavcLE9A7zi7C2rp2Xd77lfXCpfuT1Ynk/XDzFH9xlbGqLho5lXnl3mtzKZiLTG7AcbKLgN2N88u0WsoiWHY9nXhwgvaiRow/18uGpBboHVpmY2cG/rD1Wl1eeZQx5/Ux+NCCP7NWYW9o4nqkt6ltXePNDHzmVPcS7m8gqvMAnnw2p3YmAb4cv/r1CemEjUeltlN7Zz9vvTdLeEWR8fIvFBW1bSF6plpdjZI9we0t7512WDzIfWfONT2/T0r3Cv04v4C5tJzHzLN+enmV9DfXYp7krQHzWaewZ7RgO9mM42IPxYAem1HblHJLzdCnDODLbeOz5bi41yoL3Ml7fmqr8bntViCprw5LWojF8sEt1Ih0JacK8/mAf1rRO7nm8kw15o1SU7YeG5nFqG8aZnrt89UV8EVwwM79JW/cy5+sW+PrcJK3dywyNSRGyq6xMKsb1jV0GRrY4U7XAvU+0k5BXxeHH+vi2ekde+lH9PPu7Vt5+f4iahiBTM1eu3itjCPEj4ytcbFjgm/PTfHZ6hG/Oe+gd2VI75OqddTRFjU3vcuaij2O/HaSs8iwff9Kt1mkryzuc/j5Aftk5XvvLMBcu+fGMbLAtxnhFixwy1sTEBq0tPqqrZjn7nYeLF+bo6b5MMLirPFPeyJX3MXzBHU6fXeLp57r591dTzM5uqH76hwJk5n+HI70VfVIfhuRezCkdmFPaMaZ0YjwoRA1hz2j9PyAqRcjpRidECXEpPaqauf/JDuVNYl1C1NqGpixR2MrGDrWtq3z5/Ryn/jPDn973cOxkP/c82c7hR5o49uIAL7w2xgcfT/PVt/O0ti2ztoZ6WUTelv2hZo5nX2nld3/uo6b9siJK+v3ujIdRz7IiTV4qWV6+QnVdgM+/meHTr2d46c1h7j3WQeUDTZTcU8uRh5t4/tUJPvpsga/PLtLWtcLymubRMk5dU5BXXmvk62/71evOaxtXaGr18cHfexgdD6qtH/GaxaVtztf6+OybKT759xR//PMQx37bzYOPt3HnfQ3c93Anv31pgg/+OcN/zs7T1rOi7aaIV29Ca9sKXV3yd5w2lOeOjAUpOXIOZ0YzOiEqKURUchum5A6MKT3okv9PiErpxJDchS6lk4iDHegOCuMdJOZ18dzvR5RiZadUSmdRpH9lh4GxdU5fnOPOJ4dJKGzCldGI/WAj1pR6LAfrsGU0qqrJktyAJbmFBHcHj54Y4lLNkrLUje1dNoD2oSUuNM0yPLmhNmMldIqVSq7yL+8y7Fnn67MzVN7bQ2x2I/b0ZqypMtEmjIl1WFObsaW2YUlpxZnRTXJBN48+M8SZqiUmpjfY2tlVIbizZ5bewUVVkV2+ssuC9zKXt3aVMcivPkY8a5z6eoKS33QRKZVdWj3m5FosyfXYUpqxJrdgTW5TY8n6MaW4lSdeGOS7Ki+TM5oHyfpCooZ4tfybnF7j4RMtuLKa0SULUT2YktsxJbdiTG7HkNxNRJJsFLTs8yjJ7/tCX9q+0KdL6UCfrCEipVOV3KbkRkruHuTLb7e0gUWDwIbs8bWtceLkENEZZzCn1KFLakeX2Icuvh9dgrh4D6aDvRiS+zCmDKNLHMWYMIQjqYX03HP88c8jDEyuE9zaUWTJD9I2JKyxo8Kp5KD1y7vUN2/w1PNDRB78HkNCLfqkbnSJg+iShtEnDapQImNFJA0QkTRCROIY+oR+LIl1pBWc45W3Rhmf3eDy9q7yJAlVMo09yHwkLDe3Xea53/fhSv0K88FGLZ+kDBKe0EdYfB/hCQMKYfH92ufEARVxbKk1ZJWd50/vjjG7sMG2WHHon4wx593mnX8sqmVARGIP+oQeTImtGJOaMSRLOOxS/drSm3ns+S4uNS7gC2yFiFpF5ajU4maMyQ3oU1rRpbShT25Bn9xGRFIv+qQOLEnVPHisW73SK7+62Ns26Orf5pkXh3Aln8MS34gpQdCMMaEdY0KngimxA1NiG4Yk6bcDY2IPpvheTPEdmBPrcaSd5YHj7fSNrqhwp9nADruqLNBm2t65zRPPDmJPuoQxsQ19UrOC9CmftQm3YNiTO6UDXbJUYJ0YU9qVp8VlV/PgUx2MTq6pNdrOlV12ZY2xNxmgtn6NBx/vJPLgRWwH21T1phleJ7pEQYdmiGKMIegT2xEYEtswJzYSnX6Row80MT6zpuXt0I/uFld2+U/VJtH5DYQndKFP6A7J3YQhuVnpRozAlFLPQ8+2q2LCH9zG57+sdtEVUQf3ESVk6ZOaNCETezEkdGBNOMdTz7WwsBRyZ3HlOXj+D20kus/jSG7HmtCNJb4ZS0IDpkQhqxVTQivmxFZMSaJEUW6LptiEDowJXRiSBI240s9x8vVR+oclAMo/iRlSv8H0vFR+rcRmXMCY0IY+oRd9YguGxAaMSY2YQxCvNyaFJp3SjD6lGZ3M5WAXxrReTAdbSciu5833lvBMXAnxI1avmcaiD554uono1CqsSZ2YZW2ojKJFyS2y/xhNGBIFLegTO5WXiOE40mp5+g8eugfXr758Kj8nqu/dJjq/Fn1yL4bEHoyJoo9GpW9dUivhCb2Ykht45JlOahrkedQ2AZ+8ibSuedRVopJbQ24oN7egS+hRyrHFf8/zLzWpd8dFeVJqf/jZLLmHhZh6zHEdWOI6scQ3YU6oV4MbEpsxJDUr1zYmt2BMag0J1oIxoQVDQis6UURiK4akepKLqvnbpzPKGDQtaq9infqPj4KjLZgTazHKteKdiZKT6jElNWBKasSU1IQxWcaSUCJzaEGf0oTuYDO6g63oU8TqW7EktuMu7eSjTxaZnpFZyL9dVZV9dGqRrDIxrCZMiV2a4pXnNqBPEn1oXnx924Q+Sc4LpEhoIyKxk7CEbhIKOnjv4yXGpq9oS40rMDi/TUzBRXRJ3RpRood9RIUl9GK+SpS8M3ETooRJiZUKiY2IovUJXZgSWnAmnOXFl1vU72UlUkj19Ie3x0gqaMQQV4cprhlTbJMKfcbEBuUlyivFwkWJSS3KzcXDxIpE0fqERgVdYgsRiR0Yky7ywFOd1Db6rpbgEpkeebqb6EwJcUJSoyLIKMYgSBKIJ4kS5Xyr8mQZT58sHtWkCDOkiNW3YYgfxJrQzF0PdHDh4rwaR4oieZJ8z+M92NMlJHVhSJBQpinRkFh/VZnanG4kTEisV2RFyKI6uZ2I5EHMKQ3c+0Qb1Y0Lal2nHq4ubxObX8WB2DYi4mQcbU66xEYiElsJj+/FnLTnUTcS9c4MkqOuEqUsXyxWiGrDFN+MI76K51/oYnVZcyfZjD1b7eOplwbJLGvAnnQRY3wtusQmIpJb0InixFIU4VpfQrjAmNCsEZXYgD6hHl1CE+Hxnapyyyyq4u8fDyiDkCWAGET+4Sr0cUJsB4YEMaBajaQ9ssQwhHilWM1bRXZlaBLClaE0Y0zswBA3hCmujaTMs3z0ca9atMtaaePKLtmH6giPbyc8rhu9GFSCZnimhAaMalyZj4wjc5P2eojBSfjSJbeoCJFR3sALr7bQ1jWnqmNZhE/7t0nKryYsqpXwmE50KpTL3JrQxbcTEdeniHr46U6q628Ifa/9ZYbUQrF6sQqxolYMCU0KelFqfBPWuDrufbCbpsYV1le0Hz5L4BiZ2uH9TzyU3nOJyKxawpIbOHCwjYjkVnShe43xzarAUEVGvNav9K+ES2xU14mQ5oRmohLP8OprHVze0IKf/Lq98OhF9LGN6OM6lCyGhHoMCQ03QaNGpChVQRtDH9+MPq4FfWw7+pgejLGNRKV8y3sfdqnqT34CNOPdJrX0ImFxrRyI6yQ8vhlDXCPmuCYFY7w2nkQBmZcYl4whBmSIb0Ef34YuvgNDYgfOjAZyD//AG+8NMDqxqgoXMQYpDKrqFknOacAY26U8KiKhDZ2EvzhBB+GxfZgS63n4RAfVdQv4A1sqR/l9a9z2U0SJQkXRlthm7LHVlFTW0dK2rRadV65oaxLZtmnuDXLPsXac2WfRpVahP1ivVY7i2vEtGEWQEPkGUYKaXGjCcj6hA3NcC464izx5vI+B/l1Vi8nW00MnetQuvExGH9eAPr7+l0GuFU9U97VqRMV2YoqrISO/ik8/H1Ue5Q9e4ZuzfuJzLxIe10ZYfBfh8S3o4jWiLBLS48X7G1TE0EluTZAw2qJgSerEmtSOLbmRGHcddz7SyuDUjtqZl8gjPyTw+nf4/sIicWlf4kyuxyrVdIIYRAu6uGYMsc0YYtqJiOlTOf+RX0KUKiIknIjVKqW2YhKLj2tRnaQUNHLfk930Da+rxagsF9Y2d5le2OKb85dJzj2FMek7whIaOBDXRkRCO2I5ESoXSYGiQS+WFJqslOqG2FZMsY0UHurhk899qhaTcPH23xbJLO3AlFCHQSlfLPknsEfkLYiyxF7i6D1N/PDDLDtbsDi3yYsv9RGdXktEbCdhcUJUKzopjOIaMMfXYUyoQ5dYT3hiM2GJ7aq8jkjoVF5giGvGmniR3Mpq3v5wmPnAFssSTtH2HbsGdjn5xiyx2VUYE2rRKdnF6MTTGzDE1WOKbVBkRcT2/DRRBwulpK5TVZrE2IgksR4hq0m5pTGuTSkyIqaZiPhWtfNQfncVb77XR3d/UOWS9cvgD0BzxwK/fWWIxIJawuPOqwlGJDYTkdCqkRbfRoSyWBFUgyGmBWNMC+a4NhLcLbzwyoCK61I4/+f7TcrukvK/ShUuEbFN7EHzmL1+xHsa0cU2EBFXR0RcPRGxjcpi9XGt6GLa0Md2Yom7wInn+unsXFVETXrWOHT4Io6kWiLi9hPViDGuHmNcLbqEGsIT6ghLbCY8sYOIhA4tZCXU4Eg5w9Mv9VHTGFQLXdkcDu7A4mV4/589VN5fQ3xuA+Hxjfwqpo3wWIkuzRjjtf5NcbWY4upCRHVfJaqm7lqO0kLf29OkFkjCrCEioYGwhEbClPXUqRAjMd0U04QhpomI6EbCYhqJiK/BmPA9qUXnefy5Vr75YYagvCkrG7KXoW9wjU//Pce9x1qxHPyG8LgqdEK2rIHiutSxuLxOQlNsI8boRszRzYooZ0o9TzzTqsKSxL+R8V3ue6wOS9w3GGJrUMYiBhPTjC62ZR/kcyMRQlSskCTtNaLCo4WsDnSu07zz0SjzS1fUdtjo2AoHs/6DKeES4bFthMVJQdGELk7mLxC9CFH1hMW3EBEvFWETpuSzFN7dwF/+PkRH/7Kav0QA//oOX5xb4oW3+sk5fAlryjlF9IGEFm6PayU8Voy/QRmAKbYGo5AU14AurpWwmG7MCXVI6KuplzdltfJcI+qtaVLz6zHEXyIsrpY74us4kFhPWGItemE7thZzdD2mqHr0UXVExNQQHldNeHwNuoQqnGlVHLq/iY8/H6enZ42NVVnxQyAI1U1LPPdGO3l3tmOOr8Ec34khtlPlC11cCxHiATENmKIbsURLid+GNaGWux5sYsyzpdY38tdbnv9jO1GpP6CPEaJa9qGViJg9tIQ8TUjaQwMRYmAxzYRHy30dxGTW859z86zJz0QD8N3FILbEL4mIv8SBuBbCQnKJV+qkko2vITy+lvD4OiLiZY3VTGJeEw8+28O/Tk8xJfuEO7IpLcXVBp9/5+HQg+24Mi5hSqpVpX14YqPmAPFiPHUYYmoxxlRjir2EMbYOvYoS7dwR3a0IfOT49UQFVDHx1jQH8+oxxGlEHYir44C4uYqnWqem6DpFlCGqDl1MtSIqLF62QprQyU5EwkUSs87x25PDXKxewuvfUqFLdpsmfTt88m1QrSniMoT4BvRKaWJdzcpD9dHNGKPbMMa0q/NZRQ188OEMy2u79I1d4fjLI8RmCan1iGfsISKmjQiVhCURy3Ez4TF1+1BPeEwj4dFNhEWJF3aQfWiYU6eXmQnu0jmyxWMvzBIWc4Y74iWnikxCvEZ6WFwDggPx9YTHybLgEhklDbz85ihNPaG//AIsrUBT5xqvvzdKbmUVtsTzKvdI1SxVooS9sNh6woWUmDpEn+aYGsxCVozouAldTDsHojSiHj7eTm3dAsuBbYLeywS8UvXtI0o6ChOIBcVJchWLrEcXLd4kCq5HJx4Ve4mw2FrCxXIlIUq8jRUruUBmcS1ffj/N+Pw6wY0rasduZQdmAnD4vipscWcxRIvS25VS7ohpJiy6jYjoDvQxnSpXORKqKay4pB7EHXvZR3R2O+HRdURENxMe1XIVQo7kHg2i4CbCY2oJF2MSOWPqVDiUXBgW1Yg+to3ozFYefGacL8/5+eS7WaKyW7k9uonb49q4I66NcAmP0Z2KVFmY3qFKdvH+WqyJ3/PEc034V7U/jCVV6YxvndPVK9z31CCG6LMYYuqVLiT3GGKriRBZomsJj25QhJhimjHHNGKJacAaU68hWtJLK+FR3Zjja1Xoq61fZCVw5aeIaiA8ThKyRlR4TAMR0Q3oFMRCRQGaEiSZ68Qropo0K4/qwBRXjyPpcx44Vs2F+gXWr6CwtgP3PHoBe+IZDIpwsVqxskuKfF20WJZYWjW22PM4Yr8lMukMlqQqjIm1GOJr0cdUo4++dBWGmGoVQiSMKMRWoY+RELmHcxhiLmCMvYg+Rs5VYY7/AWvCv7Alfow16Sv08dX8KrJWGZ7MWRRtim7AGCNGKNFDDFLyXx3muO84fG8Dl+q1Ry/yI/ITL13AlXYKXcw5DLE9GGIHCHfWoYu+SHjUeSJiLirvkhJcyLgpUTENmCXvRnWqFPHIiTZq6+V/ZLOPqFffnCIlT6qOi0RE1xIWLWRIiKtBF1OLKHAPEVG1RERVo7UNREQ1aohsJCKySUEpPPockcmnySs9yyuvdzI9B99XQXZpLYboi4S56gh3VWGI/hpj1CmMUZ8qmKNOYY3+FFv0Jzhi/htX3MfYYv+JOeaUgin6FKboT68h6lNMP8IpTFHXrjNHf4o1+hSWqE8wxXyMPe5jHHH/jT3mI2zRf8cS/SkGNf5nmKM+xxr5BbbIzzFHf4Yh7hSGhK8wJFRri+7oGmxJFyi+q5VTp3eouPcHojP+jSnhNPrYS+hjWtBLdRndgD62Gp0ywmr0MbXoJcdH1mmIqsEQVYMx8hr0kQ0ciGzHEHuJh55qoaZ2jqD8lTXvGgHvCrcponKvERUeVU+EkKOIErL2CKsJkRQiKrLhKjkRQlSUECffNaCLrMcQWY0t5hxpWRf4zf1tFMkf0EgSj6glIrKatIJmXnx1lr+8P8Vf3p9UeOevk7z3wSTvC/42wQcfSTvJOx/cHPJSyo14569TKHwwpe5794Mp3vtginelj79N8P5HGt77YIL3QuOpPt6f4p33p3j3/WnelT7+NsXbf5/kt696yCxrwpJYi05ydJSEwDrclV1YEr/HEHsWXUwVuuhqdNF7hi2tfK4mQrU1at76qBoUokPt3ueoGnRR14h6+KlWaurmCAY2f46oWjWADHIdlDfdSNQeSfVECMmKrEZ0kY0YIuswR13E4DyP3lmFMboaQ3Q1sRl1PP3iKP1DMD21D9MwMwMzsxpm52B2FqYFMzfBNEzfiBuu2+tP3S/9yv9NRiDjhMb6UR/S56z2f+bpHNrmr5/OU3C4CZMQEilkNamocpWMkF7CIy9xM0gU0v0kxAnquWO/R9XNEvRrhcQ1j8qTxFelhb6oOsKjagiPqv4J1BAeWU94ZIPWRtUjnngVoXNiJRIGIiLrCXOI1YjLX8Bd2sxHn85qayV59CRPW+UPJ4YeXauXUkIPSPeO5UnvjyD33Qh5P3/vMZOsmG/Sp3q4EbpOrlV9hMYXOfYeocvtsustfyL1keMtWGJOo3NdItzZRLhL5l5HeGStpqfIS4TdAkJehMB1a0g6uN3Zii66igefbOJSzTQB38Y1j3rlz5Mk51ZjiDlPeLTs7NbccsBrglQTJgk4su4nIBOQ/CZVYxN3OOqIcNaij7xAboWsu2bVfp48yhgeDdLZ46e9y09Ht4bObj/dvQHt+24/bTdBa7ef/WiT+7sCdHb56e7y06Na6SNIe3eQrq4A3T1+enoCdHUH6OiWcwHau/ahM6juHx0NaISB+lNyj5+owRL1BTpHFQds9Rxw1nHAWUOY62f05bpImPMi4c6LhDmqboGL3OGo4b8cLUREnef+xxu4eGkKv3f9GlG/f8NDkltc+gfCXFUccN3aMq4RJdcIWSLkzQiT76tVGNCsqIYIZwN6pyTTKnIqWvn75/PqBRb5+ee9j1UTk34WR+IPCraEswicSeewJ57FmnBGgxz/BNQ9CedxxJ0hLukscUlniEz4AWdSNVLyR8adJzruB6ITzhOZeAGXIOkCzoRzOOLP4Yi7gCO2BlfcWe5/8AKbsmEn20ELcOx4LbaoL9E7LhDuqOOAq5oDrosKe0QIGf8zXOKAs5ZfOVtVZfrgMfGoGQK+fTnqjzcQdYfz0lUB9gT56Vaur1EDyWDaBC5xILKKsMjzRLjOo3NWoXPUopPwF3kBd3kz//2vOfUjuODGDofvb8OS0Ep4ZLtCmKuNMFe7WltJe8DZxh3OVn7lbFGTud3Vyn7c4WrjjkhBO2GuLnSuVrKLhsjK78ARLzm1EUNMN3p7G+GWZsLtrYQ52wiztxHmaOcOWxu3W1u43dLO7eZewizNHLqzgcvrIaIW4diJGmxRX2hEiTdFXuBA5HnCXBcId1b9DwnaI/bmRPn8m8j2kfxJ7dv++LqHpKxrHvWLiYqs0oRVViXWtQ/q3HnCIs8R7hLIZCS2X0AXeZbsigb++18zKv4vr+9QcU89siaS8Ci43V7D7fZaDjjrVfsrWw2C/7LX8P/cBP8lYcNey3/ZG/gvexsRUZf48J+zdPWu8c33AR46Po4+6jR6CVW2OrXOCXfVEu4U1HPAXscdthrusDZwh6WNMGstlXfVsr6h5cX5JXmfogZL9BfonDKXPaLOEeY6/79MlPzicPnmRIU5q/hpXFCWJEJq110izLkHiclyXqztPOEKF9S6KcJ5Hl3k9+SU1/GPf02rbaaV9R0q76lRFdUBxyUEd9gvKoQ5q1V7u/U84Y4f0Ed9jy76G4WIqO+5w3GOX9mr+JX9UgjVLY0CJwAAFiFJREFU/MpRizn+W85Xz6q9wvGpXd78YB5D1CdYYs8Q7jyjGU9kyBPE0OwXOGA7zx3Wi9xuqeeAtYqKuy+xeln7s93yh4IffyZElKNKhT7xpAORGlFKB7fMP7fKS/u/13LU7Y7rQ5+8gXT1D9SLRyVmitBnOOC4wAHHXtK7QJjjVhCCzofOy4Byz6UQrt0fLvFcWaCEhiqEKH3kGXLL6/n4XzOqiltd3+HQb2QPUIiuUbhDFG+tIkIqKkctEfbzGF1f4i79lhde7+blP3cSn/kFeuc33GGr4nZbreaBjgtqd/z5P7Zpb73uQFvvGo8+148++l/EZ3yDK/krTLHfExEpMlWrkHXAfp4w2w8csF7gdmu96rP8nkvIm0OyXznjhceersYsxYS9inB7bcgYz92gh/3Kv/H4VrqU76s44Kjhdlsz/297V/4cxXWt/e/E0kyvM909uyQWG4QQXlhMHJvNgENsjEEsseO8cl6990JiO8/2q3qVYo1BBrTMvu8zksDbQ3biGDA4BiQ2MTOS2YwN36tze2a0IGnkQFKpVH746s503z5z7/nOOff0nb631dkpbHn1A+R6B1Fkoa+8hpeImv9ECpIrApEa3JCFyZWGyZWsgZRez5mFyZmbgAxMzjJYx8p1XGmoTXEsX30Mh7oGWRp97eYdPLeR5sdonKNMipSeA+dIwzyrB4orh7kLcli9PoE9B47jUhG4+s13+NXOHsxtCUOyZcDbj4F39sHcEMOs5g6cPD3MUv/CN3fR7h3EnCUZND2exes7P8Kvdn6A5atzsM/NMSOQnXlIjizMzhRk8ijHhxBceazamGdE0UNrA0PA9n/LwzbLDTPpxtmrZ2+NMyWKEpDkNEhBduUh2I9Bm5VAGyPqAor06rzKuznuIcqVhexMw+xMTA9HCmZSJlk+dXQc6HgaJkeayZKdWciOPGRnBkpjHE+tOor3OweqHvXcizS31lseo/IQyMIaUzA3RDC3OYpt2/uR7ymwR47pCdfh63eR//A6lj/bB9maAacdhdGah2V2EGufD+DsOX27nz+dvIHXf/sFGlsT2PTaV2y7VFoytP/gaSx7JgdLUwKCLQ3BlofJkQG1k3d+AL4hh5Ub8ximtxhMS1RKj0IUOqcFEZGYBkn224LtGLSmBNpeIY+ixdbfjq6Kv3+idFJ00sZ/nglRN67fwdoX6I/DPn1Qb8xCakxAmx2DpfEA3nn7S5w9c5MNFvQ/Fy3p+ezkd1i6IgvH7ARkWwacpReio4clRfHkNVyj7dkAhKKnsXJNBE8/m8Knn99lK1HYDe5twOM+hdbFQcik4IZPING42JAG5zoKviGLVWNC39Qe9fchil7xyrK+caHPlYXkSMLkiE8PexKmWnBQ7B/jVc501aMOdQ6w0EdErXvhGGxzehlRUmMa6pwglqyI4M+nSigUbuO7W3fZ3+YD575De/sgWp50wzE7Bo2SFjshB/ucHFauz6E4ckdfBnMX+N9dH8I16wAaZ3nxzIoEcvnr+Oaa/i6IkdJt+IJfY+7CCEyNSYiNcfCMqGNVotg+tjU8SnQlITinh+hMQnLEp0F5fLQdndSjGFFv0hj1OLleGEygK/PAiJId1EBCig3U9NncEMWylX0gosjsb9EY9bM+aLPzbJwRGhJYtjqJHnpw8fZdNtbQ41bpzAC27fgYi+lxK2cUGoVWWwKyPQqzPYTmRWm8+fZpvT6AcGoQa36WheL0QnHG4JgdwTNrUgjGhjF0FWxXmCuXbyEQ/guan+iCNifExkWD4wPwrixW/CzDdt5kycQQsPW1DNSGDrA+2XNlcuIQnQmIjuS0kBxERG2iOEsPlIYoNu84imzPYDX0lYn6CvMeS0B2hHWlOjOQ7KSAWA1Q2JkeJEe0xyHakxDtKfbZ5Axj2YpeNkbRnBsRtWYD3QhnwTko84li1YYsmzhlc3C0kvBbYNe+LzB7XgQWVw80ey9UWx6yNQGzIwTFfhgrVgXR/+l15qW0Tfmv3z6OWQtjkJykRIoSKShOP9a90Iduz18wMHCdzS+OjHyLbu8XeGpVH5RZvTDaP2QZ56oXsiyZoOcXKesjohTXEUjUH1sWvCMB3hGD6KA+zgQxiPapQDpKwajlYHZFykSNjlH3EEUKpRRVsiUg2WI1QHVqgRpAjUtAtFWICmEpI+p81aNWb8ixGQvenoXoiKB1WRQHj3zN1kTR+ih6NVEiO4iNbUfhmJOAbCVv6oVkzUBxBDF3fgf+4z/T1d0oz5y7yVa6q41hRhJHmaE1DdkWhcX+Hnb8PI6PPtZDL41Z9Ozdq6+fQtOCj8DbjoG3JrFyQxoj9DqkCUSR4QljiBKYIdYiqqKHaYiyjSXqGLI9UxAlOULM4iV7CpItXoMkIrEWSXS+0kAiirwqDpNzcqLUJiIyDckehcnlQfNiH3zRQQxc1Lc+pb+9j35yAetejMHsCkCk8KNmYbL6sO6nScSTZ6uPDu/6wwm0LglDtodYVsdZqD9RWJwhPPGEGzt/nUL/8XPk0HoaP3wXr71+ArMX9EGy9oJXY3hmbby61/rAFaDt1TTzKDI6/m9OFIW+mkSRgmt5E52nztciq0KU7lUk1+QoE9WhexS9joE8SmtKQrKlIDNyw5AbAlAb30OH5wIuXvleX3wG4Iszw1j6bAKqKwpJi8LicOO/dv4fhob0FZB0k7r46fegOg9BtoUgWMKQ7AHYZ+sJRSJWQuGK/rfKt7fvsLXGydwNLHjcD5M9DNGah6DFsGJtAvQOK9rW6PwVYMsrdMtymEUH3kY35HroE+zT60KsGutU3lQ+XvEoZxibd/TpY1RJT8/LWR+NUXHI9iBEWxRMsDUK8YEjzmSa7EEsfaYX7Uf0+6jrN+9g1U8zUBvpfBKiNQHBEoNIpNr9aHz0CA52nMXFgr7ynZ7KHbx0A08+6YXV1onHn4ii/dBptt3B9dvApyeBRcv8MDndEKx+iNZuOOd2Yv2LCVy8fAO3v7vLxjEa/473F/D8i71sxkF0BcA5EjBacuDUCFasK3tUOetr+wV51GEItjg4aw6cLQnBFoNgjUC0RCBpk4POCTURBW9JwEARwhnCy9t7kckPjH8F+VvvEFGUOASqRNUWPJMfn1gnBsEShWwLYslPenHw8AALOzSFtPJ5ml2PQ7AkIVgS4DX9M3ms4org8eUx7Dv0FS4W9WWj587dRmvLYVite/DOu/04P6ivyr945TrWvxSFY64Xki0A2RHC7JYUtv/yM5w4PcyW19CfgSMjgM93GqvXhNBAc4a2JHhHHEZ7EoYJRFWyvnuIYmNVBII1DNESgjQNREu4BlllopSpiGKz5zpRks0PwRrVraSmBUwkYSbfiajIGKLO60Rdv8PufxRXEryWgqDpRIkW8i4Kh3EoLh+Wrojgnd+fQDR1E1t3/BEOVzecrt3o6Pqc7UdBr887+uEInLMOsPBKEUGyhWCfFcTzLx3FmbN69vjRxyN493++wLMrU7C7/DBpEYiaHqLJW3gtA0ENY9W6OEZo1T+AC5Se/yIFxfU+RFuEJSY8eRONgdbQ34+o+Y9RnCWiyEJ0hT54r6oQFcCSn/Tg4OEyUTfuYNW6PBRXCrxGHhUDr0UhWhIw2dMQrXFI1iAUZxdanoziuQ1/gmLPwKT58dz6JHr7Btn49fW56/jvdz+HbGmHxPoQZwqUrd1si5zfvfslQpEreOXVD9HcEoZqDcOsJSCrUQjmAGRbGDIZqpYeJYo2NrkLtgnK1lcTUJwHIVnJOyjshSHYghCt03sTedqMPWrK0PcNHnrz7TOY1xqFZPGB16gR0RpuOhPvqdQheRW3J7khSFY/Fj+dZ0TROMHGqPU0+ZpiYY+MhWfXUOKRgmiNsY7KFj9MFi9MWhCSJQVrgx9/OHAWFy/cZo9Qf/LxIJYuOwJJOwLRoodZ0RKAZHFDdXRh9qM+PLvqGByNHZAUNyQ1BllNQFaiEE0kO8jGGU6lNDmMZ9fH2S6Z9Dz54GVg6ytJKI6DutK1JHgizBqs6U0/iCiN5kSDbIyiG97i8G0210e7YD70xu++xCMtYQiqB5w5yAbSWt5EhM4MIfBaELxGJV1DHfPhyadz44ha/XweakMSgpVuJolYuiZSRhiCFoKk+GFS/FCsIZhsATy2LIbPPiuw3Zavl76H330CsvwuJK2bGQRvCULQfBA1DyTNzSCrVHogsuMBSGoQJnMYJnMEohIAr4RRp6bwsCWMp5/Xsz6aBL5wCdj68xQU+/sQtQgECtFseKgd9mZGFBlnAgYtA9Hmx6btPexxMdr8pFC6xnAvUUoYnKordiJhFXLo/MxAxPvLoGsCEDQPnvxxDgcO6aGPedS6nB76WDJBoS8CXo3r0KIQ1AhEcwiCFIRg8kOyerH9tdM4c+YW22i3LzuEDev6oKgdEDU/OPJILQSRDIM8UA1BVMlQojqIRIsfohqEpEQhKXFGklGN4mE1g4e1CH6yPonStfJ2QReBrTtSUGzvQ1Qj4BUK0yQrBKH8G5XfmqyktlR0N3kZgVGLl4nyYdO2PPK9FzA88l1toipEjBVcOTbzcqZE9UJ1ZiGo+k0sr2TBm3vAKznwagqCEoesJiGZ4zAIAWb9S5b3obNrGIMDQFfnecx5JAPeFAenJWDUEhDUJERzGpI5zUpSrlFLot4SZzBYEjCqSV3pahKcEgNnTsBg7oFRSWLF2jTLDmm3ZXq+sEKUREajpCCqUUa+wDzRD16ZBmqghmGHYVBjqFfSEKxevLQ1rz/cMnx7PFGPLghDrIS+ikcpIfAVkIdVPis/xJsonOgd0Mkte9TyHA4eOs+ep7tBk7Lrk7C6wtV7EbJakcYOKlWyfA8k1QNZ8UAydUE2d8DVeASLlxzClrYI1qxNwkIzK+R9Fj8Eiw+SGoCshCArYVaS93AWH4xWLwxWH4yWAHgLtccPQfNCULshqF4I5ggkxYc1z0X0XT6rRCWhWA9AVIIQzAkISgSCEmb948w+TA8/OCU4LYxKFHXmFHiLGxvbMsj2DLA1vKOh761TeHRBCKLiBmcKgDPTj4dAljIVOCUAAj8GlWOjJRHkg2D2gqeOsGv8EDUvlizPof3QOUbUrW+/R9u2MB5b7EVzqw/zF3oxr2UMFnZj/sIuhuaWLjS3dGL+gsNoaT2Aha2/x5Jl+7F4WSdaFnnRvCiA+Ys8mL/IjeZWDxa0erFgoY+Bvs97zI1HK1jkwbxyXb1+F5pbu9Hc6kdLaxe2bY+A9kWidbiDl4AtO2IwW/dBUDzglSh4hUIg6SpYNcaKUU5VCoofk4H0yCkRGMxJCFo3Nm5JI5s/j2LpFgrFb1AojuCh3751Co80hyCa3eBlPzhTCII5CNHsh6hMgNkPwexniiflT2zQRKvizWShHkYWZ/aDICheLHkqj/b3B/T/jb6/g0Dwj9j3Xj927/sUu/b2Y9fe49i9t1/HvuPYs1/H3v3HsXffceze8wl27/0Ie/d/wLBn3yfsWrp+9z6SUwF9r6Afu/b1Y9f+UYzW68ee/YRPsWf/Z6DfCYX/zP5opC0UaI/CLT+Pw2TdC0Hp1qNL2aBnRFRZb0ynpNcJ0HUaBmdKQFS78RIj6lz5ZZT09tLhe4niTTRgByCYfOMECmYfO0bHCWNJqRA27hir54Uoe/X65K1Mrh+ti3LYvfusvrVbeZcy2kGMthKgLQtIOZQWV0D3MmNB5yug+nTt/aIir1JStkeg72e+BjZuSUHW3gNvduvZsSnIDG9sn6f8XNZZRXeTlnIInByHpHaNElUsvyueXvkw0aPGEjWpwEmIqjTQaPKiAk72gpd9ECQ/g1EOgiDKMTidCfzytX5cou1ML93C5Su3cOnqTYbLhZsYKo4H262YtpYmFG/iyoTzE+v/Vd8r8sslybg8pG+32uW+hqU/TkIwH9LDOCOJwrmn2t9KvycrORPpogakIIxSDKK5ExtfTiGTO4tCkV75MMzwNyeKwikvBcsIQ5DjkM1hNDV5sXJFENu2prFtewptOxLYvC2Kl7dGsKktzEr6TKDjm7fHdGyLVs9Xj1XO3Ue5ZUccY7F5WwybNkfx4qYMHK4/QJAPQDC5QYbMjSPKA4NcG0bJg6nhhVEMwCBGwZs6JifqN2+exCPzKdR1wSj7YJQD4CQfOMkzLYyTNK5ecoNgIIjucsO84CQ/G/90wvT7IZPZA5utE65GHTRjYG84UgV9r6KpA46mDtjLdWyuI7C5Dlfrjr3ur/1sayCZo7C7jsDu6IDN3g1R7IDAd0MQfODFAIxSAAbZV0ZtkojIqUmiczpR9UKkTFQSuew5lMaGvt+8cRJz5wfAE1GSThQrp7WAyRtXJUrUiRpPFpFP3qWTJsh+CBQay+CZcfj0NtBnSmwmgd42Hwyit1q3cuy+StHLZJJcJlv0gRP84Hk/BAKnl/TdKPhhEP2oJ0he1EseZqCV/k8sK4ZL+pgcHhgEP3SijuClTUnks+cwXCaKJRN/C6LqRQ8IBrFiLaNK1b2VvEwnjsgjMNcXAuyG1iBSvJ4EYlA/P6Ye1X0gEAKovwf673G8DwLvhcB5WUnfmWIZWb6aRLEoMyVJRJ5OVB0fBm+6l6irxRIe+u2Y0DeqPFLk1KGP3PieuDzWqhhRo5ZpFCrEkIt7YGRhkULjGAhuGAXPKMhjJsOEOpxEsu8fY3/bIOiGVkd9Yu3tBi906+GPd4PnvTAK5NU+1IteVmeiF439XvEi1m/q+z2oQVSpWM765gUgyl0QBA94wQte9IAX3VNinIIryp5oMaTQsqI5JlOXywndMApdMIjjwQldoHM/BLzgxoMCJ7irv11pX73YBYJR7AQvdELguxh4nuqScgnkEd01YZy2b24YBB/qeUq2dI8aO0ZdZUS9eRpzHwlCFjshc26IRg8E3g1BIOImh65UUux06AZHHaJBmOQxmd3g+U4YuU4YqRwDjuvEPxJqt60bRp7QNa4fY6+b+Hnq/pEMD+o5nShKz7O5yg3vMKpEzXkkCInvhljvBV/nhdHggcHofiAwcmR9XtYQagx9f1Cy/7nk+FFniIKTOvHCphRSuXO4WqI3spWJ2vnGKTTNCYLnvODqQjA8HEJ9fRB1hgeJEOqN4VEYQqj/F6o6qDOE8bAxih8ZMixV37Aph0RuEFeGv8VQaUT3qJ1vHEfT3Hbw/H5whnYY6tpRb2hHnfHgA0U914567n2w0tiO+n+hqoM6YzvquEP4kbETRnk/fropgnjua1wuEVHf6ER1dJ3A6/+ewbZtCWxtS6NtSwZb2jLYsjWNzW06Xm5L4X6xmeRtTePlNsL9y/vnk0F6yWHL9hh27/8Y/Z9fxFCR3iJAk7IlPHTmqyK+PD2ML78klFh56tQwCCdPlXCCcLKIL+4TTM4DknW/bflHvf7EqSJOnLiC8wMlFIrX2Ky5Ptc3goeKxREUSyUUSwUUh6+iWBpCsTgehcIVFAqX7wsVmQ9C1v225R/1+mLpMq4WLqFQHEKpVESppE/IslXxQ4USdAxjqDDCwDINyjYqqNap1P3hZUXW6O/9cBn/7NdSGj5UKDC9V/7ZpSeQCP8PXbtbvZ5Hr2sAAAAASUVORK5CYII=;" vertex="1" parent="1">
          <mxGeometry x="180.47000000000003" y="375.25" width="39.78" height="40.53" as="geometry" />
        </mxCell>
        <mxCell id="mRYJI_ucZMOmYyPQ1O4j-21" value="Cloud &#xa;Formation" style="shape=image;verticalLabelPosition=bottom;labelBackgroundColor=none;verticalAlign=top;aspect=fixed;imageAspect=0;image=data:image/png,iVBORw0KGgoAAAANSUhEUgAAAGwAAABsCAYAAACPZlfNAAAgAElEQVR4Aey9939dxbm3zZ/wnud9nhPA3erd6pIrxaRjGxf13nu3MRDAdAgkdE4SWoDkpEEq4K7ee9vqvfcuWbZsXe/nnrW3JRtJFsEnOXmf88NXs/YqM7Pmmvuee2atvXXHyMQkotHxScb0GhmbYHh0nJHxiduoMUbG19LtLu921v0fnNfIGCOj4wyPjTM8McHwxKSScLpD/gioqbFJpkcmmRKNTjIzMsXs7dToBLO30u0s7184r+nBcWaGJxSH8fEpRiemGJ7UDOsOsazJkUnm+0eZa+/nUtsA822DzDf3c7mxn8sNt0GNfVxu7OVyY/cq6tGO346y/v+Qh7R7cx+zHQNMDowh0Aye8A6xrtnBcUZzq2l4/y/oXv8tja/+lqaX/5Pml35Fy4u3Q5/Q8uLH69DtKOtfN4/WF39F6wu/ov2FX9H6+h9o+2Mm/TUtTI5p1nXdJS50jzHz0UU6ol+n0+NZ+o88w+BDTzP80DP/o39wG4wdeoapg88x4PcyXS//jsH8GqbHNAsbmpjmjqHJSRY7x7jy9mlGPF9k/L5HmNt7kvldDzO/5+Rt0iPM73l0Hbpd5f1r5nN5z0kWdp/kqutJpr99iqEnPmYkp4rZiRlGJqZQwAYnJ7naNcr8m18ydOw5Ru95mJndx5l1T2N25+3ScWZ3rke3q7x/0Xzc05h3S2PBPpXJex9j4LEPGRZgk7OMjE8r3TEwNcmV7lFm3/mSXq/n6b//YUb2HWd0dxoju1P/R//ANhjdlcqkeypzTqmM7H+Mnsc/ZDC3ipmJGUbHp5Xu6BdgPaPM/sdpBaxv/8OM3HuCkb1pDO1J/R/9A9tgeHcqY7tSmXFNY/g7P6L7yQ8ZyK1kejmwwalJFrpHmXv7S/o8n2PgvhOMiYXtSUMy+B/9Y9tAAXNJY/jbP6LriQ/oz6lkenyaMTWOTXPHcmD9Hs8xKMD2Hmd8dxpiov8D7B/bBgJs2jWNwe/8iM5bAes79hx94g73HWdMD0ygfVON7EplZGfKf51WrONxRndpGtmVxnXtTGPkum5jvVasw9dvOwE26ZLCwHceo/PJNSxMBR3HnqXv3uO3HZgA/6bAhneloPQV8NIo4g1u1jJgekACUGCNuhuUyqj77elI37RTG643AOtfBmxmfJrxcQntp1mKEt/+kl49sOE90sDJjOxMZfgfKCnv5jINn4d2pTK4KxVJb6zTcYZ3HmdEwTjOqGwbJPt2HWd4VxrDO0WpjLinMupmUAqjbpqGd6bwzXVz3b7+59GdqUw4p9D/7UeVSxzIqWR2fIaJcS1SvKN/Wh8lvvUFfceepf8eaYBkhlwTGXZPYfB2aKc0dNotpTVqmmpgOV8aWixCtgeXaSkvqesJhtyPM+x+QmnE7QQi2adkuH5nqroXuadR1xTGlkmg3XyvQ+7aPklvSxusM58RtxQmnZIZeOBRuh7/gMFbAtv3zwO2BEKDJACXA+vflUb/rlQGlLWlMSSW5H6cEbc0RlyPM+p6Qq/jjLimqf3DblovH9yZyoBbsgZNrMpVkzTQsFsKN4P5ZwKbckxm8IFH6RZg2WtYWO+RZ+jfm8aw+222sHX2LkNPNjSWakz9tQM7U+jblULvrmR6dyfTv0vr+XKOWMu4SyrjLmnXNeks2xoUg/X0uScjUuBctVS2DZ8HXZMZ1mvINRn5LDKcs1ZqqPs3TZWFOSQxuP9fAFj/zhREctPSyDdreWMMuGvnCsj+ncn070y6QQM7k5BjSgLdLUU1voAQKDeDMMD5FwL2OWJhfTKzd09i0CXhKze1Vg/7psf6pffvXJJ8HlCWLtaerFzYiFiMk0hzgb270+i8P43G+5OouT+O6v2xVD8Qq9La/QnU70+m5b5Uuvelqghz0jmZKYdExp0SGXNJYtglkSGRaxKDbnoJTJckBgxyTaJ/HTLc/w2dSm+9hmO3SgfdtM40uS4Le/Nzuo88Te9eGZyTGHROUJVeT2W/8TluSfS6JdHjrql7p5b2uyUx5JLEkHMiI2IZblK3NPr3nKDvu48zHPgyk8d/wehPP2Pow3MM/iadwd9lMPi7TIZ+ncHIRxmM//QvTB5/l3HfFxj59iMKnFifdMoRVwGXyKhAc0tkwC0BKbNvHYBWu+flUFY7Z7X9A67a/U7YJzGw/xG6fvQ+A9kVq0SJemA9/wxgrkn0CbBl0ASg3MCYSzKjTklqHOm+J432hx6nO+lNxv7jb8z9IZPFjEpo6IHBaZiYh6krMH0Nxi/D0Bw09nMtu5ZLv8ti/Kd/ZDD+DRoOPUrTveIyk5h0TWbCWawsgR63eLrdk+iSjiPg3BLpdxWtz8oM5wk02RbwX0f9qnMmMb4jkf77T9Lx2Hv0Z1UwMza9Qlh/E7ABl3+ghekbRCCJBJ7c8LBLMhOuKYy4JdN9/wk6Y16n69XfMJJeBJOzMDUFM3MwM6tpUqBNw9xluDSvPzYHc7J9hWu9E0xfKKXp1d/QGPtTen74GGM7U5hwSWTAJZ5Ol1jadybSviuRzp2J9Lgn0OeWoG/0ZPpcReu3wF6XRL6O+lwSGRR3vSOBvvtO0vHoe/RnljMzOrUMmH61fmYZsAH3JPpdEr7SSww96L8qVbBctfFDjSOuifTujqfr+yfoinuN2YJmmF6AuUswOw3D41ztHGShdYCF5kEWqjtZKG1hoaGPhY5hFjqGuNoxyLXuYRaHp2BWrr0G84tQ1sHQ05/QceARencn0ucaT5dTDG3ucbTviqdzVwLd7gn0uomkI6XQo5SsrK93HdbzdWAZzl0C9vASsOUWJou/8jxs6o2/0Xn4Kbr3JNMvlXSKp8c5gW6XJfW4JvJfqS43Lf9hlxQVyXXsjqP2wXi6n3iTy009MH0JLl2FS0D3NNd+nUNv+I/p9nqarsNP0PHDR2n93sO0fO9h2g8+QseRH9Hj+zRjKe9w5Q8FMArMLWrWNz3HYv8kHT/7E6UPxDK0TyxNLCqGrp0xdO+Mpds9ji63BLpck+l0SaFD5JpMh0sSnc6JdDkl0u0Ur+mmtpJ2+3vaql/G6x3xdO87Tudj72nzsFWBHTlF155k5QZWArYc3n/FdpezdvP9Ton07Uyi66FHGHzpXa509LEobm92Dtr6mfg0i/rk1+g++hSD96Qx5p7MuEsSY04JjDrGK405xzPmEs+IWwKD96XSdexJGpJeo/GNX3O1b1yDP3uFy91jDP86ndYfnGBot1hSDH2u0fS5xdInY5prAh1OokQ6nJLUdqdTggbLUQPWJdBWALZSG3W5JLCW+pwSGLaLU5Ftx6PvMph90xi23MI6/g5gaxX+dY7JzfU6i6SR4uh4IJmeE29wubIBZmfh0gKXiusYeeNTusN+TPt3TtC+U9x2AgOOcQw6xNDvEEOfXoP2MfTbRzPgGEuvUwwd7nG07E+h0esJ2k99wHxWHQzMwPRVFjpGGfltFpXfSaB7ZwJDjvGMOMUzJMOC1MsxkT6HJPqVEuh3SKDPQfYnKOvqco6j2yX+Bm+0GqxOlwRWk7SXBiyWrr2pXAe2fAxbFZg03DJ3uNr2aoV/3f2Sf7+zuJF4Wu6JpzPxNaYuloMEEjMzLFS20vfir2g7+gR9eyUQSaLLMYYeF3HdcXQ7x2pBg2ss7a6xGnT7KHrkHAdNapzak0Tz/Sl0pv6M6S9KWOwehZkFLneN0frIW3R++2GGnJIYdtQ6Q497Ir3uyUr9asKdpAKDfod4+hw0j9Dl9I8ENqmNYZOv/5X2w0/SsTtJNVq3Uyziom6WMn0FU4DGr2neX8/C4ul3jEXGrUavR+n/5LQK0RcnprhU28L4T39H65EnaHePZ0h6v30s3Tsi6XaKUbC6XGLpcI1TQUOrexyd7gm0O0bT7RhDr2OssjzJv9c5Tt1f7d442lPfYOZiBUxfYXFylvmMcnqCXqR3bzKdO+No3hdP/X0J6O6Lp25/Ao37k2i5RyLIBPqdEhhwSKTbUYKVBLqcNWntk6C5SHGTyyTnrNmRnddhYfKamwQdY6/9mZaDj9O6M4FO6a0O0XQ4xtLuFKtS2e50ikP8tZKzAI2lW+DdBvU4xdJvH0XbvQl0PflzJouqYfYSV3tH6H71E9qPPUnfrlT6xQ05xNJpH0XHjgg67SPocoik0zGKdudoWlxiaHGJpc0lVt2H5CvAJJX6qjq7xNG6M1atjnQ+/zGXm/q10F+eO73+O1o9HqbhUAr1wU9RHfcSJbHPUBb/PJVJL1MT/jxtHk8ysP8kvc5JdAo0p2Q6HRPoNLTNKqkc73BeXZ3O8fQ6xjNkq7nE9kd+wYDMw5a7xK8Ac4+n0zlm3cC6HGPpcvjm6nGIpt8+ks4Hkpn81XkYmoKxWearuig99jCde5IZkvmJTQwddtG020fT6RBFj0OkUrdjFB1OMbQ6x14H1uGiB6SHJZ8N+zpdZFyLoul7iXS99CFMzMD8ZWgZovqJN+h87mdcy6qGwUtqnGNcJuXXoHMKPi9j4sQvqH0ghZbdKXS5JSsLkw7d6bisU98Ebj3AehxiGZR73JNC2yO/oD+rnKmVgE289hfNwgSYDNIOUTdYWKdjDJr0FRLrcopFCrgd6rWPps8ugr77k5h59Q9Q283Vsk4mjv+CpntT1HjaZxdLr20M3eIOneLoUXWIpsdJXF+0ql+bHliraywisbR2sTY9vOtWJhbtLC44ns7IF7l0vgiuLMLEJa40tLHQIdOIWbiyAJf1mr+iTQkmZrjWOczM2TIavR6hYXeUsuwO5zhlZZ3KTUrYb/BGccqyxXMZOs2NlhaneTJ9ew5YR9OxO5nWkz+/NbAW9zjVUzvsY+hwlIyk18SqAb7LIUZZk5iuNEaLWyxtrvG0i1yW1KFWDeKRdPn+1ba188XlRtKxL55G70eoTXqexvgf03ngUdp2JdHpnkinayIdLgmqvDa3eGSsanWNpsMlmk6naFXvNqdYZWUGYAZoBssSYAqekzauiaXV/SCF+qd+pi1pXboCc3MwP6/gXBseZ762jdnyRq619sHotBa1zk5xbXiMmeImanweoWFvHNIuXY4JdDjG0yHuzzFOG07EAKR+ztHKbbc7xyhAMtwsV8cyYO3rBuYmhcTQsSOGdgUsXkHqlkhrRzTdO6JpdY6hdk8clfviqLongep9icuUQO2+eOr2xlO7N56affFUr0O1+2LR7YlBd388pd+LpeBALCU/jKdqfwI1e+LR7UtQqt2bQM2+RFVu5T1x1OyLoWlXDK1uMcqSpJcrK5PxTI1pUbS6RNHmLC4zinYnbVvSLqdo2t1i0N0XR03089Ar04fLcPkyzC8wUdZIy49/SfeP3qc77R0GH/8lg6/+gemMChibUlAX5y4z+sFfaD36JB3OSXTvSKTdMZ42p3jaHGL0iqLdIYp2xyjapHyRY/RXpIIk+2j6raNZDmx6LZfYsgxYq4NYWDydDrEIsG77KCQa6/z+SXoT36Iz9U06U9+mK/UdTWla2pPyNj3Jb9OdIsdEb91S3alv0pP8Bj1pb9P18Nt0nHybzoffpivlDboSX6cn5S26k9+kO/ktulLeoTNV9BY9KW8wkPgWrQ89TuOueNoEmH00LY5RmpwiaNGr1SkC0fLPzW5R1O2NRnf0JKO/ushVCfN7R5nOqab16feouj+Wtr0pdKgpRxLt+0/QlvYOQ2cKNWhXL0NzL11xb6nVkF7bBNrt42lxiqPFIVqpVYIp+0jaHCJpE2irSIB22UfRbxW1DNgqQcfE69oY1uwWS4dDNO120bTYxyLQBJiMX83OUWq1fOKVz+BiLeRUQ65uSXk6EGXrlSPHaiG3Zn3KrtLON+Qj12ZXQ2Yl5NRo29k1IPnm1EF2LWTJ/joGX/2UJo9TtIjLs4mk1SGSZkdRxKpqdAynwSmcepcIandF0nj4JJOfpDPz63Q6El9Fd5+Mg1F020XTax7FgEWUilCr98ZTl/QqV8uaQIDNXqX3kQ/pcU+l3yaOjh2xtDjE0uQYTbNDNK0OfwewXYYxbBVgMg9rOfAjmmXiKQXYRdG8I0ZB69wRR6tTLJW7o2l56iMYvqYGZy5duu7rlc+/PA8iWSkXyThw+RJcljFhHZqRlfZZmJd89bo0B7MSwck64pw+7wVtTXFOHwRIUNA+zMgrn9HsFs+gbQwd9pG0KGAGcKulUTQ7RNKwI0wFKK0742neGUeTSzRNTnIsika7SJqsI2ixDqfZNoJm5xi6jjzB9M/+rE0Hpi8zeOpj+vYep982VgVFMjYJMFGLQxStX8PC+iwj1bitBR23ANbkEkO7ZG4XQZNdJK12MXTZxtLsGEPZ/fE0vfKfWngrMK4KmMswrdeM9LZlnw37JZ1ah8ZntY5w87kTElobrl/Qyp++qj1GuXIZFqXceUZ+eZ7mnQkMWkWvA1g0TfZRNIu7krFmRzSd1pEMWEXTbxlNj+RhG0OrWIpTnFKLTBvso2mzjVABV3viazAt4f4s4z/7C53HTtG0O57GnXG0uicod9i+Q+oSpbXpOl3iLYHJ143GX/8LjQceo8ElmrYdEVql7CJptomiw1p6SywlD8TT8NNfq3mJLMZOFNfQ9PgvaAl8kTaf52j0e5bGgOdp9r9Jfs/TovQCLX4ryPcFmn2fp8n7OZp9nlfbkjZ5P68+N3o9S7PvC7T4PE+774t0BL1MfcSPyYl/jsutAyhLn77E6IfnaHaJo98snM4dN1tYFM3iohyjaTTIIZpGhxia7TW12MXQbhtDp00sHTZxtNrFKi/TaB9Ng300jfZRtNhF0mkbSbtM0CNf0jri3AxXi3U0PPMLsj2PU/DDJMp3ifuMZsAqkm7LMNqsw2ixDadlRzjNa6jdNpyvDaxVgNmI+WvAOq3iaHKIo/iBeOpe+5Vae1ucnmH6YiltPs/S5xDHoHU0XbbRdNrH0L0jhh67WHrs4m6heHrsEuixi6fbNp5umziVXv9sG0+P7LeOpc9WJs1x9FvLikgCLbsSyPl+HJdr+5R1SU8f/fA8LS5xDJpG0iEu3SGSJocIvWQ7SqnBIQpNGrAm+xgMapFhwC6WVrs4lTbtiKFxRzQNO6JplE5gG0m3bRS9bvH0RP0EhvUPUOVL5DWtDOVUMXK6hOFXPqP1gVS6ZbJuG0GrdSgtNqG02IXTtGNlCch2m28ArMkmQllYp2UczQ7xClj9a5/A7BUWZ2aYTi+l9dgpeq0iGTAJpdM8lHarMDqswui0jKDLYknyuWOZ5HOnZSSdllFKHRZRiLoso+myilFpp4Uci6bTLJIeyxh6zKPoMY2gxzKKZpdYcr8Ty+UaWVbSXPHoRxdodY1n0CyKDltxdwZYhlSgRdKoFIVYTpN9NM03S6BJ4LBDs7Bmu2hEMkQoC7OJpMcxmh7PU1w9UwZ9EzApryZcARkWJua4puth9KPzdEX/hOb7kmh1jKDdLvxrA1NLU8ufhw3pv4G53CWKhbXahNMoA6yNNFocLfbxlO6Pp+HVj9U4tTg7w3hmKfWej9NqE0a7WRANlkHU2QRTbxNMg3UIjVahNFmFqrTBOpT6ZZLPDdZhNFiHUy+y0dRgF0mjXRSS1ttG0GAbqc5pso2iySaSZssIWmyjqN0ZS+b34pjXiUu8DHNXGP34Ai1uCQyYy/izEjADOEkjr49hMo7dqGiadyypxTYakQBrtotU3kdcV9u9ifQlvkrfR2fo+VMWg+klzDa0weSUfm1ynvEvC+lNe5uO7x6n1VmuD6PFLky5RbG0xmVqsgtXefdaRKigo0WtdFRgeLdevtSnvuMsY9jY63+h4cBj1LtEcSOwSLosY1W0WLo/loaf/lK5IAMwnfcTNEtBFiEKUoNdGA02ITRba2qxDqHFShRKi1UYzctlHU6TdTgNAss2HN2OCOocIqlzjNJS2RbtiFAuTFxSs7g6x1g1mU7/QQLzukH1rEwe/498dIFG13j6zSJptxEgETSuoaYdkaxHzQJfOoweWItNOG224TQ7R1PiHkbuvjDSvx1JUeBjdL3+n1zOr4WeEc3aphdYuFDJwIn/oGF/Ii32YXTYhNAq19uF02AXQb1dBHUqDaPFJoweiwhadibS/PDP6MuquP79MAVMvuMsq/Wjr/2Zugcfpc5Zwvlwmm2k4cNotNbcW7N9JEX3R6D7yft6YLOMZ5VS73uKZrsIOszDaLOJoFOiIstwui3C6RGZh9NnFs6AaTj9ppH0mmkS19ZrLgNyFK1WkbTYRKkxosE+kvplElhyQ6IGZfGRNNvHUr0rgYvfT2S+dlh7T2PmKkO/vEi9a7xym83WYdTbhlG3hur19yj3ebOWX2so31CHJgkebDUraXSKpN45kgb3WHS7Yqm7L4kev+e5+vPTLPROsqiPbifTy+lMfpU2t0j6zAPptA5TU4R6u0h0O6LQ7YhU99hsE0GXZQSNbnHUp71NT2bZdWDq2ysGYCNrAguj2T58CdjMJRZnZ5nMKqXO6xQtOyJptwinyTaCJjdZYpLlI732JlC3J4GGXZpku0Ypntrd8ejc49C5xtDgEku9mg9FKnBiTQ36mzA0mAFY645YanclkP49ATYIcwvqBZuhjy5SJ8GAWQTfBNhyWDq7MGXh0nEMnadBAgdxa7bhtNpFIqG7LDS02Ypk6SuOpgOPUpz2E2ab++DyVRYn5hj5fTrV90TQ4xCqhpFW2ygabKOptYui1i6SOtsIzUDMw2h0XQ2Y/iWcm4E12Wg9VLOwMJodVgbW4P2U6imtlmE0702mN/5tZjObmCloYqaoiZnCRmYL6pnLr1Oaza9jplDHTFEdMwX1zGboGP1lOgX3RlDpEqGsS2CtBEzG1FbrSNp2xFC3M47078cwX9ujTajnLjH48Tl0bnF0mWvAllvNcghrWZ3hmIAS1e4Io9Y+4ro0cOHUi+u3C1OdVMa1BusIGmwiabQRTxCOzj2Wku8nM/unAugbU2PaQnULQ6d+TpGbP43OEsBE02QTRZ1NFDrbSHQyZtuE0XkzsImZG78yKy7xRmARNNmEU2erjS/i4lYF5nVKm/1bhdF4fyr9T34MIzKpvQrz8oaTvFomQYG8Hzir6dKstvoh72oMTTOdVUf6/jBK3cKpc4hY1cLEgtusI2m3i0G3M4aLP4hivq4T5qfg0gyDn5yh1j32OjBxeQLq68AygDKkAkzGVoMMwOp2hOmhRahxqNY2/LqV1ElwZR+Jzi2KxsiXmJYxTR7VDE8webaY8/cFUeMWqdq40SqCeusIdDYR1NpKECbR9k0WthKwoVf/SO0PT1LrFEGjujCcOuktNhG0W4bTpHeJdTKGzcyzODfLVFYZDZ6naLYORyyscW8SXQlvQVE7C1XtXBVVtnGtspXFyiYWKxuVrlU2slDVwEJZHVezq5n68CzZ94ZT5hyOzj6cejVuhVNnF45umSQ4UcDsY6jZFc25H0Yw39AOlyfg0hSDn5ym1i2GTrNwFZnqbEKpXad0tmF8RXork3rcqDDqlKsUS9NcZa1dBLUyFsl4ax2qgikJIEr2RNL7wV+50tWvouuJ2g7OHYikyi2SRutQGi3DqLMOp9YmDKmvRNadZqE0uMZSn/aWNobdAEwfdAz+9FNqvn+CKocw6mxCqLMKRacPudstwmiwD6Pw/gjqfvqBFnTMzTGVrQdmFUabWSiNTtE0HXiM0Sc+ou/pjxh46iOGnvyI4Sc/YuTJDxl58gOl4VMf0P/ke/T/6BcMHX+HvpCXKN0ZQZV9GLW2oehstYausQlhuepUtBmulpGq3aM4+71w5nUdMDMJU9MMvv8FNfJMzSSMBssQaqzXLwNYaTSxkDqxTr2kXIN01iHquGa9epBigRI8iGwjqLcJpckilA7zYKpdw2l+7E0mimqU15mq7yTLJ4WqnVEqsGu0CqPWOpwaGwEXSrNFKF2moWpMr0t9k+6M0huDDpmHiUtcC1jbGsDqvU7RJBGPcRA6qxCqnaMocomgwDWCQpcIip1F4RS7hH1VzqGUOoVS6RhGzQ5pKH3DWIZQZxn8FdVbBNNoGkKTRTg6xwhy94Yx80UllyvauVzaTt+zv0EnLsUkjCYLLS+pk8jQ4Kul2rxQ5oahNKi5Y5gKXJqtQmkwD16SRTD1FiHUW4YoS1JgbWX4iKDWRrMUaXgpv8s8hHrXCKoin2HgXL56a3mmvouSyCeo3hODRJv1VmFUW4dRJZ7AKoRG8xA6TQRYDAKsJ6OU2ZsnzqsBk4x0lmG0modSvyOUwvvCv2JhEiU22oTRZBJErXkQ0gObLENptgxVqWw3WmqNIA0h+1stQmmT9TWrcNosw2m1CKPdKoIOSWW1ZA21mYbSbhpOpzwzso1UDyvr98TTuDdRPVHoMAun2ziMVrMQWszXVrN5CE0iixBVL6mbqEVfv3bLsK/Uqc1CswK5rlEPTu6rXtpKrEU8k1WIsvAW00B0rhGUBz9O3+fZajVkRtdJcfxTlN8Tq9xqjXUoFUohVFsFU28eTLtJCPV/L7BaqzB1A6sBq/V8QvUUBVVciUxyHaOod4xC5xxF7Q2KQOcUQb1jBI1OUTQ6RlLvoH2W/TJ+1jhHUKPfls8Gyf5q/TGdUyQNzjE0yeq5awItO5Nock9Q+6TceqdIal001bhEsqJcI6lyjaLKNVqlNa6RKNmHUmcbQpN1KK0yyZdJvaO+Xi7h1IicwqlR7luzNAEnliud1eCG6yylswRR5xpFefApej/PV08ZpnRdZIf/iNI90cr111gtAauyCqbOIph205WBqXmYcoldowz85FOqvn+CSgcZu4LRWQrxUGqk10mF7ELIvy9Mmzjrg47JrDJqjz1Jo1U4LSZS4XBq9ibS6P88lSHPUR76HBWhz1IR8iyVIc9QGfK0UlXI09SGPkNN8FNUBZ2iKuQpKoNPURn6NBVhT6u0KvRplqsyTI49RVXYKWrCntKuD3mOmpAXqAl9geqw56kKfYbK0FNUhj1JResKU4oAACAASURBVNipNVUe9jRl4c9SGv4cZeHPUC75hjxJa8CTVNwbRZV9MA0Ssd6bTEPgKcpVno9TFfo49cFPUHf0YUp3anM0cdU6y2BlIVXWwYjkc4tpCDrXWMojX6LvXClMw5Suh5yQxyndFU2ttbRvCJXWoVRah1y/rtU0GJ1LDDqDS9T/isBXgFV+7zgV9qHU6oFVGYCZh6CzCyHvvjBqVZS4NHHWeZyiwSKcZqMQ6u2iaPR4hrG/ljN4royB82UMnCtl8FwJg2dFxQyeLVIaOl/MkGyfKdD2nSlk8Hyxkjp2rpghg/T7By8UMXShkGGRXH9e8i5j8GwZg+dFcn0Bg+fz9KlsiwoZPHejBs4XM3C+lH6p4/kSBs4XMHw6j6m/FVLi9whFTgE07oqjJ/ynjH1eyIDKM5ehszmMnc6j963fU/7DBGodI9SYVmMZTKV1MBUCzCoYnUUIrWbhVMkD4VMfM13eDnMwWdPNxWMnqNgdqy3HWYYi7WwAVqtAB1PrHP31gNVaBFNlqVmY+Otau+AVgdV5Pq2AtRiFqGdLHeGvwSBLDxmn5IHjFW01W1LDw8kZ/bY8nJyUFW79l/HUOXJML1kBN0hWwmfku16Syv6rWjmT12BKtuWaSzA1B1Pz2sNFecColof0dZgw1EXqtaiXXDsPY3MwfIXS+OcpcPan+Z5ERh/9UO1T5cqXMaZmYWyeiQvlVHukUeMURoNVMDVWGjBp+GrLEHQWEniEUewazfAvL7LYJ0/TYaKig7PfjaVqZ6w2wdYDq7AOodIqGGn3FpO/B5j0GMsQqixCaDQLpsY2iNz7Qr9qYQpYhLIwecjX6vcCU/ltTJQ3M1HRyGR5A5Nl9UyU1zNRsUyVDUxU1DFRpmOiXEvlPHW+XFOxpAk597rqmaxqYLKykcmKJibLm5gsM0jKqmOiXPLUyhyvqGe8ooGJ8kYmSxuZLNGn6ppWJsvamCxrZrKsgaliHbNFzZSFPEGxkx9Nu6PpjXmV6cImxqsamaiqZ7KinqnSRgY+OUPVoURqnIOpswqgxiqIaqsQNYQILLEwmZJUPHiC8QtV6hW6xeFLjJ+p5Py+cCqcI6kVuBbBVFiGUG4VTIVVEDXmQTRLAKcs7A0tSlzZJf4Bg0ussQ6m2jKYcqsQBa1+NWCZpdQce5I6Waw0krA0jKp98ZR4P0J2wElyAk6Q559Gnn8quQGpZC9TbtBxcgLTyPJPIScglRz/VAoD0igMOE5BwHHyA9PICzxOXmAaOUHLdZy8oBPkBz5MfsAJ8v2PU+B3nEL/ExT4H9fK0pcn+WcGHlfKkXx9j1Poq52f7/cw+X4nyfN7hDy/k+T7HafYNw2d9wmKdgdTZuurvEr13mhKvU6Q5Z9GVkAqeX6plPocp/JQEmW7Q6i1D6LGxJta8wDqJHI0lQ6uwSraE8ns23+Bpj7lWa6UtdD/yM/Jcgik0jFCWVSlhWYYlZYCTg/MOEjNJ2tT3qBXwvqVgPW98gcqvptGmb0EG0FUmQdRJvRl3mEWRLVtINn3BFP9ynv6ifMs4xeLqD76BHWyvGIcQrlpEBU2oVQ5RlLpGEmVQyTVjhFUOYZTeZOqnSOpcoqgwiFMHZO0xjkSnWs06pizrC1GqtWPUpdwSlzDKXbV0nIV0UWhsw+l3kHefIqkwTWKWpcIyp1CKHEIptQphEq3CMrdIqhwi6DKNYIax1BqHUThekVSI3VU9Qyn2jGcartQqq2DqTELotY0iFrLEHWuHJN7kHupsZfJfTB11sHUmQfQZBFEg2kgjdsDaN3iR6tRIFXOEXz6vTDGy5u0Z2Oy+PtZDqX3xqq5YrlVEGWWgVRaBFFtEUSVyDIInXkQjdv9VbvpUt6gL6OMuYnZpa/Myo/YX+kaZU1gpnpg+wTYu6oCsjQ1drGIqqM/ok6WV4yCqTANpto6nDrrSOqsItUamXo4qfbJ/iXJg0k5prOUCXO4ss4a6zAVmeqsQqkTt2IWTJ1ZCDrpseJiRLLPVOZN4bRYh9HqFE2DewwNu+Kpd4pGZx5MnUkgDeah6EyCqDMLRlYTGqVsy1Dql8tCypG5ptRD6hBOjV6VlqFUWIRSbSkrERGqU0rHVJ3TSia8shoSQrVdsFKVVQC1tkHU7QhB5xZJfdDTDBfVc1Xe2Z+dZzKvmpaH31JTkyazYCrMAyizClRWpWAtA9awTQ8s+XX6M8qYF2Bj+t+a+qbAKg8/hk4m1kbBVJoFU74jggL7UHIdQ8h1CibXMYg8pRDyHZdU4BRGvkMoufbB5DmEkOUQQqZzKFlOIRTah1JqHUS5qT/VpgHUmARQZaapViCYhlBtHUqRSxhj75xn8jc5TPw+n86096mQNbntAehMAqk20a6XyWzVjnCKHELJc7xZYeQ5hivlOoaT7xJJvmsUOc4RZDuFa6lzODmy7RRBnlMk+Y4RFDqFU+QWRu7OYDJ3B3HR3Z/zewMp8Eil7bl3mcysYFF9xXcB6nvo+8lvqfheCjV2oehMAyg391fAxNLEFRokiw8CrMohAt0yYJMGYEM3WFgqZTu0GbfmEoM0l2gaRJVtIFn3BFOlXOJltfgrFlZx6FFqzUKp3x6E+OHyvQm0JrxBY+prNKW+SlPqT2lKeZXmlNdpTnnjulpS36Q5+Q2akl5T+xqSX0d3/A0akl+jNeplan6YRo61D6XmvlSY+lFm7keZmR9VAtAihFLHcM7cF858VR+MzyHfLul9/yxFjhHUGgUo0BUWAZRZB1K/L5EO3+doS3idxpSb9QaNyW/SpFdr6tu0pr5Ds3xOeoPGlDeoSxW9SV3qWzSkvEVz8lu0idLepOnkazT+5CPqX/0Y3X/8hrbPzjBZVadFsnOXmalqof/Nz9Ade5xSe4kJpCP6UWruR7lVIALMIEPQUb/Nj0qHcGqSX1dj2KXlv+Y2NDmld4m/p/y7qZTaaZlWmAVQah5ImVmg6q2VNoFk3BNE5cvvqsoszs4xfrGY8oceo8YshLrtgVTahKI79iRkN7BYVA/FOigS1YH63ADFBjVCYT0UaMcWC+tYKNZxNb+axdNFdDz2NuccPSi08qbCzFcDZu5PpUkA1eYhFLtE8NfvhHFJ16W95jY7T88vT1PgFK6AVZn6U2YdQIFjEG2Bz3P53TMsZuu4WrCyrhXUsZhfx6KkorxaruXVcLWglitFOq4U1nGlsJ6rhfUsFjaAUh3XSuWrt2MwMgmTl/SPki6zOH6JuZImOl74mNIfplJkF0S5hb+yrBJTX0rMfCm3DFAqswxAVG4RQLVZALptfpTLeJnymlr8laBjXP+7v3cMTU5zuWuUnpd/T+l30yi2DabUzJ9SYz9KzQIpNvaj2siPcusA0vcGUvHSz9W8ZnHmEhPpJVQefZxqixB02wKokreUYl6FUXkjVyTPweQ3M+TLBVfg8jLJZ/n9DJnbqDeF5U1f2Z6DoXGa3/sdf3E/QqGdD9UWAapnVlkEU20SRLVpMIUOwfzlgWAuyY+qyM9AzFyh64PT5NkHU2fkT5WxD6XWAWQ4B9L28H9AQZM219J/K+X628mGN5RVHeTFWPlChNRD3kCegyuXQF5WNUi+KHHlyk2St7bmuDYywZXeYWZbBxnLaqAj+ieU74mj2CqQUlM/yk19KTf1odRsZZWZ+VBp4kPtdl9KHcOoSHmNzowS9SPN4/JT6PIDl4MK2Dg9L39KybfTKFLAAig19qfENIhicS9GAZRbB5K+J5iKl35xA7CKo4+qiWKDLKfIq83hP2Gxe57FEb2G51kUjc6zOGbQJRZHL7E4NMfi0AyLI3MsDs+wOD7L4vgci73jtPz8d3zhcoRCGx8qxdItginXA5PAo8g+mL/sD+ZSfY8a1OV7yl3vnyZ/RzD1xv7UmvlTbhtIur0fLSlvsZjTyOLQLItjsyyOLNPoLIvLNTLN4tg0i6P6dEJfJ6nXdV1icXz+RrUPMplZRsd7f6Qw8UU+dfOl3DmCKhM/aoxlLPWnwmR9wKq3+VDsEEZ58qt0ZJQwNTHNuoCVmgZRugawqYslVB15lGrzQGq2+apeVOwYRvmDJyk+9Cilhx6l7OCjlB/U0jL5rN9XdfAxqn74KJU/OEnFgUcoOXCSwoMnKHgwldLvJ1G2L4LiHb4UWYilB1BkHkSJeRAVYmG3AKYz8qN42zFKzH0otvKj2CmU0vviKT1wnJKDx6l48DhVP9TS8gePU3ZgSaUPplF6IA0tPU7ZoROUHTp5XaUHH6ZEr+IDJxAV6dOS76dSvD+Rwl1R5NoFUqRcYIDqcBXSgUx9V7UusTqDhd0MbHpy5vYBqzz8iOZ3t/tRYeJHqYkvVSYB1BgHojMKVGObjG83q9EomIZtQdRtlWNB1GwPpNo4kAojX6qNfag18VFphbE/ZSaBFJsGKFUYBypgSy6xV3uff2aB7g/OUCAuUbyDkSdl5r6UmfpQZuJNhakPlaa+VJv4ojP2RWekqdZILGBJ1ap8f6qN/Kk29qfGNPAGVZkGIqo2W1KVWSDlJv4qVFeBjpk/ZWb+lJhJZ/PXyw81dpl6rwrNAKxqqzfFDqHXLWwVYH+g5NupFNoEUSKFGflTYhJIyXZ/qrb7q4hGc4nvai5xdp7piyVUPPSICrlrt/tRbuRL+XYfajf50rDBl8a7fGgW3elDk+guH7Wv4W4f6jf4UbfBH91Gf3SbAqjZ4Idugy91G3xo2Cjyon6jN/VbAqjZGqA6Q7mJn9aIZsEUOATzp/1BWtAhX8CYvaqAiUvUbfWl3MhLwSo19kJUbuxNxXZvKrd5U6VX9VYfblbVVl+qt/pRtdVfk4zNelVuC0BpewCVN6lsux9lMu6b+FFi7KulElyY+lJk5kuhmaQ+lJh5U2K6skpNvakw9mYJ2Gt0ZJZgADY6ObM0hnX/+A8UP5BKgY30Zj9KjPxuAFZmFaDGsMofS5R4hUUBll56HZhyiVJRgW0ilfenXAZ/FQAEUGksjR5AmWkApaYBFBr7UWjkR6mRPxXb/Snb4kupdAzTQCrNAqk08aNKfL9JMOVGAZRZ+FJm4UOVqZ9ywfn2QXx2XwCXauQVAQle9MDsgqjZJHA0UMUmXhSZeFFo4k2RiQ+FJj4UmGqSzyXGN0nu28ifYuOAG1RkLHVeRSYBFJj4U2DqR75ehSZ+FJv6KhWY+ZJv7kuBuOg1gAlI6ViVW/QWJkFHZuktgFkvAyaV1luYBiyIm4GVHzpJpak/Ndt8KLXwp9g9kopjj1Hs/QSl3qeo8D5Fpc9TVPg8RZnvU5T6SXqKUs8nyP92spo0l8gYJSHtg49S6f0U5b6nKPd5ggrPJ6j2OEWlTB08HqVgTwiFlt6UmweQuyOAz+71Z666Xf8zRHpgtoFUb/KifLsXS7C8KDAVeZNn5k2OmTe5Zt7km2oABdySfCk08b9BAiPfdGXlmfqTayby08uXXAGkhyXQxLoEWqHZ+oBVbPFSk/zyZAG2poWlkG8dQLGY9XY/FSEWbfWjcpsfpZb+pO8RYO9pFjZzCQk6yg49TLmxLzXbvCmzC6TC6zHIr2OitI7xEh3jhTVM5Fcxnl/NWEE1I4XVTOZVcqW4ic43PyXvuwmU2gRQ7BbG/G+zmc6rZLSokpGCCsbyK5kprOVKdhWLpU0URD/BOdtjFFn6K2Cf3uO3IrDKzZp1iWUJNAO4AmNP8k08yTXVVKC3umJjH5aryMSXIhO/GyTWs5ryTP1QMvMlz8xHKV/gLIOmbfus6g4NblK57s2eFNqHUKaPEtdwiasDK7Hy58LeICpeXgIm87DSQw9TauRD9TZvyh1DqQx/DiQ0vjTL4rxoRtuem2Px0jyL8/Msym8cTl6h47fnyT+QRJVDMEW7wpiv6WHx0iUWr15icWGOxSuXWJSfXZi5BOMz5J18gdMOxyi08lsCViMWNqdecOl+7zR5NgFUbPJQkApNNXdYYuxFsbEXy4HlmXhed5PLYd28vRK85TCXIPped7UGl2sAVmLiy3pVZuJLxSrA5P+vXJ+HyRhWtD+FPKsApJLFRn4UGQVQKMsk2/wQYGd3BVD64s+1rxtNy0pHEcUH0ije7kXVVi8q7IPRhT0HY/LyqP7rrDI5Vl8HugozizC7qP/F0EX6f32R8u8nUGblTbFrMPM6+a6XTLLlGv118hq2PIAcnaco+QUuWB+l2MKfPPtA/rg/kEv13RrQ6QWWAysy8kYsSFRo7E2BsTf5Jt7kmi5JPhuOyzk3S64pkDHP2HdV5Rv7oiTnSX76siS9OT/tsw+Fxr6rqsTIm/KbgMm/o7r+jwYME2cBVrg/mTwr/yVgMsjKMsk2P4oVMH9KXvjZDcBKDp1ACpFeIVCLvxNP8Y/eIu/p18l75lXyn36Vgqdep+DUW+Sfeofcp96h4Ml3KHnsHQr9H6fATR4zeFNg601p8ssUyrlPv0bhU69R8NRr5J16jYLHX6Xy0dfI/HYk2eYelJgvAyYrHbPyFHqB7vfPkGcbiLhEAaaA3AQrZxmwPBPtHDlvTRmgrJkK2BuBrfQ539hHA7xCXtIxSrb7ULHJk6IdIZQnvapWOtYElmvpT5GxL8XbJYrzV8DKBJilP2d23gTsQiFlD52kVJaBNnmQb+xFjp0fZ118+dzNmy/cvPjSzZvTrj586erLF25+/M3djy9c/Tjn7E+6nQ85Fp6UmnuTZ3qMdCdfzrj5ctpdS9W2qy+nXXxId/Qh08qDfCNPFTbn2PrxqQQduk7NwhSw0+Qql+h5AzCBIXByTLzJ1qe5+n1rgjKAXKFxr1uW/liB8XqArQ5L8tOA+SqXXmQXTHniT+lML1H/8G1FCyu4P4lcSz+KZBDe7keBkT8FW30p26qtOJzZ6UfJi2JhCyxOzTJ2vpDigycoNvameONRcrYcRTWEhY8KYyU6MkRI+eY+5Fp4X5d8zjf1It/YgyJjL/K3e2jnmvtTaC4rGwEUmwdQYhGoVGjmT6HUa4s3Jdt8yLLx5ff3+DJ3fQy7Qtd7X5Jr7a/dsFiYuEG98oy9yDb2JMvEkxxjTbLvvyOw8o0eCLAyBaz4FsAsNGBF233J3+5H/hYfSrf4UGjuxxn3G4GNXCgk/8FUCo28NGCbj5K31YuCrd4UbfGlZJMvpZt8KdnsQ5Ha70HBVr22SOpJ4Xav65Jzirf4ULzZR11TttmXqs3aBLZkqx8l2/wo26LNkzJt/fj9vX7M1co8TBZ/l49hWr4KiJEXkuYae5Jt5EGmsYdKZTvXWDsmx1eXN3nGPreUdIwCFdhIcLOy5Jy18so3EkPxQYAV2gZRlrCGhXW99Hvy70skx8KXAiNvCrf5kLvVmxzxp5s8yTMV9+Z7g4UJsMKDqcpCSjYdI3+rB7lGPmRv9SV7qz95m/0p2ORP/hY/crf5kLPdSylvmxei/G0Cd0nX9+v3FW3xomyDp1LhZk/yt0hdvCje5kOGtQ+/3efLXFWHNg+Txd/3TpNj5UfZXUdVJ7gOzGhlYDnbPViftHob6r9Smrvdk7ztHmtKzlnpWsO+XOm8W70o3+BJnmUgJXGvrO4SvwkwcYmlm6RBvcg18iNjuy9ZW/3J2eJPrmirP9nb/cje7quUs92X3G2+5Cn5KHgCS1XcSFJP8rZ5ULjVg+JNx5Tytxwjb4sHhZu8KNrmS4a1H7/d53cjsHe/JMdSgB2hYJsHufoGlDR7uwdZ24+RYXRMpbIt+/4vBJamJp0aME9lYZkyxohFbRUr9SFnmy8CyQDKAEvS7O0+ZBl5KWUbeaFJeqKHgiagRDlbj5Er7lQiQAFm5cdv9xqAyU8vXKHr3S/IsfS9AZjA+lcG1pVRwuzyl3AMYf26LMzdl2IVdFxRQYfmEjVgJeI2t3iSY+RD1nYvpWyxmq1e5G7zvg5MsyrNwgRglpEPGcZeSlnGXhiUbeRJtriQbR5K2Sr1pGCzJ0XKJfouc4kC7PINwPK3HiNn2zFyt2lp9nbNsv5ZFqZ1nFu7RBkiZBjItQqkOP4VFLBJeWtK/2+BB6emme8ao+PF35J7bwJZZt7kbfcif6sXOVu8yN7kScEmT3LMvPibuw9FL/yHfh42y8jFQvX8qnC7RIkeZG/xUJaSud0TUdY2T7K3eipoOdsFmrcGTwBu8yZ7mzeZ27xI3+6plGnsjShDZORFhn6/pCLJL18mlXKNtTe/2efDXFW7/j9AGIBpY1je1mNkCyw9ONn++1zi2o1sGH/EjYtXMFj0zanmem+Rl4zrW70o3eBJtixgxP9Em4fJ87DxKUbHp+RfKmrAWl/4T7L2xZEuYa+4n82e5Gz2InOjB3mbPMg08+TPbt4UPP/OdWCjF4vI+0GKCgYK7zpK5sYjpG/1IH2rp1LmFk+yNnuSvUXAeVxXloDdcoyszcfI2HyM9C2aMox8SDfy4eJ2by5s8+T8Vk/Ob/NU2/I5Y6tWF4kuL1p58eu9XsxVtWn/xmP2Ml3viUv0o+xOGe+WAdt6jKyVgG3zIFs61X8jiZcq2eBBtmUARXE/oV2+0Dcp/xZ4ipHxSQ3YXPcY14GZSuOuDiz/BQF2mcVpeZG0hLzvpZIvVvitw2TedZh0AbDZQylzkwfZGz3I2ehB7qZj15Ujc7aNR8naqEHO2nQUkVx3UbTFgwubRcfUtnwWSX55dx+jYJMHFyw8+WSPJ3OVLdovhM5dpuv9L8i29KP0Tqn/UbK2HiV7y1Gytx4la9vRr1rYbQSWJR5gHbpV51gJ2NSkuMNJhsYnvh6wP7p7k/eiHtjULJPnSyj8fhoSfksj5d19lNzNHkpilfkyn5BJ4EaJ9pYivqKNRxEVbDxK/sYjmjYcI1+AbNTA5mw6hsiQn6RyvGiDhyrvorU3vxKXKBNn+XL73GU63/+CTHkl4O7/y4FJw2eaeiLAcl96RzWOrHSMXygh7/DD5Fr4k79dxh8vMs19lbLNfBHlmPqQKzJbkqznKZl4kWXiRaappmwzHzJNvEk39uKiiRfpJt5kmPpcV6apDzkmPmRb+HHGyZ9Pvh3IrHprSn5TcZ6O9z4n3cqXoruk4/xrW1iWhR+Fca8olygv4YyMTdxoYS3PyxgWy0UTzSXmbPZQ40+G9PwNx9SSjgL28s/gylWuzczRc6GQv3mm8ScnP/5q78sfHXz4zNmXPzot6U+OPvzJ0Zs/riQHb/7o4MVnjpr+7OKnrv3UwQfRZ46+fOYoqV4OPvxJlePLJ27evPMdf2Zq27g2Pa2egLe/9zcumntT+K0jZG88TMbmw2RuOkzmZm374pbDXNh6mPQtmjI2HyVz87Hbogz9OGwYj1dK5ZxblSdepfDOY2TKEl3sK7Sna29NCTB5S1sFHTKGtTz/azL3CjAJCI6StdmDjM2epG88Rv7dx8g29lBBR/6PBdgi1+avMFLVgO5nv6fmuQ/QPfOBSquf+4CaZ5fpufepefY9ap5995aqffFDlUfNs3KNXs+8T80y1T71AdVPfUDZM+9S8Mp7XO4d1p6xzV2h/d3PuWjmTfG3jpC14SHSNy3p4qaHuLDpIc5t1lLZTt90hIxNR2+L0jcf5eItJOfcqrxsGSr+/SgZZv4UxLxC20V5L1GzsJFVgckgbRjwN8rYpAH7q4sXhRIlyo+mXF5gYWyCxe5B9R+HaO3X0rZ+1LZ8vq4+aO25hXqhcwjaBqClX5Nc39K3TAPQNKi02DLA1dZu7XfluabWEtt/9jnp8qT3zqNkbngIgSQScMuBndfDu7jpCOkS7NwG3QqW4fhaZQnMJWB+Clj7rYBdEAvbqrmKC1uOcUEG/w1HyTHy4HOHYxScfIWrncPaiy8LV2Fh4aa3YPVvxRre8pW3ZOVtWcPvAa+VXrumAZC3gg1vCst/azBIflVH/n+Y/MO2K1dZlF/XuXoVrl5Tby83v/CfZMhDxG8dIWOjZknLgQkosTCRgrb5yC2twtDQ/4hULHA1YBIlfsXCMvbFct7Ug0wF7AgXthzl3GYZD46qCeEZyyPkPZTI2Pt/Y6FzioXuCRYGplgYmv6qBqdZEMmxwSntPDl3LY3Mauevdk7/NAt9MywMzLEwNKt+LW2hf5KFgVnaPjpN3kMPky1vRG08pqzqvAHMJg2QAZYhvfDfDJh0isxNR8n71lHSzW60sOvADCsdTc/9mot7ojlnLJPYI2RsXgImpiqDd8bWI2SYeZBh78/FneGc3xXO2d3hnN1zo87vDueb6MLucFbTxV0RXNwZqSTln9kTyum94XzpHMh5C2+ytnogAdOFTUdUZ5MOt1xntyx9Pr/piDpPzv2mOn9TOcvLNGzLOWuVIy46Y8MRcv/9MBdMfcmLfpm2C8VMqWUpvYXJWqIsTTU996tVgQn5jI1HyNxwmKwNh8m++zA5dx/6Rsq96xB5f4fy7zxM/p1HyLtLq0PWhgOkbzzExU2ih7i48Qhy4ys1oMD67wxMYP79wDYdRlyG9A7lOjYd4eKGw1y86xDpdx4i884DZH5LdJCsdUjOW671XLPSOdn/fgilbx1S5Wfc+SDpdx7g4l0HOH/3Qc5veIhzGx/irEGbDnNWtHmZ9PvObzrM+Y23SZLXerRGeRc2HiZdjOH/HOaCiQ+5UT+m9XwRU2od8VYWtunw9Z4qrkN0buNhzm44pNcBzm4QHeLc3Yc4v4bk+NJ132xb8jJIyj+nl6rLxoM3whJoBmArpLcV2Bog1tsprgP73w9x3gDswirAGp/9FRd2R3HWSOYTh0mXsHijHpTAUjrMues3foizm0TaPtm/mgyNdmbTYb6pDHmd3SQwDuplqMsSIMO4sVZ6O8ewtcamdR/bqLnEnP/9kLKw5WOYRIhq4mwYwwzATm87qlnMXQeVu5AGWqmHXNhwGNFKx1bap6zzOmy9m/o7Pks+Wv4PcX6jAdgSqCWgty5jKS9Dnv/8VFxi9v97SFlYfvTLdBjmYROTyM9MqRdJJejQgEUiwJT7uusg5zYc4oy4PL1Wc3uGNQAACwAABKBJREFU48tTw7nL992O7fMbltzvkjvU6il1/TpS7nzZ/d2O+n3TPCRGyPxfBzknL+xE/Zj2C8XaSsdKwM7vWg7sAGfvPsjpuw+qVLZX0xn9eXKuSD4bzr35mOEcw/Gvm567+yDnpDPdtVTG8jxWK89Q7vJ0eT2X5/HP2pZ7u3DnQTL/7QBn5W2vyJdoO6+F9eISr1vYpe5RGp79hHO7I/nSYGF3HuD0XQf48i4tPXPXAQyS/TdLzluu5ceX7zdsy3FDfl8rvfMAZ/Va6TpDuYZy1kr/7jr8vXW/1XV3HuD8tw6Q8W8PckbeMIt8kdbzhSpKvD6G9U9NMdc9Qv2zH3NmdySfbzvC6Q0HOS3A1iU5dz1aT37ryecgZ+48oLR2/daT13rqtP5z1uoccmzt+mr3JMDS/+0AZ+SFpKgXaVkW1stqxx3905MKWN2zH3N6VyR/3XaEL8W1fevBWxagVeAQp++8laTxbl3hW+cj5fwz8rp13W8Fy3B8rXaQjqgs7H8d4Iy8qRz1Es0S1k9oT5xXBPY3sTAZh/4H2Do7mQbTAORW6VrA5JgAkzHsnLyfGfUSLV8BNrXMwsQlbj3CmbuWgN2qAl/edYhb6+AN49vqef53zevG8Xm1+n9x9wE+X0VybLXrDPtlTBVgWf/PAS7IG1QREnQUqV/Vvr74O6AHpnvuY77crblEFUl960FVwGoVWNp/iM/vvpUOrnojS/nIzd4qHzn+z8hrdRA31v8Af9uwsm4+b6XPAlUCqox/O8B5edUw4iU6zhUxOzrN+Nj1pSnNwiqf+SV/3RfFp8ZH+fOmQ/xNGm/DIT7fuIo2aOfIeX8V3XVwdd19gL/e/aDSSjf0+caDaHqIzzfqtTz/5Xkvy8uQ51fTA6vX5WvnpdX7q2XcuP8vdz/IenSrfL6UtdH/c4jTRp7kRbxI97li5kemmRydVNDUv6Oa7Rul+cMvyAh9lnMPpnHxuylkPJBE5v7ENZVxfyKZ9yeRqVLZXk0JZO6P10u2tc8Z98cj0o7JvqXytLxXyF9/7VJ+huuXpwlr1GVZHdeV1/J8V9/O2B+PKH0VGY6vXe94cu6Lp+ieJLK/l0bpE+/Sl1vF/Ng0U6OTTIxOcofE91ND4wyW1NPyaTotH52m48PTdH5wmo73vrilOt//klvrCzo/+PwGdbz/OR3v/e0m3VzeCnl/8NW8bs67U85ZT73WldeN9f5qWUvHOz74nLW01rWGY93vf07vL75QDLpOFzLc2Kn+4ZtYmAI2Nj7J2Ngko6PjTAyPMz00ztzQBHNDk8wOTTA7PLmqZm44LueupTFmh8eZHdFL/i380BizItmvtLw8Q15SvmFbUjlXrllLcs7ya1bbXk9ea5WzdGxmZIxbas06L+U1OzjO9OA4E0NjjI1OMD4xpRgJpzsEmFhZ39QkvdOT9E9N0j85Qe/E/1fKHesACMJAAP3/v4TCWIpXP+AMohETYXF4W3O97oTKjMq0b1PileJGwSPCGFE+KCOU4uUleWHa7TLsemUXCkZKaVlLff67y92vd2q9/gpQBp+789edr5vcGEyZzdj+szS0d/U4HStUAAelLyPcAAAAAElFTkSuQmCC;" vertex="1" parent="1">
          <mxGeometry x="180" y="450" width="40.25" height="40.25" as="geometry" />
        </mxCell>
        <mxCell id="mRYJI_ucZMOmYyPQ1O4j-22" value="Cloud &lt;br&gt;Watch" style="points=[[0,0,0],[0.25,0,0],[0.5,0,0],[0.75,0,0],[1,0,0],[0,1,0],[0.25,1,0],[0.5,1,0],[0.75,1,0],[1,1,0],[0,0.25,0],[0,0.5,0],[0,0.75,0],[1,0.25,0],[1,0.5,0],[1,0.75,0]];points=[[0,0,0],[0.25,0,0],[0.5,0,0],[0.75,0,0],[1,0,0],[0,1,0],[0.25,1,0],[0.5,1,0],[0.75,1,0],[1,1,0],[0,0.25,0],[0,0.5,0],[0,0.75,0],[1,0.25,0],[1,0.5,0],[1,0.75,0]];outlineConnect=0;fontColor=#232F3E;gradientColor=#F34482;gradientDirection=north;fillColor=#BC1356;strokeColor=#ffffff;dashed=0;verticalLabelPosition=bottom;verticalAlign=top;align=center;html=1;fontSize=12;fontStyle=0;aspect=fixed;shape=mxgraph.aws4.resourceIcon;resIcon=mxgraph.aws4.cloudwatch_2;rounded=1;glass=0;labelBackgroundColor=none;" vertex="1" parent="1">
          <mxGeometry x="523" y="294.73" width="38" height="38" as="geometry" />
        </mxCell>
        <mxCell id="mRYJI_ucZMOmYyPQ1O4j-23" value="X-Ray" style="shape=image;verticalLabelPosition=bottom;labelBackgroundColor=none;verticalAlign=top;aspect=fixed;imageAspect=0;image=data:image/png,iVBORw0KGgoAAAANSUhEUgAAAGcAAABiCAYAAABNjM1KAAAgAElEQVR4AcS993tc1RW2nb/nvRIsTe9do96rrWLLDQKhBJKQAAmB0BJMaCEQQodQAwHc1Htvo957ty1b7pYtW/d7rX1GtizcUt7v++G5jmbmzDl7r3s9a+/TRj9y7jqFe/cJvLuX8O0Ka/cS/t3H/wMt4d9z7ObavM09G9c/gn/vAv698/j3zuHbu4hv7zF8e47fVv9ZW/+D/l3X3lv081YxCH/m27OEZ/eykn/PEVIfnObVz1cZnF7j+PJplk+c4EeuXct4dx/Dt/sI/t2LVxXYc4T/TAsE9txMi5u2Ka/D6+6dJ7B3lsDembBmCezZvP5/2qb/5fc2tHm97f/RchGfGGL3EsE9c6Q/MMlrn68w9P8fnHVo60Hf1FEFaI7AXtG8Ahm1+xg3U2D3sU2w/5cQbratTW3+j8BIHDbDmdDgTN2Bcza66N/7ex7/7ttp4apDf7ht+Uz7fmDXIj/UEQI7j2radc3pP9zOv//ZnVWKO4Oz3oebLxfx7jqmFNg9R+r9E7z66QUGN8Px7DqKd9ci3p0LSr5dtwre7Tp9OzDy+abt7zqK/6rWy+s1SNd3cON3b7TOxs9v19brP/ftWkT6fnvN4dt1a13f5hvFZGEDnNnbwNl5DY5Aun0Db7bOrRutdWr9uxKMI/h2io7i23kM384lbbnriJYwu6QTGyUZJ59pn2vtnN8QLPl7ffv/3nI9OW+9nMe7a+62uh08aaNn51El/65ZUn42ziv/OH8T52yCc+sGag674Tp30HDvrnm8O0WSEEfw7jyKd+cS3sLjeAtPKHl2Hse96ziuXUubJO+tawmPgiTwJGjr271F+8LV4YZtv6PP7gzObQHunMdTeETJv2vmFnB2HsFzRw27VafDgblTOOIGcejOBfyiwkWlQKG8luyfx717EdcN5Nx9FOduDZoqyQqygN6oW7X1v/lMg3MzZ9wWynp81uHsXESDM3YD5+w8ESYoJP8bzeHZOfsDXW3szjm8O+fUPtwqGaSUzREonCRYOEzCrmHSfzrCtodGKPjVMAW/GaLg8WG2PxHW48MUPDbM1l+NkPrgKDH3jOPfNYlPQCr3HdPcJw5UrzcAKFzAo7SIp1Akr3/YV83NG753w4SV/c3hv4Wu9nkdxI2WCo7WHv+uKVJ/Nsprn5xnaOrKteMcR8Ex1WBv4Ry+wtn/gabxFU7j3TmNZ6csZ1RHfDvmcRfM4Myfw779KE4ZWwpnCW7vIa6gjj0/b+VPr03wbclZmvuhbwYmjsPsaVg4BTPHYXQeGrpX+PsX8/zsiRDJO5uJKRwlSsarwpN4dpzEU3gSd+FR3BJY6dMO0QK+HYv4dhwNS/5el3w2r+nf6L9/xyw30x3Fcccc3u0L+LbPE1U4Sdq9I7z28VmGJ69w4kT4IFTguHcs4N0xg3fH9H+pSbw7JpQ8hZO4C6dwF87g2TGvSpYnf4aAdKpwguDuQXY9Mcn7312ka+QCM4srHF++xKlzVzh9Ec5cgrOX4MIVWLkMF1bhwiU4f3GN5TOrLBxbYXzxAu/+8yK7H1sgbtcwUTvESQsanMKjeBUULfDe7fMqGBIQ7W8Jjmj2mu4gBr4d0/i23163jaXst2AeX8EcUdsnSL9niNc/PMPwxBWWj5/h1PGT/GgdjucOGnbrHU7hleDsGMe7Yxx34STOwhmchYu4pdTsOEpUwQxpe0Z5+NlpPtq/RGj4PAtLcOYCrKzBKnAJuHAZTp2HE6fh+GlYOqPp9ApcvAKrl+HKFbi8BnNHITS4wqf7j3H/70eILuxSlcClXCSTDHHGbDj5NifgDN7tojCgO0zO/w2cGbwFc/jypXqM3xiOM/8Y7u3zeLbP4Nk+9d9px0QYzgSuwhkchXO4CqW8zBMsnCDvgWne++IoDR1nmD+2yqoAEVdcgtE5KKpZ5JOvx3n3HxP87cNp/vbBNG+8O8mr703w+ofTvPnJJB/9c5riqhOMjK9x/gKsCqw1WFi6SEXzCV75aIaYXUN41dgisyGpCnNhOJJAYWfvmMCzfTLc32k8BZvB3byK/H8Gx5F3FHfBPO7t07i3T/1Xks76CsbxFEzi2jGPU8aZHeOk/HSQx16a5+OvjzN3dJXLkvVXYPHYJSobTnKgYpnXPjrBvU/0k7G3jaSCDpIKukne0U1CQYjYghDxhV3EF4ZI29vJvY+P8cp7J/mubJnuwVXlMHGRQB6fX+WVD6bJeWiIwE5xsLRhEc/2WQ3EjnE8O8Zw7xjFvX0M9/YJrc8FkpzTeHbcWt47KWl3sB1lhvxZfPkzRBWMk373IK99sKms2bYt4sqfw10wjbtg6r+SJ38ST94E7txJXAWLOAumid/bx+MvDdM1DOcuaU45cWKVwZEzfPn9Ajt/PkLirlGi8ofx5Y3iyxvHlzeh5C2YQCTAfQVjePPHcOeN4s4fVYNoyj2jPP36cYqqTzMzf4HLq3BlTdvPW5+MsOPXowT3zOLavqglYMGsBkPA7BjBvV0AjYf7fGf99xRM4b0D3T6W07jzZ/DmTRPIHyN17wCvvH/q+jFH4DjzZnHlT+HKn/yv5c6dxps/gzt/El9+L488N05bnzY+XJKx5OxlDpct8dBvOojJrie2YAZXzgKu3KM4847iylvElbeAK29ezeyc+dI2Tc68Gex5M1hz57HkHcOZP48/f4i03W28/u4oswuXuHgRrqCNX18WnWXXb2YJCOT8BdwiVSHGcW0f0VQw9m/1WfqlkvA2yzuJpTtvCk/uFL68YZJ39/LK+8sMT1xm+cRpTsklAwUndxZn3iTOvImbK38cZ/4YTlmur3fde5M48qdxbF9EJhf+3E4efWGGuvYrrFyE1VU4fxlef3+GvJ/1Ep3bhzdnBM+2CTx50+HkmMKdN61ey3taEMbxSCfypjVH5k7gyJvAljeBZesITnHWjlGit4d44KkeusbDk4vLcH5ljX/8c4r0nSECubO4806ES/gkru2juLYPhwGN4yq4taTvap38cdx54uBr8uSPs1larCReN5crT/o+gS9/kOQ93bz6wQmGJwXOSU6dWBI48zjzpv8NOGMb4KzveFQ1wpE/iTVfpq6jFDzUzdeHFzl5Vitly2cu89RLvWT9dIDo7VN4c+dxbZvFkzuJv0CycUzrYN4k3rC090avvnZtG8O5bQSPjBU7RnHkjyhIjoIZVZri947w8+dGaOhaU/u9sgqLCxf56PMFYvP68eUdCTtoHlfBNC4ZG/MnrgZW/tYqiCTLesJMKCganDFVUt15I2yUJ3+UzXLmj3BrjeHKk8QbD8Pp+iEc69Y5BUcoyso3l2wsrNwJXCL1ehRX/jCu/CGcBSM4CiaJ2t7JO5/PMjV3Qc2mFpZWeO+LCTLu7iCQL8GexZ07jzt3RsHxSgbljuLOHcOzbVxz07Zx3Oq9UTzyfu4Y7m2juASOGndGcOYN48gdVU6SBHPnTRC7q4+fPyOAVjh9Fi5fguGxi7zy/iLBvD68uTM4tx3DkXccNVOVZFJj5Zhqjyt3EVfuMVy5SzhzF3HmykxOSr4GyV0gjrkezo1eu/JGuLVGcW+Ak7T7BnBsAidXyskP7brRutf9nSuBW19fdjKMO38Ad34/nvxB9vxmlOaus1xchZNnoLz5DPkPthIs6Fc1VqDI2CSu8eQKmAnc28Zwbx3fIA2GALmRXLkjuHKHceUOIX87t43j3Dap1vXndfPblydp7z3HufNw+jw0955j+4MhgnlDuHNmcW6dw507ReyuSfIenmPbQ1Nk3TdPMH8Sd/YkbvX5PC5pa96UqiwyjrhVWZM+3x7QrdeRZJSypjnnhnDsOXO4tk1tCPa1Wno9EMmsG3wm2S2ZnCezrV7iCjr48JvTzB65og4Se0dX+P1rcwRyO3FvHcO1dQr3NhkIr4FRcK4DI5BuDUcDNoJ72xCebcNhV03g3DqFM2ec6PwO/vLhDEOTF9RB7ezSRf7+6SSphY2k7h5g928mefTFSV78+ywff3uKj74+wXtfnOSFN2Z4+OkJ8n4+TkzhkHKsY9skjlwBNIVWYTa7Zz0GG5e3gSexVHBkZjpI0u7OH5Y1u2TRtkmknrtyR28u+fxG62wbx6Uydpzo3F4K7mlmfOY8l67A6ZU1vio6gn9bCOfWWZzZU7i3TmplK+yYq875j+CM4t06jHerQBrFmTuGBNKaPYk/b5D8h7r4qmiB5RXtrMPC8VUefqKa514boqzxLAsn4aLM7NZAZpIyDZflyDT84/vjaoKRsHtQVRV77hSOvGkceQLq+lhdl8ThicItYylxVvHUDj0UnF2dvPbhcnhCcCo8IciewbF1AsfWURxbR24h+XwsLG09p9rBBK5tM3i2TpFU0MuTz/Zy5NgKl9agrW+FJ1+Zx7V1GGvOErYsmTZOqQF+Hcr68vqSdmfO8W4dxZszjCdnCFfOsOqDbesYpoxxnPLZ1naefmOavok1BeDCRegfheWzqPapKfcanA+ft5MD44uXNEByTm9o/jLPv32S2MJO3NtGcObO4tg2g33r+HVxEhCbAd06lhK/UZzbpJxP4N02SOLOTl754OS1qfRxmUr/F3DsOSM4paE5UzgyR0jfHaKi9iJnzq0p53x1YIrsn7bizBnAlj2LLWcSx1YJ3BiunOvlzB7FmT2ySUM4s28uV/YgnpwBPDmDuKUtOZI849hyRpC2OXIGyXpgiA+/PaLO2a3JWQSZ0q+i2icHxT0Tl3n7q7O8/ukyB6ovM7MEKwLpinYwO7W4yst/nyH97hHcOXPYcxZw5Egyb0zkYew5Q1fl2DqMa+vIrZUzimvrhKoi3q2DxO0I/RCONWsae8646ow9R3Zy57JlD+HIGcWRM4532xC7f9XD4ok1Lq3CkRPw6rvjRG9tRoJoz54M72dMBfGHcDaDGb4lGAUtZwBXdj/u7H61DwU3ZxR3jnx3GFuOnFXo54W3J1jh2sGpuKKkdp5nX+3hvid6SL9vUGn7I7386tkQ73w6Rkffae1s+MU1RqZW+NlvBvDnjODKmlR9vj5O18CsQ3JKG26l7BFcOeN4to7j3TqgwQkfhMolg5NyEHoNzvX013dyJ0vJlJidQ/z6T2MqIy9fhtrWizz8h0m8Wd24s0ZwZk0g7nCIOyRrfuCc/xBOTh+unF5c2X24sgdwZw/gy+rHmz2AQzmpn3t/P0p91wUFSCAV1RzjkWf6iC9sw50TwpnVizOrB292J8FtrWTf28lTr05S3XqGi2vaJYv9ZcfZ84sBvJldKiFuFxdnziBKN3X+sIqBWxI7R4Pz8gY46qZCW+Y0jmwpTcM4csQJt9Z6o7T1h7FLELb2k3zvMH/6+4IaVOV0/gf/PMHWB6bwZI3hyZzALcqSzBvCrbJmc1nbDEde38Y94hwFp0cBcmf34c3qI5DZgz+rD6cqbUMk7R3gt3+epLjhFN9XLPHg7waJ2dGNfWu/KoHiOEf6IK4MaZ8k0jBxO4f4/WvTLCxrZW7pNPzx9UFitjXhzu4JVxopnxKDIexSHXI0STmVUq6UPXiDCiD9EueM4RZ35/QTt6ODl98/ocacEydOsbx8nB8JHGfWmGrQreq79tk1gKqEZI3iyJSG9JL5wDBvfrasrrNIbf/zO7PEFY7jypzGnTGJJ3MMT8YInsxhPNnDaoxwKQeJi0a1/WcN32A5hDNrg1QmSoe1AEhZE9cIGE92P96sfvyZvco9Ateh9tVFTH4refcPkbq9m5jcHpzZ/ViyRrBlj+PKHlNgHBnj2DOmsGXN4cgeZdsDvZTVnebcypoqce98MkT6LoHTiz1nUn1XlXVpU1Y/zuy+8FL+3ghnM6D1RJQEHcWT00vcjnZeef+4mq2dWD7J8rKcvkmfwpk5hjNzCFfWIK7soRsra1jLKjVoy7ojuDPGcKfJsoetDwzx8bcX1Dk0uUbz7OtT+LeNYUufxinrZQzjSQ8rcwh31vX7cWQO4MjYrCEcGesaVJ87VRtlrNmsQc2VmYO4w5I+OaRfmX14MjvxZYbwZXbiyezBnSXfl8nG8NX+OrJGsGeNYc2axJ41TEJBO08+28bpM6vqgPqr7yfZ/kA7row+HNkLWNMncWZPoNqU1YtbtpvZhzuzX0FyZPejlDWAI2swrGEcktRZo9gzR1T7xIkJ29t5JXxu7To4joxRnBnXOrXeuavLjCHcYnlZL1M0rORKH8eTNoInLUT+/b18V7yqTtsLnOdenyYgcDLEmSMqYOtw3BkCd0DLMsm4rH4cmX0b1B8GJWBGwoA0OAJRZWmWOEYCPKiCIyCkXddgynfDQDMGcF1VnwquBHijVGJkDWMXN2WN4cgaIiq7lV33VnDq9CV1pru7/xJP75sgkNWBL2cKb9ZEOC4DuDP6cKdrUvAy+7BlrasfW+YgtswhTRkj2DJGsaaPYM+QpOomvqDtqnOOL5/kxMmwc9bhXOvAxs7I30O400dwp43hSh/FlS41ehRr8jiulCEC6c3seaiJw6UnkcmAXJ18/vVJorYNY88YVxnjzOrDlTmo5BSXXAdjIxj5eyOc652z0V1OKalhaSDW111f/ntw7Cp4WuBke77MVrJ2ljI+o12KOHFijS++mSF3bx2BtDr86W14Urtxpw3iShvBlT6MS41dWrIpOJkCZuAGcEZ+AOflcFn79+DIDtNGcaWNq0ZIlnjSu3GndrDt3lF++8I8n39zjNmFiwrMxcvw/GtTBLdJJouFpQz04BCHiMUz+7Bn9F6nH8DKEEAS3HVtLnmbX8t661DWl3cOx6lK6hD2DEmoEa2SpLcTv62S2tZLnDkLFy/AzMx56pqP8uX+RZ7at0ThA4PEbw3hS+/Ck96nwUmX/QqUdTCb4GQOY8scxqr2dc05N4AziT19BGf6IM70/ptoEFvqCNbUURzp/fiymkkvrGffGyPsL1mmrWuVmTntyFpOhSxfgN+9OEVABvj0MZwZ/dgzu7Fn9mrK6L3qnHVIm+HYMwRgv6b0fuzXaQB7+mYNYk/fLFmnX7X5Wt/6cKb3bpK8J+vJ94fUUlu/i0BmK3/86zEmZla5dEm7sUROTS2fgVAPHCo9wZvvzbH34RDBrEZ8mb240oewpw1gTevHJtAzh7BnDmLPGLhONtmflNvMLuIKWnn5vSU1IbjqHGvaBLa0YbUxR1o/N9YglpRBzKl9+HO72PvrHv76fh/Tc+fU7EymzmfPrzE+c5Gqhhn+VbrI7keG8aQN40obw6kC2Y09vRtbmiw116wDEUDrf8tSAZN1lPqwp4s2ApKgbwZxo9fh72zsV3ovjhspTfaxDrxPrWNPE4h9pO0c5IMv5qhpWKB/+BTHT2lXdqXfly7C/CL86+AMv/5DN9l3D+KRqpDWhzW1H3vaNUdf64PWH1vagEocd0YXcfmt/HkzHEvqBLbUYexqQ303gdOLI62TYF4H9z05yMHaS5xZWVOD5KlTl5maXaGx8yx/+fgICfkHCWTV4EnrVOORM2VYbdOe1oM9tUtTWje29B4FwSEzn/D4s+4i+cyWtlG92NL6wupHOnVnknW179lT+1CSdtxEtjTZz7p6sKb1YpEApnUTm9NA1s5KfvdCP/vLzzA4fo6FhUusXFhTgOS8Xe/wJf781hFSdrSp2aEjXWunAqSSSZJlPfmkXVryuNbhvLvJORvhrHdEllc7k9qHK62DYHYtv3yml9b+8I1+co5q5QoHy5Z58HfDBAvasWaFcGR3Yk3pwJbUhTOlF1dqn1o6U3twJoeUHKld1wX/plDSN663EdAAtlQptYNhSAJhXRvB3QZOag+2lO5rSpP9ibt7sab1YUnvxZzRjTE9hCWtDWdGO57MdgJZrWQWtvPU83MMj6xw5vQVVi+tqSoyPX+BfW+MEcxuwJ7aoxwuiWRJ6b2aHOuJZ03twybxSe8kNq+Fl949xtDEZa6WNXPK+FXn/ABOWg+O1B48aY3suL+Zz76d4qzcQLGm3fT33j/G2XF/O77sTkzpI0SkjmFIG8KsAtWrvutI6UbkTO7GnaTBsaeEsKV2YU2VQFzLZPlbZWt6H9b0daeEMyy1X23PmdqJM60DV2oH7tR23KltuNPacCm1K4eLM1RfUgXi0FWI9tQBnCl9qERJ1fq23j5bagi7wLmaEH2qLQpMVjeWjD5Mqf2YU4ewJA/jSOolMbuLbTtqeOWNEfoGz6rrVysX1xibWeGXT40RzAnhkhIqTk/p/8/gWFOGsKUIxR6skk3hjJIgulI7laXfeH+EuaMr6q7MMxev8MZ7A+Td24Q/swVbajfm1H6MqQNqKRnhSBU4Gpj1ACjnpISwpwqcEFZxUHgda2KH+lugWDIG1UzGmi5j4Si25BGcKYO4U0J4UmrxJpcSlVJCfHoZCRllxGWUEJ1eQlR6Bb6MOtzpbdhSxMFDWFLGMSePYkkexJLYhz2+G2dCN67ELtxJnbiTO3Emd6IljLSrUyWOFotuLKkd2NI6VVysKT1YU3qxiQsk2VJC+FIaSS9s57d/GqO65ZS6FHHh0hq9IxcovK8Wd0o9dknClH4cKVpMpM8SZ3GTVeKUFiI6t4mX/n6EoYnVa84xJY+pTggc+YJks8poyfaUEO7UJu77zQgVDaeRKfKpM2tUNl+k4GfN+DObsaeIA6QMdGJNC6nX9pQeHErXw3GkhBDZpcNK2vriKntylyovmnNkltaLM6MTR3IrnpR2knJ7uPvhUZ784xSvvjXJV99OcvDwFAeLpth/eJJ/7p/k/S+mefndOZ75yxEy7w7hz25HBluXVICUTuzi3MRuXAInvgt3ggDqwpncpdolCaNJAHUqwAJNkwBcl/SjC3tKN9JXWcbmdfKHV8eRK79yLUti9cbfR0nf1a6S1J46qCqItENKqUC2SMwFWBjOvh/CGcWaMqiyQQMTLjcpPThT2vCklfP2Z4tMLWi3N03OXOTx56eIzm7HpRorTuvCmtaOLa1NdWTdKT9cSqc6sKe2Y09tw5HarsYgV3I3juRebMnS2G7sqa0EshvIv6+V3/xhiH1/GeX9T2YoKjtFqOcyE9MgA7Dc5bl+O+75S3D0JIzMQvcIfPH9HH/9YIyX3prgsedGybm7HXdKFd7UDlxJXTgSenAk9uBI6sGRLNJgrAMSdwuU9YS6tuwIw5JkkvYOYkrsx5rUTs49bbz3+aS6HiQX7lo7L3D/4wO4UgX+oNqHI6UdmyR0Si/m5L7wWNRBcFsj+95e3OycESwpAyjLpop9O1S5sSb34khuIj6/mMrmeVXO5DRGWdUCsdn1uJL7cKpOSba1Y0lrV9+1qUzrwiHZuFmqsx04UgRMm4LvTu5Q2WtL7FGlwpfRQebuVh59up1PvxxlYOgKJ0/BpRWQW53WwrfySuflZvel02ucOLvGmYvafXHyRIJkrbrkvAqnTkN3/zn+/vEYP/tNAzn3dONJa0XKqDWpF2tSHzalHmzJUn60EncNxvWAVPm7mv0CZwBDQg/WpA4CGXX86slWdVuW3NwiV1yf2jeIL1XG2gHsSe3YkluwJocwJ3djSurFkizO6yC4tZEXN8MxJg0pgtZkodmBJaUdc3InluRe3Okt3PPrJtp7l9S0uad3iV890YQrsRF78ih2lXVS31sxy/dSQlglA5OkhNxAyR3YldpxJIs6cCSHcCXJ4N5EbG4jex4J8cEXC8wsgpzdFq1egnNn4PjSZeYXV5ieO8/I9Hnq2i5wsPoMxY3naOq7QP/UBSYXLjC7uMKp02tckBvdL8NltMdJRhfWeO/LE2y/v4lAVh1ONasUQINYkwbQYhDCdrWd6+29tpTPrCkhLMldmJMl+3sxJnZjTQrhTm5mz4NdhHovqQSRpyb+8s4oSbkduKUMJrZiTWrDkiRwujAldd8aji5+AEtSr5r6yo4tClAP1uQhnKkN/P6lHnqHT6nyUd84S1ZBseqUNXkEa1IX1iRth+akTkzJXWrH1sQQN5MloQNrfBvWhHYsiV2Yk2RfjURvPcBbny0wOLPGhctrCgpyw8UlmF2EyoYr/PG1ebIKG3HGleBKrMCRWIk9pQZ7ai3OtFrcaTVEZVSS/9Nm3v74HLWtMCuXnUFdNJNHS8RZY7Nr7Ht9lJStTWpSYE0awZ46iVQLW3IonEDXgGgJpb2WzxWYlG5MKb1KquokdWKNDxFM7+ZXTw5x/sIVdbN+bfNlHn5yFGdSDbZEASMx0mS+EzjmxF6siZ2qblqS25EvGRL6sCXW8P7nx5hbvKzm8NU1c6TmlGCNa8WQMIApsRNzUivmpDbMiSHMiZ1I8G8na4IGzyaOSWshbU8TVZ3HWDi5yrlV7fr92RWYmF7h178tZse9B8ncVUV8bjue1F4scf1Y44cxxw9hTBjCkDCEMX4YU/wQ1oRe/Bk9JOd3kbGzgbx7i3n+tTa6hy6r+wdkjFq5JE84XOSjzyZI3laPM7lFG3OTQyoGMn7cWFIKO1VwJRGNUppSJPu7sEqixfVhjesms7CBs+e0mPUNw9MvjeBJLseW0IY5oQezrJvYGXaONsYGt9X/sKzpEvoxJ/apjUvdtCR1qGw2JgxgS6jh/U+PMD+/quBU1s2RvLUUS1wLhvgBDIk9GJI6MCW1Y04UJ7RfBWNVDulAltfDEjAy2egmJruVe3/RQm3rcU5euKweoDp5AWraTvKHV4b4+ZODxObU4U6pxJlch11cmtCNLbEfW6KMFQOYE/oxxfdjDssS34slvgNbYiuO5AacyZUk5dfwyG/7eOuDCQZGLnP6nDaRmFk4zzdFi/z890OYYw9iS6oNV4JrcGyJ7YgULBmnVEJ2qSphSOnEqEpcJ9bEbkzxgxhj+0jcVsuJ5VU1Rs4twstvDavpvzWhFVNirwJzDY6cNWnlhnD08bJyDxZxjtp5h3otcBxJdbz70SJzc5fUAFtZP0dKXhn2hBbMietwQhgT2zEntGJJaFOApGRJlmhqxxovpSyEJV6cFVIlLfRd1b4AACAASURBVGZriF89NUhF9bwqXXLCdPYofFtylJ//vpdAdge2lB4sSVJ2u7Gp7OzAnNCGPVmb9cl+1LbjZPvaPmRpjtfaoZIlUUpoK57kNjJ3dPDU890cKJpn7sgFVeoWT16mpGGZu39ZTyCzAkdSA7aktqswbKovAqhNyaqSMIQpKYQ+pR1jcnu4lAucIQxxg8Rvq2NuflXdCnxiGd58bwhfcjG2hBZMyjmdG5xzDc6+txfUbE0utqnrOfo4sVkIi2pEK9IYc0I3xoR+HIkC5yizc9oDTwInNU/qfTO2hF7MCZ0YE9owJbRijtckgKQRtoQmbAnN2ONbccR3YI/rxhLfjy0hhCe5hgcfC1Fec0K7/rMKg2OX+OirYxQ+2I49qQZLUifGxEH0sYMY4/uwJHZrDoyXmVYr9uQ2LHFNWONasMW1KqmxLL4VS6KoDWN8G4a4doxxnVhi5fimHU9MMfc82MIX/5plfHaFc5fh+PnLlNQucc8jbURnNOKQgVvGzYRObPGhcJI1Y09owp4gfZftt2NMasekYHVgie/CEDuILqafuNwGJqYvq8dRZLb49geD+JMOY49vxhzfjTlBhoAQJjXmdmJNbiYqp5Z9f5tjeGKVq1dCDbGysmRXM7Z4URvW+G5MCf3Y4mt57a1ZJiYvqjshK+tnySwowpvYgD2uU409lvgmzGqnGhxrfCu2+CZs8XXY4+twxjfjjgvhiO3FGj+CM7GN3ffXcbB4XDnm4qUrjE+f4Y+vL5CQ24I5rhpDXB362GaMcSFMsV2YYjswxbVjiWvDKhJAsp8wFFnKOCifmWNbMMU3KRnipfy2YlTvd2CN6cAR044ntp683R28++ksU0dWlINkRvfVv46w894OvElNWMXlcT2qn/b4NuwJjTgS6nHGN+CIl6RrU+VTSrZNSnd8J/qYXiKiu4jPr2VmYVXdoHj8JLwlcJIPYY9rxBzXiSmhXUmN0+q7Dfgzq3nxb3OMjF9iWd3gscSPjNFdmONbkCDb4kSSkV2Y4vpwp7TywKMtdPYcV7O1xrZ59j5Qhj+xFkdcF9bYVixqh02Y4loxhQOnwanHHlePK64Fd1wn9uhO7PE9RKXVcKhkXnsK7QrMzJ/n4ccb8KVUqeCb4zswKfs3Y4prwRLbdp2sce2IbLGapA3W2BYli4CJacYQU48uthFdXAv6OHFPG2aBG9uBPdiDI9iFI6aJ1Pxm/vLOGBelpsqM7hL8+S+9xGXVYolrxRzXiy22E0dsG7b4RuxxdTji6nHGNuGIbVFtkLY4EgVOB8bYTswJ7aRsr2D59KqaxsvB+743h/AkFal4yPrm+A1w1Dhdjz+rcgOc8KPuGhzJgmYtE2M7VMaoATaukcScg1TXz6kdzc9f5KNPZ3DElGCN78Ec14EpvhljfEs4O9vVNhyxrdjjZHvSAcnYLmyxbTjjyvjkn3LF9IqWVaegpPos/uRi7DF12CSA8W2Y4huVJNg3gyOdFFkkQdR6LVhjWjBHN6MLNqGLbUOf0IUhsQ+TTHjie7DFhnBEtypZgy044+rZ9UAHpdXavd1yiX18apU//HlIVQ19sANrXEiDEN+CVcWoGXtcK9JHkbhW9i/Vw5LQhC+jgQcea+PUaW22Vtm0wgO/G8aZVKWqiWxDXC/jolbeZBJ1MzgxofCK4p4W1WFzbCeGmG6Vya7YA+wvnlUHdBcvrBHqPsXWXQ24ZYYW16agaHW9XXOOyijJ5FasMe2YojsxBTvxpbSSWVBCW/cy5y6gVN9ynPy7pUQ2YAk2Yo1pU9+T8iqTjhvB2QzLrDK8GUtsE9bYZiwxLRhiZByUU0SteDJa8GW04k9px5vQhju2GWd0C9aoNqzRLUSl13PvI000tF1Rj4vIU3iffztH+q5WzDENqpJIEpjjBECLmqlK32wxbdij27DHtGGJkVlkM46kavLvbaSi/gyXLq2p45y3PhojvqARc0It1vg6rHH1aqwUZ4rbxGm3hGNU9b0BU1w95thGTDGtGGNCWGJD2ILVPP6Hfjo6T6mdHV1a5d1PFggkH8YcXYchVmqtwJQy0IIlRguQJaYNc3QIU7AHS3QXMRmNfPz5FEeXtPsMOrqO8ttnWnHGlWMVt8ZIh1uxx7Rgj9Uk75lvqRZMsU2YYhswKzVijpH3OjFG1/DsayN8W3yEbw4c4dU3pgjEVeKR8hTTgjW6XSWPlPJAei2/fWGMhcWLaoIyOnWel94ewB5/SI2fKh5xMpZpCSxJI4lki+7AFh3CHN2pksqdWMaDj1azdBK1nWPH4YkXZBZcgV7Kf3wDlrh6rLGNmttiWzGJ62JrCWRU8NJb62POelmLCWGIacIQW4sxphpjTA3GmAZMse1YYjrVIJqQ1cQnX86oH3M4twIj45d57KlWghlVmAVsbAdGKSlxzZijpbS0YopuxxgMYQ524YrvJG93qyoZ8kDt0gl47+MR4jIOY42twxzTqUqHXeBEt2APNmMNatuSwFwvGVfW1RyG04gptl6T+qwbo7+Ig6VzqnyePQ21NctExezHnVCn3GWNlbIoEw2ZercTt7WOwyXznFjSJj8VDfNk76lQkxpTbEhVCGOcjINNatJhiW5XSWeJ7sYYFcIaXU9WYR3vfDiknYxdhaa209zzy1aMsTXopB/yXakSsQ0qiU3RzRijxQzVGpw3bwinMQxHwAikBi3YMR1IibPF1vDYs720955WR9kS4I6uCzyzr4fU7bXYk2rV2GOIFce1YYhuQx8MYYhuV2NAXEYLf3p5UtVheRy9rvEsDz/eiz2mDEt0E2bJwNh2BI4t2Iwt0IQ1qhlzsHkDiBaM0aJmjMGwomXwb8MQ24a43xR2vSG6B6P/EIfLZtVYee4s1NYexx/zFc74Kowx4jZxgZTlEDop7TEV/OI3jQz0nWDtMoxOnOXPbw5jia7EFNOLANJHN2EINmGKblPl2hjdh1HgBOsIZlbw7MsDDI9fUaee5CzEG2/3kr69HktsM3pJ1hjpTwPmmEYs0c2YpB/rcNLLeenN2fBs7TrnNGCIrcMYU4cxukF9Qb6kOiw1Pb4Bf0YVT/+5m9mjK2qmJee9Fo/BX97rJn13Gc60RiKiW9BHt6GLbicyphN9dCuW6AoK9lbT0Qkr5+HCeXjtrSHiMpuwx7Rj9mv13yaTiJgWbMEmbFGNWKMaFRwFQ2WYdESDYohqRGSUYAmcmI4wIMnSdvTRfegDhzhYMauurcgZgfK6JVyxn2KNL0cfLX2VDBZIrdoYFV1JbMo31NbPsnoRVs5BQ9MyJl8xen8PxqgO9IEmjFHNWKI7MAW70cf0q/0Gsiv55TNtVDUdUSdZL62uMTF9ntydh7BFlWIOtmCMascQdooknTmqFWNUS7gfVfjSy3nxrzeAo4AoMPXXwAicq4AasSbUE8ys5bFnQurgSk7dy6Mectm6suUM9z0xgCn2IObYYlUeBYwhugVPYgW/fqJWnf6R6apci/nFE52Y/DUYfSHM3hYMrjqsAiW6EZtMDKIasSg44TYoKC0Yg61h19RjDlZgiy7FFluMLbYES2yVmkZLJuujBzQ4lRqcU+egpG4JW9wnmOJK0UXXhgHVqkwWyOboWhzRB/ji23mOH4e1SzDQf4rkrbW45QxKsA2DvwlToAFbdD3W6DpMsTVY4/fz0jsLDEytqeMlOXc3d/Qie++rIRBfji2qAVOgFUMg7ProRsxRLXcIJ9iOSQIRVYspqhZjsB5jsAFzUDJXkym6EYMah2qJza7hmT8NMj6xysUV7WdSTp+7wuj0RUpqT/Lq21N4Er/CFFWNJaaD2Ix6nv1jqzqIlVPoB4qPsOPeZixR9Zj9Ic05gQbtdVQdZrXvBkzR9RjCQdQFG9EFW9FJgIJNmIPleOK+paZ5ic7+s9S1nuWpfUPovOXoonrRBa/BkUMYcY7Ascd+giW2HH2wQckYlP7WYgjWYwg2YIyqIf/eVoorj6hyODt3kX2vThKdUo4ztgFrjJTbcmyBb/AnfMYDj9ayv2SJ6YVVlaQX1mB05hy/f6EPf2IRtkA1Zn8DRn8ThkDY+dFauRb3iHOMUY2YghucM3aJk8dPs7x8gh8Zg+1YAo1YArVhQPWYohowRzUpXc3gYBPGYCO2mFpi06p55NF6Dh6aZ15mOOFfcpJL2GPTK/zjmxkyd3ZhDDSxdXeXOvKWC2Dyi1Avvt5KfE45FoEQ1YEl0KzKmFnAKNVjCjaogOmja9BF12nHLcE2dMF29MFmLMFSouI/Y2r6LCsrILOiN98bR+8pJdLXT2RgAJ33EAfLZ9XgrODULuGI+RhLTAX6QCOGQCOmqDotIaPqVHmJDLTiSqrmo68n1NXM5VNXKC47TULav7BJQiS38MiTw3x9YJaq2mm6+5Y4tnxZXbuRH8Bo6z3J0/t6icmoxBJVidknYLR9GaKaVFmWccYS1aRkimrSjLEBzuhmOFZ/I9ZALRblHoHTiDnQFJa4qgFjoFHtyBKox+qvxB1dxJ7723jxtQHKq45xbEm7sCWP7L3+Th+JW1sx+mrZ82A39S0X1ENVAufRJyvwJh0Ow2nDEqXBsYThSGJINkl2RwbriQw2EhlsJTKqncioELqglIRSouI+YWb6LFcuw+nT8M6H4xi8pUR4+4n0DaDzHOJQ2axKHIFTWrOEM/gx1mCFVp78TVgCdeGkrMcY1YQ+KOfgKnnzozGWz8mNktDdu0Ji2hc4YsoIZrbwxgdzLJ1CPXUgJUzu/hyZXOPrg4s8+nSHdnYhWI3JX4/Jr8XMEJA+NWAKSkJIPCW+Uu4aMcoyqgpfWhkv/nWGkc1wLALHX4s5UIspUKfq6jU4DZgDUoLqMfs0CSBzQMaJRtzxtdzzUAfvfzxBUdkUnQOXyNp+EEtUFQZvFff9IkT3wEXtev8aPPRoKa64Q+Ey1qoyyBaQ5KhT29QaLAN+HfpgJfpgFbqoenSBZnSBdvRSrwNlRMX9Q8GRmZXAefej6+HoPYc4XDqrjjfkPufy6iVcwY+xBStUmTH7mrD661RSWgOSkGE4cVW8/t44R5e1+xQmplZISP1MwQmk1fO3j6fUDyydPX+FgbEzHK4YY99fJ9m2Rw5IpSJIaW5WYBQc5dIGDAFJgHpMKnYSv3oFRnu/El9qGS++McN1zjFEtSn7Wfw1mGWQ9tepL10Ppw7JbIt85hWADRj8LRgDXRj8bZgD5bhiviE+43sef2ZO1WjJHL2nnIcfb2dq7rJ2Tf8y/OznxTiDBzSXBpoxCxh/g9q2JICqz/4GnAnVZO6qpfD+Wrbf10xUmtYuo78Zi7+cYPynzMycVddMTp+Edz4YQ+8pueocvecwRaWzylmb4Zj8TVyF469RDhI4kQE5dKjktXfH1M0iUq4Xj64Qm/wJZv9hbNGVPPnHflq6lqlqOsozL/cTTP8Ka+x+lf0Gv8SlCdm+yd+gZPDXKzCGQB0ik78WixjBX4sx/JkpUIk/pZR9f5lmdHTDmLPFIw2tZyMcoSnUNcnfdWpjskHZuHyu6rYa6BrQR1Wjjy7BECzC6i/DLo3wtaP3VPK759pVTZbzVlImfnr/IRxR32OOqg6Xz3rlGou4Ug2ezZgCNeTsqqe87iLHTsD8MXj86VYcUSVYfA1Yw3BmF86qY4rTZ+CdjzQ4d3n6iAwMYvAepqhsVs0Sz8hUunYJV8wn2GIqMQaaMfkasfgkUJKU0ieZ9HQrOC/8ZZiJ2ctqUnB8eYXYxI8xeg+i90l1qVbnFm0xBzHFFKGLLiUiWMmWQA0R/lq1jsFbi9FXp2Tw16GX9/01GKQyKTgyUajB4KvH4BNgFfiTS3nx9RvAMXmlXFVj8lVj8NUitI0ymCnJToRytSZfjdqR3l+nNmzw1xIpDQtWExlVjcFbg8XbjMHTgd5Vxu+fa1UBlHsBxiehcO8BbIFvMQWqMKokCGeSV4BKY5sw+ivJ3VtBU9sJdS/ymdPwzHNNuKMOY/HUYfVWEIj/nJn5s8qR2pgThuPuVWPO1bJ2BQROWc0Sjuh/YI3WxhyjtwGzBNtXo5Z6XwM6OaMRW8Hjz7fR2afd1LJ8aoWEtM+UcyLc9UR6ZCxtx+CX2WMTEcEGtkQ1sCVQR6SvBoO3GqO3CqNPDhVqMPjX46Utjf4qzL4KzL4qTGGA63D23RhO3e3hhHe2vlNtx5IVdUQG6ogI1KILVKPzVyin6b0t6F0l/P7ZFnU7k9yRf+I47Ny7H6v/G8TKxo02vwqnGaOviry91bSHzrG6usaFFXjm+SZcgcOY3fVYPFX44z5jevascsbpU/DO+2PoXcXc5exD5xlE7zrE4ZJZdcB85gyUVS3hjPoEa1QlRl8jRk8DJk8NZk+NKtU6byORMnuMq+K5VwcYnrigpv/HjmtwrMFiIj31RLqbMEry+RrRB+rQBcQtdejFLZ4aTJ4qzB6ZqVUhIAz+KvSBa7oGpxKTJP0G5+x7TXOO/N6amkpvcUtD6zAJba84p0bt7AfO2QBHHGZSr8WudeiUatH5BU4ZhkAVOm8DelcRjz3ZggRPbnFauQB7fvo9Fv83GAMVWg0O1GilxVejOcfbojIub28N7Z0X1IAuZ4qffq4Bu+8QRlcDZk81/rjPmdoMx1nMXQ4NjkHgFIfhnIayyjAcSQpvIwZPPUZ3NSZ3JQZ3DXpPPRG+NkzBMl56c5i5o2vqvNz0zAoxiR9jjSpG56sjwt2AwVOHwSMuqVTSoNRidteoxFmHY1oHdBM4UpE2lrWNcE7Icc4WtbNaZUWZXem9YTjeBsT6Rq+UNc2iRq9kWTWmsOS1lEGpxXoFtQqdvxSdv5xITx16dxEP/7qFiUntDnw5r/azhw5jDX6LPlChsk4yyaRsXoFJ9q2yspZte2ppCZ1l9bLmnKefbcDmP4je06BKhyfmM6bntLJ26hT8XZwThrNF3OM4wOGSGW1CcAZKFZx/YJWk8GoBNrorMbrLMbgr0LtriPDIeFfMq38f5tiydlvW6OgKsQmfYIk6jN5fj072767B6K7C6K5QMrmrFRizu/oqHJNXnCHlLewecVH4tclXqcwgY5PEzugvx59Uwr7XJtWEQLsSeoIfRbhkZ2JJbeorcHTeWpVZkl2yARlHVC31VGO8geQzkd5bRaSvjAhPGZEe2UYx9zzURHO7ViJk9vPL31TgjNtPZKCCSBkUvRUYPCWYvKUYvZXoPU3ovXXk7KmlKXSaSwLnAvxBnBN1SDlS563GGfyUGZkQANfglCjn/NjWwxbr9xoc+YGkM1BStYQj8CmWqApkfNFL+9zlGN2l6uBV56kkUk4jBQ7x1/eHOXEGVU4HBlaIS5Qx56ByukHGYXcNJnfVVZlVKZNyFi5pHnGnJoOvEk0SXy1OakzySLzq0KkEL8OXWMyLr40zMnpR/VKh+h2CLc56lTUGT4WaXek81ehUYOs1QGE4N4Ky8T2D7MxTRaS3gghPBZGuGgyuEvL31PJ90aL2e9Br8NSzNfiTDxAp7hLHecoURIOvVB0X6bytSP3P2V1PU8fZDXCasAeK0HmbVWCdUZ8zO6/N1jQ44+idZdxlH+TH1j62WDXnyCxRfvOtuGoJW9SnapYo7ox016Jzl6N3l6B3lxLpLmOLowJHcD/vfzqkTsecOisnPy8QFfsFRveBcHDrwmNVtSqvUmI3QlEl7RZwJGbyHRnvrsLxl+JLOsyfBM7YOpwlfvS/h1NFhLtKZaHM1pJzSnnz3V516kaOpt/9sJv0PHGJBEaDo/cWq7Eq0lfHFm+ICG8L2btbaOzQrq1cOAfPyIU5XzlGVzsmVyOuwJcaHHGGHOe8N4nBXk2EbZS7zMNEWIopKp5TZe3kaSiqPo4l+DkmOaD1tquxI8JdoQFyVaiZ5V22g8RnFPHNwQl1dvnI0hXe+egk/viD6hBBHUr4ajGFA6yB+X8Nx1WNwSXBKifSXYnOXY3eLWNGnWZ/TzUGd9UdSdxzDU4F7pjv+cVvyzkvN6ADLR1nuO+hRiyuYoyuOgzuSvTeUnS+CnS+KnQynfcfJndPCc0dZ9RsTSYSzz9XjTfwJXbPYeye7/BF/Z35hdNqonHmJLz/3iAW5z8x2mvQ26ow2P5BacmEujajnFN7BFvMW1ijD6ipeqS3kgi3qAqdq1rBMXsP8MIrkwyOar87MDR+mp331mOPKsck5dddgcFViclVdb3cFZjc5dfJ4ClnXXIwrleVSYuhfF/GLJ2nhkgZ530leBMP88fXxtRPXsoPsKpf8Ihw1GNwVmN0lStAOlelaqycxldy12BwV2sDoGz0FtK7tEyMdEtZq0W2ZfJ8x/a7i5iY1+7+l5OJz73QhkemxWq/NeicMiiXEUyp5We/GuD5l4d475MepmYvqhvz5PpKcdEoL7/azot/7uGlV7p5/fVmTp5cUc6Qm9zr64/w4p87+eO+cV7YN8bzf2phYGBJTeNPn1kj1HOKP7/RxL6/jnD3I234kqWNFciYG+GsRwZwq/dz/nVgWj0lcPI8lNcfxxX3PTp3jZa0rjIMznKMzsrr5RJHl12n68FsgqMmEpXIEBLpWYdziD+9egM4ekeV2qneWY7OWUGkswq9s1aTyqoqlTE/aNSmRhoEjquMSHGgSzJSysVBEjKK+PjLWe3m7svw/fdH2LmrCYvjMAZHNXdZyom0HyZvT4jPvl6ib+gcY5OnOH9+TWW+nNxcXDjH8MhJBoZPMTh8mpGRk6ysXFHHOXKAe2xphaGRUwyNnGdo+DyDQ8uclv9YIQ8yraxx7NglRsZO0j96gb++P0l6QZ1Kni2OJiIcjZi9pWQXHKSpdUGNjxPzK7z10QQ69/fc5WwkwimluhS9sxSDo/x6OQVa6QaVoXdr0rnL0FSOTqbtrsqwESSRq4j0yCSoGG/CQf70yijDVycES/xInCNw9I4ydM4yIq/CqUHvFAmoCiWDs4Jbq1yVB52rlEhXmQIljXYFS7n3oXpOn76kgj09Bfv2dWF3fYbRUcFd1iq22A9y98ND1DSd0874hp+xkYt6cgArMz0Z3OUCn0geC5HXAm798/UHqeShKpE8o6O+L4+ByG8IhJ/d+frASXL3dqjyvcXZTKSrHrP3O95+r4+ZubPq6mlL1zF+9ssGdK4i7nI2scVZTaRTYlSqYqV3lHNN8t4mucpULCQOMtlQUskqMSxDjBDpkrIqkIrwxt8Gjsx2NDiV6BzVYVWqsnOtIRsbtflvrfE6VzFKzhIF1eKpJDHtMD3dx1iRCx9rcPjwANnbvsbsLiLSWccWVzF5P+3l4y/m6QgdJdS5SHvnAh3di7R3HaFDFFqko32RUMcinSF5vUBH+wIdHQt0dC7S1rVAc2iO9p4F2rsXaA9/3tm+QFdoga6uRULdR3n9rXlSc9uJdNcR6ZGrm1UkZB9idOKMuv5z/NRlPv16FH/iv5RbZNIUoeCUo5Mktl+vH4BxlCqIAjLSWUqES1RGhEsqk8RMPtdird67CmdMTaVPbBxz9I5KDI6ysHu0DegcAkgDo21wM4jNr+X74UZdhVNKpL0Sna0Sh28/j/yigrHRUyqD5VLwZ1/OYvN9TYSzgi3uEuxxFfjiDxGI+RJ/9Md4gh/gjfuYQNLneGM+xRf8B/6oT/AHPiJaXvvfxx/1IYHgh0TFfow//kMcUW/jifsAb+wHeKLex+N/T60XCHxAVPQnalpscX9JpKOICJccBFYSlXqYtz6YZ+HoKiurUFm/zD2PtLLF8bUK6BZnDRHOSiKl7N8hnKuxuAqojMgNcKRSRTpkCJFqU4Q37gB/eiUMZ/0nvSJtdRhs5RhspejtJegkwMqylQg0nb0cnf16y+pkvduqXEHR2arQ2coxOQ/h8H3BweJjyNRWylR3/2l+/lgnetf36OQA1i2zwkosnlJM7kNEOr9ni+t7Itz7iXTtR+/cj9GxH5NjPxbnASyOA5hdhzC7D2L27Mfk/Q6j5zsM3v0YvAcweg5ich/AaP8eveVf2F2HsDj3Y3AeJsJWxRZbFbao/dz98HfqERT1q4RX4G8f9qtrTpLVdzkrlLaIAxwlRDpKVJwMthJupfVKIw4RB22UgDPYy9DbK9DbZfw6hCvqOzXmyEHo1RvZr8KxF6O3FysQ/xs4Yv1yIq2l6pjD6CrF7D5M/u4q6hoW1XghDxi1dx4ne0cpVjnAdFYSYa9R2mKv4if2Cn7sKFe6y15OhL2MSFspOmupSiaDtRy9rQKdvUJldKSzhAhXCRHOMrYolWsZL+61VmC0VmKQgEjyOcuweA9yz0MV9I8vq+MwmeofKB6j8F45nXOYnziq1YFphKOcSEepAvPfwlFgHKUY7WUYbBUY7eWY7IdwB75l38ujWln7gXM2wIl0iFvCnVb1tfQ6p0Tairm5ioi0FRFp16SzF6FJMq4cu+cAzzwToqdb+1XDs+dXqWpYYM+9NTij5Dtl3GWr4ce2GgXnJ/Zy7rKXscVetgFOCXprCQarttTb1p1cTIS9mAiHDOJF/MRZwk8cZWyxSZJUorfWEGmpRWcrwe77hocfraaueVG7hH4ZWkLnefixBlwx+4mwFbHFKjHQKoqqKuFqobcVo7de040cdHVc2gBV59DaabCL6wSOVKwyTLZDeALf8tLNy9oG50gpk4xUWSkOKL0FjM2gDhNpO0yk/SCR9gPoHAfROwVYMZHWKvSWwyQmFfPyy70MD59TMyqZZZWVz/Dgww14Y4rYYjvMj60lbLFrirCXEmET15Qp1wgYLTiHMVhFh9DbDqGzHSLSfogIx0G2OA5xl0CSbQg8BbMMnaWEQFw5T/y+kbrGGfUfSmQqPj0Ljz3dgT9RtrGfCGsRemspRlsxRlsRxnAZk0TYCEb+vhWcjY4T18lwoK1fit5ajsFahvFmcLZYatBbyzBIY2xFKqt0Kgjl6KwCqSz8XjE6251ItiGSYB1EZz+EXlxkle9WorOUEWn6jpSMcv76tzHmNJfMxwAACoZJREFU5rWn5uSSQmnZHI8+0Uxs6gH0zm/Q2Q8SYRX4ZURaK1T266xSogRSibYfaxE662F01kNE2g4SaTtEhL2ICAWlnC1SAWwlGG37cXi+Iz75EM88301X90k1HZe7V6dnL/HXd8ZwxHzBj23fcJf1IJGWQwq8yXIYkcRHxUhBu+aazaDWX0v5FUk7lJvF0XYtkTXnCWSJeylG68EbO+cn+goijcXoTAfRmQ8RaSkiwlKCzlymySI1/vaNWW/UrZclRFrL+IlJgn2I9G1VvP/xLHOLF7h4Sfs96lD3Mq/8JUTBrkPEJEs5EshlRFoq0Fmr0FmrNVCWEpXdAk/Oo22xHCLCup9ICawKTAURtmoibZWYHUVER+/n3nuLeO21dqanzqi7Os+cvMzQ0Dk+/nKGLY73+D+Or/g/9v38xLofnfl7DCbRASWd+QCaDqGzFF2nSPNhIjbLKu0rYYu1mLtsRVcljlR9shxGZy5Bby7FYDmA2//ND8ecuxScIiKNB4gwHWCL6RBbTEVEmEo1mYuJMBchDdjcqFu/LlYlRGeRZbgzVglgMT82aweeetdhvLFf8cwfu5hdvMDK6pp28Cg3VhyBT744jyvqHzi9X2H3fI/JcQC99QB620H0tu+JMP+LCOsBIpRjvkVn+wq9Tc6vfadmZVb391hdXxKX+E+ee7ZF3Q4sPzQhv5G2cn6N5oYl/m955/4b1XHFcf6cYt+ZO3Nn7mONDQG1jaiiqO1PlVqhVkl/qtqfkqqVmh9aqVUwhjZtaUiVBw1CYO/D97m7XptUFYHSOOGpgHmsQsmjPAwxJSJQUr7VmbvXu7ZJMYlFfsgPX83uvXtnzpzPOWdm30/99O/Qa/dAPlJH32ADqweaYCUKVAKT5HBcciQdI0DLg2P7EyDxgPprzMsOCGQK4dchvAlIjwAlGNpQw/C2sws3BMuFsyQyFkfKkvtNiA7Y7rUpyDi7NAVeeg0soLUkxdqNCZ740T68eWzWvDVsfhjiE+Da9bvmiWG59h5+/ovX8fi3dsMNtkP5O+CveRE6eAn+4Cj8wTLcNbuggueh/N/B83+P728K8dxzR9FsXcTJmY9w7cPuZ7zpFYUw/gA/ePIgBtbFEEECTkFTasEqTcL2m1BeBuWRE/OscLwGjO4RpPfKnAeHU8XwtjM4e+5WdyvN1RSk25s5GWxjUAvCJ5GT75G2yzq2+FqabAbu1cGDFnhpH/o8ausINoTY9GSGP794AqdO3jBPVOklGPqZkiuz/8G59oc4fOR9tCbP45Wd57H9+XMY+e1pPPPL43jmV29j89az+NOONl7d9Q4mm+/g+FuX8N6FG5ibu5P/j9tdevPsLqan/42t2w7hO9+bRDA0AUs1TIT36wyWPwFGcyYQbganAyeP9gYkHX9AOHbQBA8aRiYwezPHVKQmVBBjaEMFw9tOL4YzCaHrEDqBcBPYXgru56WNylte5jLY3kqIymYC7iWw/QxkOKMxggZkEEGXRvHNb9fx9NP7sXPncbTb/wV9OINeQ6NsItG7ov+6eBf/vHAH59q3cezEDRw78RFOn72NC+9+gsuX8m8I3O38ecGdW8DsZeDQGzfw7JYD+PFP9mPjYwm8gRhcN8B0Pkfmkl11cK8B4WamzEs3gaB5+5lppZfh/8k81vip3gnqIjjpftajPEjJt9KUyxCD68sGzpn5zLmKVVy1IHQGoWPYbmwcx2kAt9ERQSFoKyfh03oRQ3gxpJ/ACVI4XmKk3BjKLWPjN2oYHj6O3buPoVo5ggMH3sX7H3xsMon+44a23/O/GkUvjhI887Xb/B8lLrRvYv9fz6M29jZe2HEKT/3sKBz/VSi/Bk3BQEHhUhBSwMS5KDhp7XUTEJhCwuveNsB0bPxFPiPNP84Edx7gZk2hdYU2WX4G6adGtK4Lv/AlrfO0+agZOJu3zuDecNwIthuBIoi5Gbiu53JTcIoqArciogylCUVmS+14eWsmqOuQagJSNeHoGvzgZQytfQEDg3/EEz9s4KWdZ/C3gxfx+qFLODh9GYcOX8EbR2cxfWQWbx65gunDlzH91iX8442L2P6HGWz6boxHhl6BH+yCHqiCu5HZgQp3CrZLGdMB48ewKVgWOb3X8QWA5cEh5+eVRnoUeF3R9bYfdQKigFPF4PoxfMFwCHQKm0pob9QRILdwTmoymXaP2ifRuRqEV4EMytBrygjWVbH26xHWb8zwtceb+Opjdax/lOp2iNLaGpQ/BkmPd6uQbpj37VJ2UJZOmIwxdlDGEBhTFah6dO1aYF9PFj0oHOGm85lVAF4Kp2Jed1wChzkTeVl7KJlTwCEApB5nuCHEvKL8vGqBiQlwhxbuJvpVC5bahz41hT7VwlecCdPScSNnEn1yEqvtCfQ7U7DUFCzdAtcts2VlKi8n3A3RVWQChipFYZOtInAVgdrCob1tAa5oi3P5ml2MUcy1Z46dgMzHpnGpjMaQHj1V2ItnR04tLGsEh6sUXIXgOoSlY1g6BVNZRymYjsF0tCzRpD5dMbgiJYtE14yD6xpsXYHQZQhVg3Ay2LIO4eSPJ5tySA306xR9KjWtpVJY5hydz2A5hf11MNUAU8188Vc0lxDMrYEbEaRkfq65H8i+7hwIUK96zy2+zVTXR5SZi6tEAXP5cGQTtpPDIcOXwklWEE530jmkAlQBpwpbj0LovRCqAuHEEE4K4UQQKoRNYJ0iaEIwRfaGucNNOw6mC9HxGIyAqAJSBqZrYG4FzK3m16kuHOYkYE4E5oSfWRbZpGhs8hsFVbwArslKYyuBjGHrCMItY2DdHvxm5BRO9+7WmGgaB9imw4cBJ8yzhDKFstVk0kI4tt4LW5dhGziZgSSdCNKJIWUKIRMIJ4RwxmGrmsk4psnZFeQt3R438KiU5VWAAKUmawwcc76ARwDTzw2GoM7DMePmcJZkmAkgCi7azhOcMQPn1yMnMdO+hatz9Ombq1jFRMOUjYVwaEIdg80g3XS9X3lbbMjS+3n54rpqnJoDKuBQuRkDd/eC64opfcKUtRRSJnBkCiVICbSMoJxxSEWlkPqqdFT02wu/mA+V51pHUc8cCVL8mbOlN9O6cPI+l86ffEnZ3QNHl7Gmkzkz7Y8xOzeHawaOrMN2IthOPpn8IjK8WB/IcRThKyUapwauqp22cGLnuC6D67H8vJNAmEwp4MRQIpcWIZQch3RqsE1f1F8h6qvol+wv5kJzoLFJi48XpWwczPm8up+vOrY5sakO0qlgcGgUm6mstW/mcOboSahNi24EW46DyxqYQyLjQtiSNA5b1h6iqrCdCmyn2hm/sCOEECFkIVmDXJZdZH/RR+88lh7nooqV0v19RvNJIO0Ejl3B4Jq92DIyg9OdzLk6dw2r+nkTlsjA7QTcjjui24WKY19EW9hwr3a59vRe23vN0uOMx2A8WgH1jvNpt1PYvAHB6hBsHIOlUYxsOWM2BFfm5mDgrGZT6OMt9PMWrC+5+lkTKyWL3cefbBKW9RosawrMilEKqtgyfA4z7du4fH0Os9evYlUfG0U/z2XxUXyZ1c/2YKV0Xz+yMVisAota6y8olV7G5uFjONW+iUvXrxs4/wOy20v52LyJfgAAAABJRU5ErkJggg==;" vertex="1" parent="1">
          <mxGeometry x="523" y="372.25" width="45.19" height="43" as="geometry" />
        </mxCell>
        <mxCell id="mRYJI_ucZMOmYyPQ1O4j-24" value="Personal &lt;br&gt;Health&lt;br&gt;Dashboard" style="points=[[0,0,0],[0.25,0,0],[0.5,0,0],[0.75,0,0],[1,0,0],[0,1,0],[0.25,1,0],[0.5,1,0],[0.75,1,0],[1,1,0],[0,0.25,0],[0,0.5,0],[0,0.75,0],[1,0.25,0],[1,0.5,0],[1,0.75,0]];points=[[0,0,0],[0.25,0,0],[0.5,0,0],[0.75,0,0],[1,0,0],[0,1,0],[0.25,1,0],[0.5,1,0],[0.75,1,0],[1,1,0],[0,0.25,0],[0,0.5,0],[0,0.75,0],[1,0.25,0],[1,0.5,0],[1,0.75,0]];outlineConnect=0;fontColor=#232F3E;gradientColor=#F34482;gradientDirection=north;fillColor=#BC1356;strokeColor=#ffffff;dashed=0;verticalLabelPosition=bottom;verticalAlign=top;align=center;html=1;fontSize=12;fontStyle=0;aspect=fixed;shape=mxgraph.aws4.resourceIcon;resIcon=mxgraph.aws4.personal_health_dashboard;rounded=1;glass=0;labelBackgroundColor=none;" vertex="1" parent="1">
          <mxGeometry x="523" y="455.25" width="40" height="40" as="geometry" />
        </mxCell>
        <mxCell id="mRYJI_ucZMOmYyPQ1O4j-25" value="Checklist" style="outlineConnect=0;fontColor=#232F3E;gradientColor=none;fillColor=#BC1356;strokeColor=none;dashed=0;verticalLabelPosition=bottom;verticalAlign=top;align=center;html=1;fontSize=12;fontStyle=0;aspect=fixed;pointerEvents=1;shape=mxgraph.aws4.checklist;rounded=1;glass=0;labelBackgroundColor=none;" vertex="1" parent="1">
          <mxGeometry x="623.75" y="295.25" width="33.63" height="39.75" as="geometry" />
        </mxCell>
        <mxCell id="mRYJI_ucZMOmYyPQ1O4j-26" value="Email" style="outlineConnect=0;fontColor=#232F3E;gradientColor=none;fillColor=#3334B9;strokeColor=none;dashed=0;verticalLabelPosition=bottom;verticalAlign=top;align=center;html=1;fontSize=12;fontStyle=0;aspect=fixed;pointerEvents=1;shape=mxgraph.aws4.email;rounded=1;glass=0;labelBackgroundColor=none;" vertex="1" parent="1">
          <mxGeometry x="623.75" y="375" width="33.91" height="30" as="geometry" />
        </mxCell>
        <mxCell id="mRYJI_ucZMOmYyPQ1O4j-27" value="SNS" style="points=[[0,0,0],[0.25,0,0],[0.5,0,0],[0.75,0,0],[1,0,0],[0,1,0],[0.25,1,0],[0.5,1,0],[0.75,1,0],[1,1,0],[0,0.25,0],[0,0.5,0],[0,0.75,0],[1,0.25,0],[1,0.5,0],[1,0.75,0]];outlineConnect=0;fontColor=#232F3E;gradientColor=#F34482;gradientDirection=north;fillColor=#BC1356;strokeColor=#ffffff;dashed=0;verticalLabelPosition=bottom;verticalAlign=top;align=center;html=1;fontSize=12;fontStyle=0;aspect=fixed;shape=mxgraph.aws4.resourceIcon;resIcon=mxgraph.aws4.sns;rounded=1;glass=0;labelBackgroundColor=none;" vertex="1" parent="1">
          <mxGeometry x="623.75" y="453" width="42" height="42" as="geometry" />
        </mxCell>
        <mxCell id="mRYJI_ucZMOmYyPQ1O4j-28" value="" style="shape=flexArrow;endArrow=classic;html=1;" edge="1" parent="1">
          <mxGeometry width="50" height="50" relative="1" as="geometry">
            <mxPoint x="233.65999999999985" y="369.25" as="sourcePoint" />
            <mxPoint x="273.65999999999985" y="369.25" as="targetPoint" />
          </mxGeometry>
        </mxCell>
        <mxCell id="mRYJI_ucZMOmYyPQ1O4j-29" value="" style="shape=flexArrow;endArrow=classic;html=1;" edge="1" parent="1">
          <mxGeometry width="50" height="50" relative="1" as="geometry">
            <mxPoint x="470" y="370.25" as="sourcePoint" />
            <mxPoint x="510" y="370.25" as="targetPoint" />
          </mxGeometry>
        </mxCell>
        <mxCell id="mRYJI_ucZMOmYyPQ1O4j-30" value="100TB&amp;nbsp;&lt;br&gt;Storage" style="outlineConnect=0;dashed=0;verticalLabelPosition=bottom;verticalAlign=top;align=center;html=1;shape=mxgraph.aws3.s3;fillColor=#E05243;gradientColor=none;" vertex="1" parent="1">
          <mxGeometry x="391.73" y="540" width="40" height="45" as="geometry" />
        </mxCell>
        <mxCell id="mRYJI_ucZMOmYyPQ1O4j-31" value="100TB&amp;nbsp;&lt;br&gt;Storage" style="outlineConnect=0;dashed=0;verticalLabelPosition=bottom;verticalAlign=top;align=center;html=1;shape=mxgraph.aws3.s3;fillColor=#E05243;gradientColor=none;" vertex="1" parent="1">
          <mxGeometry x="299.73" y="540" width="40" height="45" as="geometry" />
        </mxCell>
        <mxCell id="mRYJI_ucZMOmYyPQ1O4j-7" value="Design &#xa;Automation" style="rounded=1;arcSize=10;strokeWidth=2;verticalAlign=top;fontSize=10;glass=0;fillColor=none;strokeColor=#FFB570;" vertex="1" parent="1">
          <mxGeometry x="161.15999999999997" y="250.25" width="69.5" height="312" as="geometry" />
        </mxCell>
        <mxCell id="mRYJI_ucZMOmYyPQ1O4j-32" value="" style="rounded=1;arcSize=10;strokeWidth=2;verticalAlign=top;fontSize=10;glass=0;fillColor=none;strokeColor=#D4E1F5;" vertex="1" parent="1">
          <mxGeometry x="613.25" y="244.25" width="63" height="312" as="geometry" />
        </mxCell>
        <mxCell id="mRYJI_ucZMOmYyPQ1O4j-36" value="" style="endArrow=classic;html=1;entryX=0;entryY=0.5;entryDx=0;entryDy=0;exitX=1;exitY=0.5;exitDx=0;exitDy=0;" edge="1" parent="1" source="mRYJI_ucZMOmYyPQ1O4j-5" target="mRYJI_ucZMOmYyPQ1O4j-4">
          <mxGeometry width="50" height="50" relative="1" as="geometry">
            <mxPoint x="430" y="440" as="sourcePoint" />
            <mxPoint x="480" y="390" as="targetPoint" />
          </mxGeometry>
        </mxCell>
      </root>
    </mxGraphModel>
  </diagram>
</mxfile>
